{"glyphs":{"0":{"ha":764,"x_min":75,"x_max":689,"o":"m 382 -24 q 150 97 225 -24 q 75 467 75 217 q 151 834 75 713 q 382 956 226 956 q 611 833 533 956 q 689 467 689 710 q 382 -24 689 -24 m 382 94 q 509 185 465 94 q 553 475 553 276 q 508 748 553 658 q 382 838 463 838 q 253 748 296 838 q 211 467 211 658 q 253 183 211 271 q 382 94 294 94 z "},"1":{"ha":764,"x_min":140,"x_max":633,"o":"m 633 121 l 633 0 l 140 0 l 140 121 l 319 121 l 319 815 l 168 815 l 168 936 l 453 936 l 453 121 l 633 121 z "},"2":{"ha":764,"x_min":76,"x_max":699,"o":"m 76 121 q 350 375 265 292 q 480 528 435 458 q 525 668 525 599 q 478 794 525 750 q 349 838 431 838 q 111 781 229 838 l 111 904 q 367 956 231 956 q 579 883 497 956 q 661 678 661 811 q 618 513 661 592 q 507 363 575 433 q 315 179 439 292 q 253 121 315 179 l 699 121 l 699 0 l 76 0 l 76 121 z "},"3":{"ha":764,"x_min":103,"x_max":675,"o":"m 503 496 q 631 408 588 469 q 675 257 675 347 q 590 52 675 128 q 357 -24 504 -24 q 103 25 217 -24 l 103 149 q 216 109 154 124 q 339 94 278 94 q 488 140 436 94 q 539 271 539 186 q 484 393 539 351 q 325 435 429 435 l 214 435 l 214 553 l 325 553 q 474 590 424 553 q 525 699 525 626 q 478 801 525 764 q 344 838 431 838 q 227 826 288 838 q 117 789 167 814 l 117 913 q 357 956 221 956 q 579 890 497 956 q 661 714 661 825 q 622 579 661 632 q 503 496 582 526 z "},"4":{"ha":764,"x_min":32,"x_max":744,"o":"m 744 208 l 597 208 l 597 -24 l 464 -24 l 464 208 l 32 208 l 32 325 l 436 949 l 597 949 l 597 325 l 744 325 l 744 208 m 464 325 l 464 769 l 174 325 l 464 325 z "},"5":{"ha":764,"x_min":100,"x_max":682,"o":"m 351 600 q 595 517 508 600 q 682 296 682 435 q 590 60 682 143 q 333 -24 499 -24 q 100 17 204 -24 l 100 139 q 210 106 151 118 q 325 94 269 94 q 546 296 546 94 q 490 434 546 386 q 333 482 435 482 q 219 470 276 482 q 115 440 161 458 l 125 936 l 628 936 l 628 815 l 256 815 l 250 593 q 351 600 306 600 z "},"6":{"ha":764,"x_min":69,"x_max":700,"o":"m 407 585 q 561 548 494 585 q 664 444 628 511 q 700 288 700 376 q 660 124 700 194 q 551 15 621 53 q 394 -24 482 -24 q 153 72 238 -24 q 69 340 69 167 q 179 682 69 528 q 490 953 289 836 l 572 865 q 367 708 447 786 q 247 540 288 631 q 407 585 321 585 m 393 90 q 516 142 468 90 q 564 283 564 193 q 515 424 564 372 q 388 476 465 476 q 211 413 289 476 q 206 332 206 363 q 256 150 207 210 q 393 90 306 90 z "},"7":{"ha":764,"x_min":97,"x_max":701,"o":"m 701 936 l 701 815 l 349 -24 l 200 -24 l 567 815 l 97 815 l 97 936 l 701 936 z "},"8":{"ha":764,"x_min":65,"x_max":699,"o":"m 533 488 q 654 392 610 456 q 699 246 699 329 q 658 104 699 165 q 546 10 618 43 q 382 -24 474 -24 q 216 10 288 -24 q 105 104 144 43 q 65 246 65 165 q 108 392 65 329 q 228 488 151 456 q 131 576 165 519 q 96 704 96 633 q 132 833 96 776 q 233 923 168 890 q 382 956 299 956 q 529 923 464 956 q 631 833 594 890 q 668 704 668 775 q 632 576 668 633 q 533 488 596 519 m 382 842 q 275 800 318 842 q 232 693 232 758 q 275 585 232 628 q 382 543 318 543 q 489 585 446 543 q 532 693 532 628 q 489 800 532 758 q 382 842 446 842 m 382 90 q 511 135 460 90 q 563 257 563 181 q 511 379 563 333 q 382 425 460 425 q 253 379 304 425 q 201 257 201 333 q 253 135 201 181 q 382 90 304 90 z "},"9":{"ha":764,"x_min":63,"x_max":693,"o":"m 368 954 q 609 859 525 954 q 693 592 693 764 q 583 249 693 404 q 274 -22 474 94 l 190 65 q 396 224 317 146 q 515 392 475 301 q 356 346 443 346 q 201 383 268 346 q 99 488 135 421 q 63 643 63 556 q 102 807 63 736 q 211 916 142 878 q 368 954 281 954 m 375 456 q 551 518 474 456 q 557 600 557 553 q 506 781 556 722 q 371 840 457 840 q 247 789 294 840 q 199 649 199 738 q 248 508 199 560 q 375 456 297 456 z "},"\r":{"ha":833,"x_min":0,"x_max":0,"o":""}," ":{"ha":306,"x_min":0,"x_max":0,"o":""},"A":{"ha":1017,"x_min":38,"x_max":981,"o":"m 728 307 l 289 307 l 176 0 l 38 0 l 433 1065 l 583 1065 l 981 0 l 842 0 l 728 307 m 682 428 l 508 897 l 335 428 l 682 428 z "},"Á":{"ha":1017,"x_min":38,"x_max":981,"o":"m 38 0 m 728 307 l 289 307 l 176 0 l 38 0 l 433 1065 l 583 1065 l 981 0 l 842 0 l 728 307 m 682 428 l 508 897 l 335 428 l 682 428 m 585 1374 l 739 1374 l 571 1161 l 439 1161 l 585 1374 z "},"Ă":{"ha":1017,"x_min":38,"x_max":981,"o":"m 38 0 m 728 307 l 289 307 l 176 0 l 38 0 l 433 1065 l 583 1065 l 981 0 l 842 0 l 728 307 m 682 428 l 508 897 l 335 428 l 682 428 m 508 1160 q 349 1209 408 1160 q 290 1356 290 1258 l 290 1371 l 397 1371 l 397 1357 q 424 1275 397 1301 q 508 1249 450 1249 q 593 1275 567 1249 q 619 1357 619 1301 l 619 1371 l 726 1371 l 726 1356 q 669 1209 728 1258 q 508 1160 611 1160 z "},"Â":{"ha":1017,"x_min":38,"x_max":981,"o":"m 38 0 m 728 307 l 289 307 l 176 0 l 38 0 l 433 1065 l 583 1065 l 981 0 l 842 0 l 728 307 m 682 428 l 508 897 l 335 428 l 682 428 m 601 1161 l 508 1313 l 414 1161 l 274 1161 l 428 1374 l 588 1374 l 742 1161 l 601 1161 z "},"Ä":{"ha":1017,"x_min":38,"x_max":981,"o":"m 38 0 m 728 307 l 289 307 l 176 0 l 38 0 l 433 1065 l 583 1065 l 981 0 l 842 0 l 728 307 m 682 428 l 508 897 l 335 428 l 682 428 m 590 1353 l 711 1353 l 711 1181 l 590 1181 l 590 1353 m 307 1353 l 429 1353 l 429 1181 l 307 1181 l 307 1353 z "},"À":{"ha":1017,"x_min":38,"x_max":981,"o":"m 38 0 m 728 307 l 289 307 l 176 0 l 38 0 l 433 1065 l 583 1065 l 981 0 l 842 0 l 728 307 m 682 428 l 508 897 l 335 428 l 682 428 m 292 1374 l 446 1374 l 592 1161 l 460 1161 l 292 1374 z "},"Ā":{"ha":1017,"x_min":38,"x_max":981,"o":"m 38 0 m 728 307 l 289 307 l 176 0 l 38 0 l 433 1065 l 583 1065 l 981 0 l 842 0 l 728 307 m 682 428 l 508 897 l 335 428 l 682 428 m 293 1315 l 722 1315 l 722 1221 l 293 1221 l 293 1315 z "},"Ą":{"ha":1017,"x_min":38,"x_max":981,"o":"m 38 0 m 728 307 l 289 307 l 176 0 l 38 0 l 433 1065 l 583 1065 l 981 0 l 842 0 l 728 307 m 682 428 l 508 897 l 335 428 l 682 428 m 894 -328 q 774 -294 815 -328 q 733 -204 733 -261 q 765 -100 733 -150 q 863 0 797 -50 l 981 0 q 878 -96 914 -51 q 842 -186 842 -140 q 858 -226 842 -211 q 907 -240 875 -240 q 981 -224 946 -240 l 981 -311 q 894 -328 942 -328 z "},"Å":{"ha":1017,"x_min":38,"x_max":981,"o":"m 38 0 m 728 307 l 289 307 l 176 0 l 38 0 l 433 1065 l 583 1065 l 981 0 l 842 0 l 728 307 m 682 428 l 508 897 l 335 428 l 682 428 m 508 1139 q 404 1175 443 1139 q 365 1267 365 1211 q 403 1358 365 1322 q 508 1393 442 1393 q 612 1358 574 1393 q 650 1267 650 1322 q 612 1175 650 1211 q 508 1139 574 1139 m 508 1206 q 553 1222 536 1206 q 569 1267 569 1239 q 553 1311 569 1294 q 508 1328 536 1328 q 463 1311 481 1328 q 446 1267 446 1294 q 463 1222 446 1239 q 508 1206 481 1206 z "},"Ã":{"ha":1017,"x_min":38,"x_max":981,"o":"m 38 0 m 728 307 l 289 307 l 176 0 l 38 0 l 433 1065 l 583 1065 l 981 0 l 842 0 l 728 307 m 682 428 l 508 897 l 335 428 l 682 428 m 289 1185 q 323 1306 290 1269 q 407 1342 356 1342 q 488 1321 443 1342 l 539 1297 q 586 1283 571 1283 q 624 1342 624 1283 l 726 1342 q 608 1185 722 1185 q 528 1206 567 1185 l 476 1229 q 451 1239 463 1235 q 429 1243 439 1243 q 392 1185 392 1243 l 289 1185 z "},"Æ":{"ha":1501,"x_min":44,"x_max":1418,"o":"m 1418 117 l 1418 0 l 772 0 l 772 329 l 397 329 l 193 0 l 44 0 l 706 1053 l 1411 1053 l 1411 936 l 907 936 l 907 588 l 1342 588 l 1342 471 l 907 471 l 907 117 l 1418 117 m 772 446 l 772 935 l 469 446 l 772 446 z "},"B":{"ha":985,"x_min":149,"x_max":889,"o":"m 700 535 q 889 285 889 474 q 802 70 889 140 q 513 0 715 0 l 149 0 l 149 1053 l 513 1053 q 772 983 697 1053 q 847 771 847 914 q 812 627 847 686 q 700 535 776 568 m 283 585 l 513 585 q 710 761 708 585 q 667 899 710 858 q 513 939 624 939 l 283 939 l 283 585 m 751 293 q 691 428 751 386 q 513 471 631 471 l 283 471 l 283 114 l 513 114 q 697 157 643 114 q 751 293 751 200 z "},"C":{"ha":981,"x_min":78,"x_max":932,"o":"m 593 -24 q 308 44 424 -24 q 135 236 193 113 q 78 525 78 360 q 135 804 78 681 q 308 1000 192 928 q 593 1072 424 1072 q 724 1060 667 1072 q 849 1021 782 1049 l 849 897 q 596 954 731 954 q 393 899 479 954 q 261 747 307 844 q 217 525 215 649 q 261 300 217 397 q 390 149 306 203 q 593 94 475 94 q 738 115 667 94 q 889 175 810 136 l 932 61 q 763 -2 851 19 q 593 -24 674 -24 z "},"Ć":{"ha":981,"x_min":78,"x_max":932,"o":"m 78 0 m 593 -24 q 308 44 424 -24 q 135 236 193 113 q 78 525 78 360 q 135 804 78 681 q 308 1000 192 928 q 593 1072 424 1072 q 724 1060 667 1072 q 849 1021 782 1049 l 849 897 q 596 954 731 954 q 393 899 479 954 q 261 747 307 844 q 217 525 215 649 q 261 300 217 397 q 390 149 306 203 q 593 94 475 94 q 738 115 667 94 q 889 175 810 136 l 932 61 q 763 -2 851 19 q 593 -24 674 -24 m 614 1374 l 768 1374 l 600 1161 l 468 1161 l 614 1374 z "},"Č":{"ha":981,"x_min":78,"x_max":932,"o":"m 78 0 m 593 -24 q 308 44 424 -24 q 135 236 193 113 q 78 525 78 360 q 135 804 78 681 q 308 1000 192 928 q 593 1072 424 1072 q 724 1060 667 1072 q 849 1021 782 1049 l 849 897 q 596 954 731 954 q 393 899 479 954 q 261 747 307 844 q 217 525 215 649 q 261 300 217 397 q 390 149 306 203 q 593 94 475 94 q 738 115 667 94 q 889 175 810 136 l 932 61 q 763 -2 851 19 q 593 -24 674 -24 m 771 1374 l 617 1161 l 457 1161 l 303 1374 l 443 1374 l 538 1222 l 631 1374 l 771 1374 z "},"Ç":{"ha":981,"x_min":78,"x_max":932,"o":"m 615 -87 q 728 -124 689 -87 q 767 -221 767 -161 q 721 -326 767 -286 q 588 -365 675 -365 q 451 -337 513 -365 l 451 -249 q 579 -278 515 -278 q 643 -262 622 -278 q 664 -222 664 -246 q 588 -171 664 -171 q 475 -192 543 -171 l 525 -21 q 192 146 306 0 q 78 525 78 292 q 135 804 78 681 q 308 1000 192 928 q 593 1072 424 1072 q 724 1060 667 1072 q 849 1021 782 1049 l 849 897 q 596 954 731 954 q 393 899 479 954 q 261 747 307 844 q 217 525 215 649 q 261 300 217 397 q 390 149 306 203 q 593 94 475 94 q 738 115 667 94 q 889 175 810 136 l 932 61 q 778 2 858 24 q 622 -22 699 -19 l 603 -87 l 615 -87 z "},"Ċ":{"ha":981,"x_min":78,"x_max":932,"o":"m 78 0 m 593 -24 q 308 44 424 -24 q 135 236 193 113 q 78 525 78 360 q 135 804 78 681 q 308 1000 192 928 q 593 1072 424 1072 q 724 1060 667 1072 q 849 1021 782 1049 l 849 897 q 596 954 731 954 q 393 899 479 954 q 261 747 307 844 q 217 525 215 649 q 261 300 217 397 q 390 149 306 203 q 593 94 475 94 q 738 115 667 94 q 889 175 810 136 l 932 61 q 763 -2 851 19 q 593 -24 674 -24 m 474 1353 l 604 1353 l 604 1181 l 474 1181 l 474 1353 z "},"D":{"ha":1106,"x_min":149,"x_max":1024,"o":"m 499 1053 q 891 919 758 1053 q 1024 525 1024 785 q 892 132 1024 264 q 499 0 760 0 l 149 0 l 149 1053 l 499 1053 m 885 529 q 788 836 885 738 q 499 935 690 935 l 283 935 l 283 118 l 499 118 q 788 217 692 118 q 885 529 885 315 z "},"Ð":{"ha":1106,"x_min":28,"x_max":1024,"o":"m 499 1053 q 891 919 758 1053 q 1024 525 1024 785 q 892 132 1024 264 q 499 0 760 0 l 149 0 l 149 475 l 28 475 l 28 583 l 149 583 l 149 1053 l 499 1053 m 885 529 q 788 836 885 738 q 499 935 690 935 l 283 935 l 283 583 l 543 583 l 543 475 l 283 475 l 283 118 l 499 118 q 788 217 692 118 q 885 529 885 315 z "},"Ď":{"ha":1106,"x_min":149,"x_max":1024,"o":"m 149 0 m 499 1053 q 891 919 758 1053 q 1024 525 1024 785 q 892 132 1024 264 q 499 0 760 0 l 149 0 l 149 1053 l 499 1053 m 885 529 q 788 836 885 738 q 499 935 690 935 l 283 935 l 283 118 l 499 118 q 788 217 692 118 q 885 529 885 315 m 757 1374 l 603 1161 l 443 1161 l 289 1374 l 429 1374 l 524 1222 l 617 1374 l 757 1374 z "},"Đ":{"ha":1106,"x_min":28,"x_max":1024,"o":"m 28 0 m 499 1053 q 891 919 758 1053 q 1024 525 1024 785 q 892 132 1024 264 q 499 0 760 0 l 149 0 l 149 475 l 28 475 l 28 583 l 149 583 l 149 1053 l 499 1053 m 885 529 q 788 836 885 738 q 499 935 690 935 l 283 935 l 283 583 l 543 583 l 543 475 l 283 475 l 283 118 l 499 118 q 788 217 692 118 q 885 529 885 315 z "},"E":{"ha":876,"x_min":149,"x_max":793,"o":"m 793 117 l 793 0 l 149 0 l 149 1053 l 786 1053 l 786 936 l 283 936 l 283 588 l 717 588 l 717 471 l 283 471 l 283 117 l 793 117 z "},"É":{"ha":876,"x_min":149,"x_max":793,"o":"m 149 0 m 793 117 l 793 0 l 149 0 l 149 1053 l 786 1053 l 786 936 l 283 936 l 283 588 l 717 588 l 717 471 l 283 471 l 283 117 l 793 117 m 542 1374 l 696 1374 l 528 1161 l 396 1161 l 542 1374 z "},"Ě":{"ha":876,"x_min":149,"x_max":793,"o":"m 149 0 m 793 117 l 793 0 l 149 0 l 149 1053 l 786 1053 l 786 936 l 283 936 l 283 588 l 717 588 l 717 471 l 283 471 l 283 117 l 793 117 m 700 1374 l 546 1161 l 386 1161 l 232 1374 l 372 1374 l 467 1222 l 560 1374 l 700 1374 z "},"Ê":{"ha":876,"x_min":149,"x_max":793,"o":"m 149 0 m 793 117 l 793 0 l 149 0 l 149 1053 l 786 1053 l 786 936 l 283 936 l 283 588 l 717 588 l 717 471 l 283 471 l 283 117 l 793 117 m 560 1161 l 467 1313 l 372 1161 l 232 1161 l 386 1374 l 546 1374 l 700 1161 l 560 1161 z "},"Ë":{"ha":876,"x_min":149,"x_max":793,"o":"m 149 0 m 793 117 l 793 0 l 149 0 l 149 1053 l 786 1053 l 786 936 l 283 936 l 283 588 l 717 588 l 717 471 l 283 471 l 283 117 l 793 117 m 547 1353 l 668 1353 l 668 1181 l 547 1181 l 547 1353 m 264 1353 l 386 1353 l 386 1181 l 264 1181 l 264 1353 z "},"Ė":{"ha":876,"x_min":149,"x_max":793,"o":"m 149 0 m 793 117 l 793 0 l 149 0 l 149 1053 l 786 1053 l 786 936 l 283 936 l 283 588 l 717 588 l 717 471 l 283 471 l 283 117 l 793 117 m 401 1353 l 532 1353 l 532 1181 l 401 1181 l 401 1353 z "},"È":{"ha":876,"x_min":149,"x_max":793,"o":"m 149 0 m 793 117 l 793 0 l 149 0 l 149 1053 l 786 1053 l 786 936 l 283 936 l 283 588 l 717 588 l 717 471 l 283 471 l 283 117 l 793 117 m 249 1374 l 403 1374 l 549 1161 l 417 1161 l 249 1374 z "},"Ē":{"ha":876,"x_min":149,"x_max":793,"o":"m 149 0 m 260 1315 l 689 1315 l 689 1221 l 260 1221 l 260 1315 m 793 117 l 793 0 l 149 0 l 149 1053 l 786 1053 l 786 936 l 283 936 l 283 588 l 717 588 l 717 471 l 283 471 l 283 117 l 793 117 z "},"Ę":{"ha":876,"x_min":149,"x_max":794,"o":"m 149 0 m 793 117 l 793 0 l 149 0 l 149 1053 l 786 1053 l 786 936 l 283 936 l 283 588 l 717 588 l 717 471 l 283 471 l 283 117 l 793 117 m 708 -328 q 588 -294 629 -328 q 547 -204 547 -261 q 579 -100 547 -150 q 676 0 611 -50 l 794 0 q 692 -96 728 -51 q 656 -186 656 -140 q 672 -226 656 -211 q 721 -240 689 -240 q 794 -224 760 -240 l 794 -311 q 708 -328 756 -328 z "},"F":{"ha":851,"x_min":149,"x_max":786,"o":"m 283 932 l 283 571 l 717 571 l 717 450 l 283 450 l 283 0 l 149 0 l 149 1053 l 786 1053 l 786 932 l 283 932 z "},"G":{"ha":1072,"x_min":78,"x_max":956,"o":"m 956 643 l 956 74 q 776 1 874 26 q 593 -24 678 -24 q 310 45 426 -24 q 136 238 194 114 q 78 525 78 361 q 134 804 78 681 q 306 1000 190 928 q 593 1072 422 1072 q 748 1055 685 1072 q 890 1003 811 1038 l 890 875 q 751 934 819 914 q 593 954 682 954 q 390 900 475 954 q 261 749 306 846 q 217 529 217 653 q 260 302 217 400 q 389 149 304 204 q 593 94 474 94 q 707 108 653 94 q 822 147 761 122 l 822 522 l 431 522 l 431 643 l 956 643 z "},"Ğ":{"ha":1072,"x_min":78,"x_max":956,"o":"m 78 0 m 956 643 l 956 74 q 776 1 874 26 q 593 -24 678 -24 q 310 45 426 -24 q 136 238 194 114 q 78 525 78 361 q 134 804 78 681 q 306 1000 190 928 q 593 1072 422 1072 q 748 1055 685 1072 q 890 1003 811 1038 l 890 875 q 751 934 819 914 q 593 954 682 954 q 390 900 475 954 q 261 749 306 846 q 217 529 217 653 q 260 302 217 400 q 389 149 304 204 q 593 94 474 94 q 707 108 653 94 q 822 147 761 122 l 822 522 l 431 522 l 431 643 l 956 643 m 572 1160 q 413 1209 472 1160 q 354 1356 354 1258 l 354 1371 l 461 1371 l 461 1357 q 488 1275 461 1301 q 572 1249 514 1249 q 657 1275 631 1249 q 683 1357 683 1301 l 683 1371 l 790 1371 l 790 1356 q 733 1209 792 1258 q 572 1160 675 1160 z "},"Ģ":{"ha":1072,"x_min":78,"x_max":956,"o":"m 78 0 m 956 643 l 956 74 q 776 1 874 26 q 593 -24 678 -24 q 310 45 426 -24 q 136 238 194 114 q 78 525 78 361 q 134 804 78 681 q 306 1000 190 928 q 593 1072 422 1072 q 748 1055 685 1072 q 890 1003 811 1038 l 890 875 q 751 934 819 914 q 593 954 682 954 q 390 900 475 954 q 261 749 306 846 q 217 529 217 653 q 260 302 217 400 q 389 149 304 204 q 593 94 474 94 q 707 108 653 94 q 822 147 761 122 l 822 522 l 431 522 l 431 643 l 956 643 m 513 -111 l 651 -111 l 594 -342 l 468 -342 l 513 -111 z "},"Ġ":{"ha":1072,"x_min":78,"x_max":956,"o":"m 78 0 m 956 643 l 956 74 q 776 1 874 26 q 593 -24 678 -24 q 310 45 426 -24 q 136 238 194 114 q 78 525 78 361 q 134 804 78 681 q 306 1000 190 928 q 593 1072 422 1072 q 748 1055 685 1072 q 890 1003 811 1038 l 890 875 q 751 934 819 914 q 593 954 682 954 q 390 900 475 954 q 261 749 306 846 q 217 529 217 653 q 260 302 217 400 q 389 149 304 204 q 593 94 474 94 q 707 108 653 94 q 822 147 761 122 l 822 522 l 431 522 l 431 643 l 956 643 m 508 1353 l 639 1353 l 639 1181 l 508 1181 l 508 1353 z "},"H":{"ha":1097,"x_min":149,"x_max":949,"o":"m 949 1053 l 949 0 l 814 0 l 814 468 l 283 468 l 283 0 l 149 0 l 149 1053 l 283 1053 l 283 590 l 814 590 l 814 1053 l 949 1053 z "},"Ħ":{"ha":1076,"x_min":149,"x_max":949,"o":"m 949 1053 l 949 0 l 814 0 l 814 468 l 283 468 l 283 0 l 149 0 l 149 1053 l 283 1053 l 283 876 l 814 876 l 814 1053 l 949 1053 m 814 590 l 814 758 l 283 758 l 283 590 l 814 590 z "},"I":{"ha":432,"x_min":149,"x_max":283,"o":"m 149 1053 l 283 1053 l 283 0 l 149 0 l 149 1053 z "},"Ĳ":{"ha":876,"x_min":149,"x_max":729,"o":"m 149 0 m 149 1053 l 283 1053 l 283 0 l 149 0 l 149 1053 m 522 -158 q 443 -151 476 -158 l 443 -32 q 510 -37 471 -37 q 562 -26 544 -37 q 587 17 579 -14 q 594 110 594 49 l 594 1053 l 729 1053 l 729 101 q 711 -59 729 -4 q 650 -136 693 -114 q 522 -158 607 -158 z "},"Í":{"ha":432,"x_min":146,"x_max":446,"o":"m 146 0 m 149 1053 l 283 1053 l 283 0 l 149 0 l 149 1053 m 292 1374 l 446 1374 l 278 1161 l 146 1161 l 292 1374 z "},"Î":{"ha":432,"x_min":-19,"x_max":449,"o":"m 0 0 m 149 1053 l 283 1053 l 283 0 l 149 0 l 149 1053 m 308 1161 l 215 1313 l 121 1161 l -19 1161 l 135 1374 l 294 1374 l 449 1161 l 308 1161 z "},"Ï":{"ha":432,"x_min":14,"x_max":418,"o":"m 14 0 m 149 1053 l 283 1053 l 283 0 l 149 0 l 149 1053 m 297 1353 l 418 1353 l 418 1181 l 297 1181 l 297 1353 m 14 1353 l 136 1353 l 136 1181 l 14 1181 l 14 1353 z "},"İ":{"ha":432,"x_min":149,"x_max":283,"o":"m 149 0 m 149 1053 l 283 1053 l 283 0 l 149 0 l 149 1053 m 151 1353 l 282 1353 l 282 1181 l 151 1181 l 151 1353 z "},"Ì":{"ha":432,"x_min":-1,"x_max":299,"o":"m 0 0 m 149 1053 l 283 1053 l 283 0 l 149 0 l 149 1053 m -1 1374 l 153 1374 l 299 1161 l 167 1161 l -1 1374 z "},"Ī":{"ha":432,"x_min":0,"x_max":429,"o":"m 0 0 m 149 1053 l 283 1053 l 283 0 l 149 0 l 149 1053 m 0 1315 l 429 1315 l 429 1221 l 0 1221 l 0 1315 z "},"Į":{"ha":432,"x_min":26,"x_max":283,"o":"m 283 1053 l 283 0 l 274 0 q 171 -96 207 -51 q 135 -186 135 -140 q 151 -226 135 -211 q 200 -240 168 -240 q 274 -224 239 -240 l 274 -311 q 188 -328 235 -328 q 67 -294 108 -328 q 26 -204 26 -261 q 60 -100 26 -150 q 158 0 93 -50 l 149 0 l 149 1053 l 283 1053 z "},"J":{"ha":446,"x_min":11,"x_max":297,"o":"m 90 -158 q 11 -151 44 -158 l 11 -32 q 78 -37 39 -37 q 130 -26 113 -37 q 155 17 147 -14 q 163 110 163 49 l 163 1053 l 297 1053 l 297 101 q 279 -59 297 -4 q 218 -136 261 -114 q 90 -158 175 -158 z "},"K":{"ha":954,"x_min":149,"x_max":908,"o":"m 356 475 l 283 399 l 283 0 l 149 0 l 149 1053 l 283 1053 l 283 582 l 731 1053 l 901 1053 l 447 572 l 908 0 l 735 0 l 356 475 z "},"Ķ":{"ha":954,"x_min":149,"x_max":908,"o":"m 149 0 m 356 475 l 283 399 l 283 0 l 149 0 l 149 1053 l 283 1053 l 283 582 l 731 1053 l 901 1053 l 447 572 l 908 0 l 735 0 l 356 475 m 396 -111 l 535 -111 l 478 -342 l 351 -342 l 396 -111 z "},"L":{"ha":779,"x_min":149,"x_max":724,"o":"m 724 121 l 724 0 l 149 0 l 149 1053 l 283 1053 l 283 121 l 724 121 z "},"Ĺ":{"ha":779,"x_min":143,"x_max":724,"o":"m 143 0 m 724 121 l 724 0 l 149 0 l 149 1053 l 283 1053 l 283 121 l 724 121 m 289 1374 l 443 1374 l 275 1161 l 143 1161 l 289 1374 z "},"Ľ":{"ha":779,"x_min":149,"x_max":724,"o":"m 149 0 m 724 121 l 724 0 l 149 0 l 149 1053 l 283 1053 l 283 121 l 724 121 m 457 1053 l 588 1053 l 500 772 l 388 772 l 457 1053 z "},"Ļ":{"ha":779,"x_min":149,"x_max":724,"o":"m 149 0 m 724 121 l 724 0 l 149 0 l 149 1053 l 283 1053 l 283 121 l 724 121 m 361 -111 l 500 -111 l 443 -342 l 317 -342 l 361 -111 z "},"Ŀ":{"ha":779,"x_min":149,"x_max":724,"o":"m 724 121 l 724 0 l 149 0 l 149 1053 l 283 1053 l 283 121 l 724 121 m 631 425 l 486 425 l 486 649 l 631 649 l 631 425 z "},"Ł":{"ha":779,"x_min":14,"x_max":724,"o":"m 724 121 l 724 0 l 149 0 l 149 378 l 14 324 l 14 443 l 149 497 l 149 1053 l 283 1053 l 283 551 l 614 685 l 614 565 l 283 432 l 283 121 l 724 121 z "},"M":{"ha":1279,"x_min":149,"x_max":1131,"o":"m 1131 1053 l 1131 0 l 996 0 l 996 849 l 674 400 l 603 400 l 283 849 l 283 0 l 149 0 l 149 1053 l 296 1053 l 639 572 l 982 1053 l 1131 1053 z "},"N":{"ha":1097,"x_min":149,"x_max":949,"o":"m 949 1053 l 949 0 l 801 0 l 283 826 l 283 0 l 149 0 l 149 1053 l 294 1053 l 814 226 l 814 1053 l 949 1053 z "},"Ń":{"ha":1097,"x_min":149,"x_max":949,"o":"m 149 0 m 949 1053 l 949 0 l 801 0 l 283 826 l 283 0 l 149 0 l 149 1053 l 294 1053 l 814 226 l 814 1053 l 949 1053 m 639 1374 l 793 1374 l 625 1161 l 493 1161 l 639 1374 z "},"Ň":{"ha":1097,"x_min":-69,"x_max":949,"o":"m 0 0 m 949 1053 l 949 0 l 801 0 l 283 826 l 283 0 l 149 0 l 149 1053 l 294 1053 l 814 226 l 814 1053 l 949 1053 m 0 1360 l 131 1360 l 43 1079 l -69 1079 l 0 1360 z "},"Ņ":{"ha":1097,"x_min":149,"x_max":949,"o":"m 149 0 m 949 1053 l 949 0 l 801 0 l 283 826 l 283 0 l 149 0 l 149 1053 l 294 1053 l 814 226 l 814 1053 l 949 1053 m 436 -111 l 575 -111 l 518 -342 l 392 -342 l 436 -111 z "},"Ŋ":{"ha":1076,"x_min":149,"x_max":949,"o":"m 949 1053 l 949 -10 q 931 -170 949 -115 q 869 -247 913 -225 q 742 -269 826 -269 q 663 -262 696 -269 l 663 -143 q 729 -149 690 -149 q 781 -137 764 -149 q 806 -94 799 -125 q 814 -1 814 -62 l 814 4 l 283 828 l 283 0 l 149 0 l 149 1053 l 294 1053 l 814 240 l 814 1053 l 949 1053 z "},"Ñ":{"ha":1097,"x_min":149,"x_max":949,"o":"m 149 0 m 949 1053 l 949 0 l 801 0 l 283 826 l 283 0 l 149 0 l 149 1053 l 294 1053 l 814 226 l 814 1053 l 949 1053 m 343 1185 q 377 1306 344 1269 q 461 1342 410 1342 q 542 1321 497 1342 l 593 1297 q 640 1283 625 1283 q 678 1342 678 1283 l 781 1342 q 663 1185 776 1185 q 582 1206 621 1185 l 531 1229 q 505 1239 517 1235 q 483 1243 493 1243 q 446 1185 446 1243 l 343 1185 z "},"O":{"ha":1161,"x_min":78,"x_max":1082,"o":"m 581 -24 q 305 48 418 -24 q 135 244 192 119 q 78 525 78 368 q 135 803 78 679 q 305 999 192 926 q 581 1072 418 1072 q 854 999 742 1072 q 1024 802 967 926 q 1082 525 1082 678 q 1025 244 1082 368 q 855 48 968 119 q 581 -24 742 -24 m 581 94 q 776 151 694 94 q 901 307 858 208 q 943 529 943 406 q 900 745 943 649 q 775 898 857 842 q 581 954 693 954 q 382 897 464 954 q 258 743 300 840 q 217 525 217 646 q 258 304 217 401 q 382 151 300 207 q 581 94 464 94 z "},"Ó":{"ha":1161,"x_min":78,"x_max":1082,"o":"m 78 0 m 581 -24 q 305 48 418 -24 q 135 244 192 119 q 78 525 78 368 q 135 803 78 679 q 305 999 192 926 q 581 1072 418 1072 q 854 999 742 1072 q 1024 802 967 926 q 1082 525 1082 678 q 1025 244 1082 368 q 855 48 968 119 q 581 -24 742 -24 m 581 94 q 776 151 694 94 q 901 307 858 208 q 943 529 943 406 q 900 745 943 649 q 775 898 857 842 q 581 954 693 954 q 382 897 464 954 q 258 743 300 840 q 217 525 217 646 q 258 304 217 401 q 382 151 300 207 q 581 94 464 94 m 657 1374 l 811 1374 l 643 1161 l 511 1161 l 657 1374 z "},"Ô":{"ha":1161,"x_min":78,"x_max":1082,"o":"m 78 0 m 581 -24 q 305 48 418 -24 q 135 244 192 119 q 78 525 78 368 q 135 803 78 679 q 305 999 192 926 q 581 1072 418 1072 q 854 999 742 1072 q 1024 802 967 926 q 1082 525 1082 678 q 1025 244 1082 368 q 855 48 968 119 q 581 -24 742 -24 m 581 94 q 776 151 694 94 q 901 307 858 208 q 943 529 943 406 q 900 745 943 649 q 775 898 857 842 q 581 954 693 954 q 382 897 464 954 q 258 743 300 840 q 217 525 217 646 q 258 304 217 401 q 382 151 300 207 q 581 94 464 94 m 674 1161 l 581 1313 l 486 1161 l 346 1161 l 500 1374 l 660 1374 l 814 1161 l 674 1161 z "},"Ö":{"ha":1161,"x_min":78,"x_max":1082,"o":"m 78 0 m 581 -24 q 305 48 418 -24 q 135 244 192 119 q 78 525 78 368 q 135 803 78 679 q 305 999 192 926 q 581 1072 418 1072 q 854 999 742 1072 q 1024 802 967 926 q 1082 525 1082 678 q 1025 244 1082 368 q 855 48 968 119 q 581 -24 742 -24 m 581 94 q 776 151 694 94 q 901 307 858 208 q 943 529 943 406 q 900 745 943 649 q 775 898 857 842 q 581 954 693 954 q 382 897 464 954 q 258 743 300 840 q 217 525 217 646 q 258 304 217 401 q 382 151 300 207 q 581 94 464 94 m 663 1353 l 783 1353 l 783 1181 l 663 1181 l 663 1353 m 379 1353 l 501 1353 l 501 1181 l 379 1181 l 379 1353 z "},"Ò":{"ha":1161,"x_min":78,"x_max":1082,"o":"m 78 0 m 581 -24 q 305 48 418 -24 q 135 244 192 119 q 78 525 78 368 q 135 803 78 679 q 305 999 192 926 q 581 1072 418 1072 q 854 999 742 1072 q 1024 802 967 926 q 1082 525 1082 678 q 1025 244 1082 368 q 855 48 968 119 q 581 -24 742 -24 m 581 94 q 776 151 694 94 q 901 307 858 208 q 943 529 943 406 q 900 745 943 649 q 775 898 857 842 q 581 954 693 954 q 382 897 464 954 q 258 743 300 840 q 217 525 217 646 q 258 304 217 401 q 382 151 300 207 q 581 94 464 94 m 364 1374 l 518 1374 l 664 1161 l 532 1161 l 364 1374 z "},"Ő":{"ha":1161,"x_min":78,"x_max":1082,"o":"m 78 0 m 581 -24 q 305 48 418 -24 q 135 244 192 119 q 78 525 78 368 q 135 803 78 679 q 305 999 192 926 q 581 1072 418 1072 q 854 999 742 1072 q 1024 802 967 926 q 1082 525 1082 678 q 1025 244 1082 368 q 855 48 968 119 q 581 -24 742 -24 m 581 94 q 776 151 694 94 q 901 307 858 208 q 943 529 943 406 q 900 745 943 649 q 775 898 857 842 q 581 954 693 954 q 382 897 464 954 q 258 743 300 840 q 217 525 217 646 q 258 304 217 401 q 382 151 300 207 q 581 94 464 94 m 790 1374 l 935 1374 l 767 1161 l 644 1161 l 790 1374 m 528 1374 l 674 1374 l 506 1161 l 383 1161 l 528 1374 z "},"Ō":{"ha":1161,"x_min":78,"x_max":1082,"o":"m 78 0 m 581 -24 q 305 48 418 -24 q 135 244 192 119 q 78 525 78 368 q 135 803 78 679 q 305 999 192 926 q 581 1072 418 1072 q 854 999 742 1072 q 1024 802 967 926 q 1082 525 1082 678 q 1025 244 1082 368 q 855 48 968 119 q 581 -24 742 -24 m 581 94 q 776 151 694 94 q 901 307 858 208 q 943 529 943 406 q 900 745 943 649 q 775 898 857 842 q 581 954 693 954 q 382 897 464 954 q 258 743 300 840 q 217 525 217 646 q 258 304 217 401 q 382 151 300 207 q 581 94 464 94 m 365 1315 l 794 1315 l 794 1221 l 365 1221 l 365 1315 z "},"Ø":{"ha":1161,"x_min":44,"x_max":1118,"o":"m 994 858 q 1082 525 1082 719 q 1025 244 1082 368 q 855 48 968 119 q 581 -24 742 -24 q 235 103 368 -24 l 125 -7 l 44 71 l 164 190 q 99 344 121 258 q 78 525 78 429 q 135 803 78 679 q 305 999 192 926 q 581 1072 418 1072 q 774 1040 688 1072 q 924 946 861 1007 l 1039 1058 l 1118 981 l 994 858 m 217 525 q 265 290 217 392 l 829 851 q 720 927 783 900 q 581 954 657 954 q 382 897 464 954 q 258 743 300 840 q 217 525 217 646 m 943 535 q 894 758 943 658 l 329 196 q 581 94 424 94 q 777 152 696 94 q 901 310 858 210 q 943 535 943 410 z "},"Õ":{"ha":1161,"x_min":78,"x_max":1082,"o":"m 78 0 m 581 -24 q 305 48 418 -24 q 135 244 192 119 q 78 525 78 368 q 135 803 78 679 q 305 999 192 926 q 581 1072 418 1072 q 854 999 742 1072 q 1024 802 967 926 q 1082 525 1082 678 q 1025 244 1082 368 q 855 48 968 119 q 581 -24 742 -24 m 581 94 q 776 151 694 94 q 901 307 858 208 q 943 529 943 406 q 900 745 943 649 q 775 898 857 842 q 581 954 693 954 q 382 897 464 954 q 258 743 300 840 q 217 525 217 646 q 258 304 217 401 q 382 151 300 207 q 581 94 464 94 m 361 1185 q 395 1306 363 1269 q 479 1342 428 1342 q 560 1321 515 1342 l 611 1297 q 658 1283 643 1283 q 696 1342 696 1283 l 799 1342 q 681 1185 794 1185 q 600 1206 639 1185 l 549 1229 q 523 1239 535 1235 q 501 1243 511 1243 q 464 1185 464 1243 l 361 1185 z "},"Œ":{"ha":1551,"x_min":83,"x_max":1468,"o":"m 1468 117 l 1468 0 l 607 0 q 215 134 347 0 q 83 528 83 268 q 215 921 83 789 q 607 1053 346 1053 l 1461 1053 l 1461 936 l 958 936 l 958 588 l 1392 588 l 1392 471 l 958 471 l 958 117 l 1468 117 m 824 118 l 824 935 l 607 935 q 317 836 414 935 q 221 524 221 738 q 318 217 221 315 q 607 118 415 118 l 824 118 z "},"P":{"ha":917,"x_min":149,"x_max":861,"o":"m 517 1053 q 861 739 861 1053 q 775 506 861 586 q 517 426 689 426 l 283 426 l 283 0 l 149 0 l 149 1053 l 517 1053 m 724 739 q 672 888 724 842 q 517 935 621 935 l 283 935 l 283 546 l 517 546 q 724 739 722 546 z "},"Þ":{"ha":892,"x_min":149,"x_max":861,"o":"m 517 847 q 861 533 861 847 q 775 301 861 381 q 517 221 689 221 l 283 221 l 283 0 l 149 0 l 149 1053 l 283 1053 l 283 847 l 517 847 m 724 533 q 672 683 724 636 q 517 729 621 729 l 283 729 l 283 340 l 517 340 q 724 533 722 340 z "},"Q":{"ha":1161,"x_min":78,"x_max":1082,"o":"m 1082 525 q 1039 276 1082 389 q 911 89 996 163 l 1068 -89 l 904 -89 l 808 24 q 581 -24 710 -24 q 305 48 418 -24 q 135 244 192 119 q 78 525 78 368 q 135 803 78 679 q 305 999 192 926 q 581 1072 418 1072 q 854 999 742 1072 q 1024 802 967 926 q 1082 525 1082 678 m 217 525 q 258 304 217 401 q 382 151 300 207 q 581 94 464 94 q 724 122 660 94 l 544 329 l 703 329 l 822 190 q 912 336 881 249 q 943 529 943 424 q 900 745 943 649 q 775 898 857 842 q 581 954 693 954 q 382 897 464 954 q 258 743 300 840 q 217 525 217 646 z "},"R":{"ha":981,"x_min":149,"x_max":913,"o":"m 488 446 l 283 446 l 283 0 l 149 0 l 149 1053 l 517 1053 q 861 747 861 1053 q 803 552 861 626 q 631 456 746 478 l 913 0 l 758 0 l 488 446 m 283 564 l 517 564 q 724 747 722 564 q 672 890 724 844 q 517 935 621 935 l 283 935 l 283 564 z "},"Ŕ":{"ha":981,"x_min":149,"x_max":913,"o":"m 149 0 m 488 446 l 283 446 l 283 0 l 149 0 l 149 1053 l 517 1053 q 861 747 861 1053 q 803 552 861 626 q 631 456 746 478 l 913 0 l 758 0 l 488 446 m 283 564 l 517 564 q 724 747 722 564 q 672 890 724 844 q 517 935 621 935 l 283 935 l 283 564 m 531 1374 l 685 1374 l 517 1161 l 385 1161 l 531 1374 z "},"Ř":{"ha":981,"x_min":149,"x_max":913,"o":"m 149 0 m 488 446 l 283 446 l 283 0 l 149 0 l 149 1053 l 517 1053 q 861 747 861 1053 q 803 552 861 626 q 631 456 746 478 l 913 0 l 758 0 l 488 446 m 283 564 l 517 564 q 724 747 722 564 q 672 890 724 844 q 517 935 621 935 l 283 935 l 283 564 m 689 1374 l 535 1161 l 375 1161 l 221 1374 l 361 1374 l 456 1222 l 549 1374 l 689 1374 z "},"Ŗ":{"ha":981,"x_min":149,"x_max":913,"o":"m 149 0 m 488 446 l 283 446 l 283 0 l 149 0 l 149 1053 l 517 1053 q 861 747 861 1053 q 803 552 861 626 q 631 456 746 478 l 913 0 l 758 0 l 488 446 m 283 564 l 517 564 q 724 747 722 564 q 672 890 724 844 q 517 935 621 935 l 283 935 l 283 564 m 408 -111 l 547 -111 l 490 -342 l 364 -342 l 408 -111 z "},"S":{"ha":893,"x_min":88,"x_max":806,"o":"m 447 -24 q 88 51 246 -24 l 88 179 q 447 94 247 94 q 616 143 563 94 q 669 271 669 192 q 620 383 669 346 q 475 449 571 421 l 381 475 q 243 529 300 499 q 148 617 186 560 q 110 768 110 675 q 197 994 110 917 q 443 1072 283 1072 q 607 1055 536 1072 q 754 1003 678 1038 l 754 878 q 443 954 613 954 q 293 906 340 954 q 246 775 246 858 q 292 663 247 699 q 433 599 338 626 l 529 572 q 673 517 614 549 q 769 427 732 486 q 806 274 806 368 q 709 56 804 136 q 447 -24 614 -24 z "},"Ś":{"ha":893,"x_min":88,"x_max":806,"o":"m 88 0 m 447 -24 q 88 51 246 -24 l 88 179 q 447 94 247 94 q 616 143 563 94 q 669 271 669 192 q 620 383 669 346 q 475 449 571 421 l 381 475 q 243 529 300 499 q 148 617 186 560 q 110 768 110 675 q 197 994 110 917 q 443 1072 283 1072 q 607 1055 536 1072 q 754 1003 678 1038 l 754 878 q 443 954 613 954 q 293 906 340 954 q 246 775 246 858 q 292 663 247 699 q 433 599 338 626 l 529 572 q 673 517 614 549 q 769 427 732 486 q 806 274 806 368 q 709 56 804 136 q 447 -24 614 -24 m 529 1374 l 683 1374 l 515 1161 l 383 1161 l 529 1374 z "},"Š":{"ha":893,"x_min":88,"x_max":806,"o":"m 88 0 m 447 -24 q 88 51 246 -24 l 88 179 q 447 94 247 94 q 616 143 563 94 q 669 271 669 192 q 620 383 669 346 q 475 449 571 421 l 381 475 q 243 529 300 499 q 148 617 186 560 q 110 768 110 675 q 197 994 110 917 q 443 1072 283 1072 q 607 1055 536 1072 q 754 1003 678 1038 l 754 878 q 443 954 613 954 q 293 906 340 954 q 246 775 246 858 q 292 663 247 699 q 433 599 338 626 l 529 572 q 673 517 614 549 q 769 427 732 486 q 806 274 806 368 q 709 56 804 136 q 447 -24 614 -24 m 688 1374 l 533 1161 l 374 1161 l 219 1374 l 360 1374 l 454 1222 l 547 1374 l 688 1374 z "},"Ş":{"ha":893,"x_min":88,"x_max":806,"o":"m 806 274 q 721 67 804 144 q 489 -22 638 -11 l 468 -87 l 481 -87 q 593 -124 554 -87 q 632 -221 632 -161 q 586 -326 632 -286 q 453 -365 540 -365 q 315 -337 376 -365 l 315 -249 q 443 -278 379 -278 q 507 -262 486 -278 q 528 -222 528 -246 q 453 -171 528 -171 q 340 -192 408 -171 l 390 -22 q 88 51 224 -14 l 88 179 q 447 94 247 94 q 616 143 563 94 q 669 271 669 192 q 620 383 669 346 q 475 449 571 421 l 381 475 q 243 529 300 499 q 148 617 186 560 q 110 768 110 675 q 197 994 110 917 q 443 1072 283 1072 q 607 1055 536 1072 q 754 1003 678 1038 l 754 878 q 443 954 613 954 q 293 906 340 954 q 246 775 246 858 q 292 663 247 699 q 433 599 338 626 l 529 572 q 673 517 614 549 q 769 427 732 486 q 806 274 806 368 z "},"Ș":{"ha":893,"x_min":88,"x_max":806,"o":"m 88 0 m 447 -24 q 88 51 246 -24 l 88 179 q 447 94 247 94 q 616 143 563 94 q 669 271 669 192 q 620 383 669 346 q 475 449 571 421 l 381 475 q 243 529 300 499 q 148 617 186 560 q 110 768 110 675 q 197 994 110 917 q 443 1072 283 1072 q 607 1055 536 1072 q 754 1003 678 1038 l 754 878 q 443 954 613 954 q 293 906 340 954 q 246 775 246 858 q 292 663 247 699 q 433 599 338 626 l 529 572 q 673 517 614 549 q 769 427 732 486 q 806 274 806 368 q 709 56 804 136 q 447 -24 614 -24 m 372 -111 l 511 -111 l 454 -342 l 328 -342 l 372 -111 z "},"T":{"ha":881,"x_min":56,"x_max":825,"o":"m 825 932 l 508 932 l 508 0 l 372 0 l 372 932 l 56 932 l 56 1053 l 825 1053 l 825 932 z "},"Ŧ":{"ha":853,"x_min":51,"x_max":821,"o":"m 503 932 l 503 713 l 732 713 l 732 593 l 503 593 l 503 0 l 368 0 l 368 593 l 139 593 l 139 713 l 368 713 l 368 932 l 51 932 l 51 1053 l 821 1053 l 821 932 l 503 932 z "},"Ť":{"ha":881,"x_min":56,"x_max":825,"o":"m 56 0 m 825 932 l 508 932 l 508 0 l 372 0 l 372 932 l 56 932 l 56 1053 l 825 1053 l 825 932 m 674 1374 l 519 1161 l 360 1161 l 206 1374 l 346 1374 l 440 1222 l 533 1374 l 674 1374 z "},"Ţ":{"ha":881,"x_min":56,"x_max":825,"o":"m 489 0 l 461 -87 l 474 -87 q 586 -124 547 -87 q 625 -221 625 -161 q 579 -326 625 -286 q 446 -365 533 -365 q 308 -337 369 -365 l 308 -249 q 436 -278 372 -278 q 500 -262 479 -278 q 521 -222 521 -246 q 446 -171 521 -171 q 333 -192 401 -171 l 390 0 l 372 0 l 372 932 l 56 932 l 56 1053 l 825 1053 l 825 932 l 508 932 l 508 0 l 489 0 z "},"Ț":{"ha":881,"x_min":56,"x_max":825,"o":"m 56 0 m 825 932 l 508 932 l 508 0 l 372 0 l 372 932 l 56 932 l 56 1053 l 825 1053 l 825 932 m 365 -111 l 504 -111 l 447 -342 l 321 -342 l 365 -111 z "},"U":{"ha":1089,"x_min":143,"x_max":946,"o":"m 544 -24 q 243 78 343 -24 q 143 368 143 181 l 143 1053 l 279 1053 l 279 368 q 346 164 279 233 q 544 94 413 94 q 743 164 676 94 q 810 368 810 233 l 810 1053 l 946 1053 l 946 368 q 846 78 946 181 q 544 -24 746 -24 z "},"Ú":{"ha":1089,"x_min":143,"x_max":946,"o":"m 143 0 m 544 -24 q 243 78 343 -24 q 143 368 143 181 l 143 1053 l 279 1053 l 279 368 q 346 164 279 233 q 544 94 413 94 q 743 164 676 94 q 810 368 810 233 l 810 1053 l 946 1053 l 946 368 q 846 78 946 181 q 544 -24 746 -24 m 621 1374 l 775 1374 l 607 1161 l 475 1161 l 621 1374 z "},"Û":{"ha":1089,"x_min":143,"x_max":946,"o":"m 143 0 m 544 -24 q 243 78 343 -24 q 143 368 143 181 l 143 1053 l 279 1053 l 279 368 q 346 164 279 233 q 544 94 413 94 q 743 164 676 94 q 810 368 810 233 l 810 1053 l 946 1053 l 946 368 q 846 78 946 181 q 544 -24 746 -24 m 638 1161 l 544 1313 l 450 1161 l 310 1161 l 464 1374 l 624 1374 l 778 1161 l 638 1161 z "},"Ü":{"ha":1089,"x_min":143,"x_max":946,"o":"m 143 0 m 626 1353 l 747 1353 l 747 1181 l 626 1181 l 626 1353 m 343 1353 l 465 1353 l 465 1181 l 343 1181 l 343 1353 m 544 -24 q 243 78 343 -24 q 143 368 143 181 l 143 1053 l 279 1053 l 279 368 q 346 164 279 233 q 544 94 413 94 q 743 164 676 94 q 810 368 810 233 l 810 1053 l 946 1053 l 946 368 q 846 78 946 181 q 544 -24 746 -24 z "},"Ù":{"ha":1089,"x_min":143,"x_max":946,"o":"m 143 0 m 544 -24 q 243 78 343 -24 q 143 368 143 181 l 143 1053 l 279 1053 l 279 368 q 346 164 279 233 q 544 94 413 94 q 743 164 676 94 q 810 368 810 233 l 810 1053 l 946 1053 l 946 368 q 846 78 946 181 q 544 -24 746 -24 m 328 1374 l 482 1374 l 628 1161 l 496 1161 l 328 1374 z "},"Ű":{"ha":1089,"x_min":143,"x_max":946,"o":"m 143 0 m 544 -24 q 243 78 343 -24 q 143 368 143 181 l 143 1053 l 279 1053 l 279 368 q 346 164 279 233 q 544 94 413 94 q 743 164 676 94 q 810 368 810 233 l 810 1053 l 946 1053 l 946 368 q 846 78 946 181 q 544 -24 746 -24 m 754 1374 l 899 1374 l 731 1161 l 608 1161 l 754 1374 m 492 1374 l 638 1374 l 469 1161 l 347 1161 l 492 1374 z "},"Ū":{"ha":1089,"x_min":143,"x_max":946,"o":"m 143 0 m 544 -24 q 243 78 343 -24 q 143 368 143 181 l 143 1053 l 279 1053 l 279 368 q 346 164 279 233 q 544 94 413 94 q 743 164 676 94 q 810 368 810 233 l 810 1053 l 946 1053 l 946 368 q 846 78 946 181 q 544 -24 746 -24 m 329 1315 l 758 1315 l 758 1221 l 329 1221 l 329 1315 z "},"Ų":{"ha":1089,"x_min":143,"x_max":946,"o":"m 946 1053 l 946 368 q 872 108 946 207 q 649 -15 799 10 q 560 -104 590 -64 q 529 -186 529 -144 q 546 -226 529 -211 q 596 -240 563 -240 q 668 -224 633 -240 l 668 -311 q 582 -328 629 -328 q 463 -294 503 -328 q 422 -204 422 -261 q 522 -24 422 -111 q 238 84 332 -18 q 143 368 143 186 l 143 1053 l 279 1053 l 279 368 q 346 164 279 233 q 544 94 413 94 q 743 164 676 94 q 810 368 810 233 l 810 1053 l 946 1053 z "},"Ů":{"ha":1089,"x_min":143,"x_max":946,"o":"m 143 0 m 544 -24 q 243 78 343 -24 q 143 368 143 181 l 143 1053 l 279 1053 l 279 368 q 346 164 279 233 q 544 94 413 94 q 743 164 676 94 q 810 368 810 233 l 810 1053 l 946 1053 l 946 368 q 846 78 946 181 q 544 -24 746 -24 m 544 1139 q 440 1175 479 1139 q 401 1267 401 1211 q 440 1358 401 1322 q 544 1393 478 1393 q 648 1358 610 1393 q 686 1267 686 1322 q 648 1175 686 1211 q 544 1139 610 1139 m 544 1206 q 589 1222 572 1206 q 606 1267 606 1239 q 589 1311 606 1294 q 544 1328 572 1328 q 499 1311 517 1328 q 482 1267 482 1294 q 499 1222 482 1239 q 544 1206 517 1206 z "},"V":{"ha":1036,"x_min":46,"x_max":989,"o":"m 989 1053 l 593 -12 l 443 -12 l 46 1053 l 188 1053 l 518 156 l 849 1053 l 989 1053 z "},"W":{"ha":1525,"x_min":56,"x_max":1469,"o":"m 1469 1053 l 1167 -12 l 1017 -12 l 763 853 l 510 -12 l 360 -12 l 56 1053 l 192 1053 l 436 169 l 686 1053 l 839 1053 l 1090 168 l 1333 1053 l 1469 1053 z "},"Ẃ":{"ha":1525,"x_min":56,"x_max":1469,"o":"m 56 0 m 1469 1053 l 1167 -12 l 1017 -12 l 763 853 l 510 -12 l 360 -12 l 56 1053 l 192 1053 l 436 169 l 686 1053 l 839 1053 l 1090 168 l 1333 1053 l 1469 1053 m 839 1374 l 993 1374 l 825 1161 l 693 1161 l 839 1374 z "},"Ŵ":{"ha":1525,"x_min":56,"x_max":1469,"o":"m 56 0 m 1469 1053 l 1167 -12 l 1017 -12 l 763 853 l 510 -12 l 360 -12 l 56 1053 l 192 1053 l 436 169 l 686 1053 l 839 1053 l 1090 168 l 1333 1053 l 1469 1053 m 856 1161 l 763 1313 l 668 1161 l 528 1161 l 682 1374 l 842 1374 l 996 1161 l 856 1161 z "},"Ẅ":{"ha":1525,"x_min":56,"x_max":1469,"o":"m 56 0 m 1469 1053 l 1167 -12 l 1017 -12 l 763 853 l 510 -12 l 360 -12 l 56 1053 l 192 1053 l 436 169 l 686 1053 l 839 1053 l 1090 168 l 1333 1053 l 1469 1053 m 844 1353 l 965 1353 l 965 1181 l 844 1181 l 844 1353 m 561 1353 l 683 1353 l 683 1181 l 561 1181 l 561 1353 z "},"Ẁ":{"ha":1525,"x_min":56,"x_max":1469,"o":"m 56 0 m 1469 1053 l 1167 -12 l 1017 -12 l 763 853 l 510 -12 l 360 -12 l 56 1053 l 192 1053 l 436 169 l 686 1053 l 839 1053 l 1090 168 l 1333 1053 l 1469 1053 m 546 1374 l 700 1374 l 846 1161 l 714 1161 l 546 1374 z "},"X":{"ha":1029,"x_min":60,"x_max":974,"o":"m 815 0 l 517 444 l 218 0 l 60 0 l 435 542 l 85 1053 l 242 1053 l 518 643 l 793 1053 l 950 1053 l 600 542 l 974 0 l 815 0 z "},"Y":{"ha":990,"x_min":42,"x_max":949,"o":"m 561 407 l 561 0 l 428 0 l 428 407 l 42 1053 l 181 1053 l 494 521 l 810 1053 l 949 1053 l 561 407 z "},"Ý":{"ha":990,"x_min":42,"x_max":949,"o":"m 42 0 m 561 407 l 561 0 l 428 0 l 428 407 l 42 1053 l 181 1053 l 494 521 l 810 1053 l 949 1053 l 561 407 m 571 1374 l 725 1374 l 557 1161 l 425 1161 l 571 1374 z "},"Ŷ":{"ha":990,"x_min":42,"x_max":949,"o":"m 42 0 m 561 407 l 561 0 l 428 0 l 428 407 l 42 1053 l 181 1053 l 494 521 l 810 1053 l 949 1053 l 561 407 m 588 1161 l 494 1313 l 400 1161 l 260 1161 l 414 1374 l 574 1374 l 728 1161 l 588 1161 z "},"Ÿ":{"ha":990,"x_min":42,"x_max":949,"o":"m 42 0 m 561 407 l 561 0 l 428 0 l 428 407 l 42 1053 l 181 1053 l 494 521 l 810 1053 l 949 1053 l 561 407 m 576 1353 l 697 1353 l 697 1181 l 576 1181 l 576 1353 m 293 1353 l 415 1353 l 415 1181 l 293 1181 l 293 1353 z "},"Ỳ":{"ha":990,"x_min":42,"x_max":949,"o":"m 42 0 m 561 407 l 561 0 l 428 0 l 428 407 l 42 1053 l 181 1053 l 494 521 l 810 1053 l 949 1053 l 561 407 m 278 1374 l 432 1374 l 578 1161 l 446 1161 l 278 1374 z "},"Z":{"ha":997,"x_min":111,"x_max":896,"o":"m 896 121 l 896 0 l 111 0 l 111 118 l 685 932 l 129 932 l 129 1053 l 850 1053 l 850 935 l 276 121 l 896 121 z "},"Ź":{"ha":997,"x_min":111,"x_max":896,"o":"m 111 0 m 896 121 l 896 0 l 111 0 l 111 118 l 685 932 l 129 932 l 129 1053 l 850 1053 l 850 935 l 276 121 l 896 121 m 571 1374 l 725 1374 l 557 1161 l 425 1161 l 571 1374 z "},"Ž":{"ha":997,"x_min":111,"x_max":896,"o":"m 111 0 m 896 121 l 896 0 l 111 0 l 111 118 l 685 932 l 129 932 l 129 1053 l 850 1053 l 850 935 l 276 121 l 896 121 m 728 1374 l 574 1161 l 414 1161 l 260 1374 l 400 1374 l 494 1222 l 588 1374 l 728 1374 z "},"Ż":{"ha":997,"x_min":111,"x_max":896,"o":"m 111 0 m 896 121 l 896 0 l 111 0 l 111 118 l 685 932 l 129 932 l 129 1053 l 850 1053 l 850 935 l 276 121 l 896 121 m 431 1353 l 561 1353 l 561 1181 l 431 1181 l 431 1353 z "},"a":{"ha":743,"x_min":46,"x_max":653,"o":"m 361 768 q 547 727 483 768 q 632 617 611 686 q 653 444 653 549 l 653 0 l 522 0 l 522 76 q 417 4 469 26 q 303 -18 364 -18 q 172 13 231 -18 q 80 103 114 44 q 46 243 46 163 q 124 437 46 368 q 333 506 201 506 q 521 460 438 506 q 507 568 519 528 q 456 630 494 608 q 340 651 417 651 l 238 651 l 238 768 l 361 768 m 321 94 q 420 117 368 94 q 522 183 472 139 l 522 358 q 353 397 444 397 q 229 362 279 397 q 179 243 179 326 q 222 130 179 165 q 321 94 264 94 z "},"á":{"ha":743,"x_min":46,"x_max":653,"o":"m 46 0 m 361 768 q 547 727 483 768 q 632 617 611 686 q 653 444 653 549 l 653 0 l 522 0 l 522 76 q 417 4 469 26 q 303 -18 364 -18 q 172 13 231 -18 q 80 103 114 44 q 46 243 46 163 q 124 437 46 368 q 333 506 201 506 q 521 460 438 506 q 507 568 519 528 q 456 630 494 608 q 340 651 417 651 l 238 651 l 238 768 l 361 768 m 321 94 q 420 117 368 94 q 522 183 472 139 l 522 358 q 353 397 444 397 q 229 362 279 397 q 179 243 179 326 q 222 130 179 165 q 321 94 264 94 m 456 1124 l 610 1124 l 442 911 l 310 911 l 456 1124 z "},"ă":{"ha":743,"x_min":46,"x_max":653,"o":"m 46 0 m 361 768 q 547 727 483 768 q 632 617 611 686 q 653 444 653 549 l 653 0 l 522 0 l 522 76 q 417 4 469 26 q 303 -18 364 -18 q 172 13 231 -18 q 80 103 114 44 q 46 243 46 163 q 124 437 46 368 q 333 506 201 506 q 521 460 438 506 q 507 568 519 528 q 456 630 494 608 q 340 651 417 651 l 238 651 l 238 768 l 361 768 m 321 94 q 420 117 368 94 q 522 183 472 139 l 522 358 q 353 397 444 397 q 229 362 279 397 q 179 243 179 326 q 222 130 179 165 q 321 94 264 94 m 383 910 q 224 959 283 910 q 165 1106 165 1008 l 165 1121 l 272 1121 l 272 1107 q 299 1025 272 1051 q 383 999 325 999 q 468 1025 442 999 q 494 1107 494 1051 l 494 1121 l 600 1121 l 600 1106 q 544 959 603 1008 q 383 910 486 910 z "},"â":{"ha":743,"x_min":46,"x_max":653,"o":"m 46 0 m 361 768 q 547 727 483 768 q 632 617 611 686 q 653 444 653 549 l 653 0 l 522 0 l 522 76 q 417 4 469 26 q 303 -18 364 -18 q 172 13 231 -18 q 80 103 114 44 q 46 243 46 163 q 124 437 46 368 q 333 506 201 506 q 521 460 438 506 q 507 568 519 528 q 456 630 494 608 q 340 651 417 651 l 238 651 l 238 768 l 361 768 m 321 94 q 420 117 368 94 q 522 183 472 139 l 522 358 q 353 397 444 397 q 229 362 279 397 q 179 243 179 326 q 222 130 179 165 q 321 94 264 94 m 474 911 l 381 1063 l 286 911 l 146 911 l 300 1124 l 460 1124 l 614 911 l 474 911 z "},"ä":{"ha":743,"x_min":46,"x_max":653,"o":"m 46 0 m 361 768 q 547 727 483 768 q 632 617 611 686 q 653 444 653 549 l 653 0 l 522 0 l 522 76 q 417 4 469 26 q 303 -18 364 -18 q 172 13 231 -18 q 80 103 114 44 q 46 243 46 163 q 124 437 46 368 q 333 506 201 506 q 521 460 438 506 q 507 568 519 528 q 456 630 494 608 q 340 651 417 651 l 238 651 l 238 768 l 361 768 m 321 94 q 420 117 368 94 q 522 183 472 139 l 522 358 q 353 397 444 397 q 229 362 279 397 q 179 243 179 326 q 222 130 179 165 q 321 94 264 94 m 463 1103 l 583 1103 l 583 931 l 463 931 l 463 1103 m 179 1103 l 301 1103 l 301 931 l 179 931 l 179 1103 z "},"à":{"ha":743,"x_min":46,"x_max":653,"o":"m 46 0 m 361 768 q 547 727 483 768 q 632 617 611 686 q 653 444 653 549 l 653 0 l 522 0 l 522 76 q 417 4 469 26 q 303 -18 364 -18 q 172 13 231 -18 q 80 103 114 44 q 46 243 46 163 q 124 437 46 368 q 333 506 201 506 q 521 460 438 506 q 507 568 519 528 q 456 630 494 608 q 340 651 417 651 l 238 651 l 238 768 l 361 768 m 321 94 q 420 117 368 94 q 522 183 472 139 l 522 358 q 353 397 444 397 q 229 362 279 397 q 179 243 179 326 q 222 130 179 165 q 321 94 264 94 m 153 1124 l 308 1124 l 453 911 l 321 911 l 153 1124 z "},"ā":{"ha":743,"x_min":46,"x_max":653,"o":"m 46 0 m 361 768 q 547 727 483 768 q 632 617 611 686 q 653 444 653 549 l 653 0 l 522 0 l 522 76 q 417 4 469 26 q 303 -18 364 -18 q 172 13 231 -18 q 80 103 114 44 q 46 243 46 163 q 124 437 46 368 q 333 506 201 506 q 521 460 438 506 q 507 568 519 528 q 456 630 494 608 q 340 651 417 651 l 238 651 l 238 768 l 361 768 m 321 94 q 420 117 368 94 q 522 183 472 139 l 522 358 q 353 397 444 397 q 229 362 279 397 q 179 243 179 326 q 222 130 179 165 q 321 94 264 94 m 165 1065 l 594 1065 l 594 971 l 165 971 l 165 1065 z "},"ą":{"ha":743,"x_min":46,"x_max":653,"o":"m 361 768 q 547 727 483 768 q 632 617 611 686 q 653 444 653 549 l 653 0 q 551 -96 586 -51 q 515 -186 515 -140 q 531 -226 515 -211 q 579 -240 547 -240 q 653 -224 618 -240 l 653 -311 q 567 -328 614 -328 q 448 -294 488 -328 q 408 -204 408 -261 q 441 -100 408 -150 q 540 0 474 -50 l 522 0 l 522 76 q 417 4 469 26 q 303 -18 364 -18 q 172 13 231 -18 q 80 103 114 44 q 46 243 46 163 q 124 437 46 368 q 333 506 201 506 q 521 460 438 506 q 507 568 519 528 q 456 630 494 608 q 340 651 417 651 l 238 651 l 238 768 l 361 768 m 321 94 q 420 117 368 94 q 522 183 472 139 l 522 358 q 353 397 444 397 q 229 362 279 397 q 179 243 179 326 q 222 130 179 165 q 321 94 264 94 z "},"å":{"ha":743,"x_min":46,"x_max":653,"o":"m 46 0 m 361 768 q 547 727 483 768 q 632 617 611 686 q 653 444 653 549 l 653 0 l 522 0 l 522 76 q 417 4 469 26 q 303 -18 364 -18 q 172 13 231 -18 q 80 103 114 44 q 46 243 46 163 q 124 437 46 368 q 333 506 201 506 q 521 460 438 506 q 507 568 519 528 q 456 630 494 608 q 340 651 417 651 l 238 651 l 238 768 l 361 768 m 321 94 q 420 117 368 94 q 522 183 472 139 l 522 358 q 353 397 444 397 q 229 362 279 397 q 179 243 179 326 q 222 130 179 165 q 321 94 264 94 m 381 889 q 276 925 315 889 q 238 1017 238 961 q 276 1108 238 1072 q 381 1143 314 1143 q 484 1108 446 1143 q 522 1017 522 1072 q 484 925 522 961 q 381 889 446 889 m 381 956 q 425 972 408 956 q 442 1017 442 989 q 425 1061 442 1044 q 381 1078 408 1078 q 335 1061 353 1078 q 318 1017 318 1044 q 335 972 318 989 q 381 956 353 956 z "},"ã":{"ha":743,"x_min":46,"x_max":653,"o":"m 46 0 m 361 768 q 547 727 483 768 q 632 617 611 686 q 653 444 653 549 l 653 0 l 522 0 l 522 76 q 417 4 469 26 q 303 -18 364 -18 q 172 13 231 -18 q 80 103 114 44 q 46 243 46 163 q 124 437 46 368 q 333 506 201 506 q 521 460 438 506 q 507 568 519 528 q 456 630 494 608 q 340 651 417 651 l 238 651 l 238 768 l 361 768 m 321 94 q 420 117 368 94 q 522 183 472 139 l 522 358 q 353 397 444 397 q 229 362 279 397 q 179 243 179 326 q 222 130 179 165 q 321 94 264 94 m 161 935 q 195 1056 163 1019 q 279 1092 228 1092 q 360 1071 315 1092 l 411 1047 q 458 1033 443 1033 q 496 1092 496 1033 l 599 1092 q 481 935 594 935 q 400 956 439 935 l 349 979 q 323 989 335 985 q 301 993 311 993 q 264 935 264 993 l 161 935 z "},"æ":{"ha":1256,"x_min":46,"x_max":1194,"o":"m 657 374 q 721 171 660 247 q 915 93 782 94 q 1138 150 1017 93 l 1178 42 q 904 -24 1051 -24 q 724 13 801 -24 q 597 117 646 49 q 454 14 525 46 q 303 -18 383 -18 q 172 13 231 -18 q 80 103 114 44 q 46 243 46 163 q 124 437 46 368 q 333 506 201 506 q 521 460 438 506 q 507 568 519 528 q 456 630 494 608 q 340 651 417 651 l 238 651 l 238 768 l 361 768 q 519 738 461 768 q 604 649 576 707 q 721 754 650 718 q 876 790 792 790 q 1109 696 1024 790 q 1194 425 1194 601 l 1194 374 l 657 374 m 871 674 q 665 483 699 674 l 1057 483 q 1004 627 1050 581 q 871 674 958 674 m 321 94 q 433 123 375 94 q 549 208 492 151 q 522 358 524 279 q 353 397 444 397 q 229 362 279 397 q 179 243 179 326 q 222 130 179 165 q 321 94 264 94 z "},"b":{"ha":897,"x_min":125,"x_max":818,"o":"m 478 790 q 726 686 633 790 q 818 383 818 582 q 726 81 818 185 q 478 -24 633 -24 q 256 69 365 -24 l 256 0 l 125 0 l 125 1175 l 256 1175 l 256 696 q 478 790 367 790 m 460 97 q 626 170 569 97 q 683 383 683 243 q 626 596 683 524 q 460 668 569 668 q 256 582 356 668 l 256 183 q 460 97 358 97 z "},"c":{"ha":758,"x_min":78,"x_max":714,"o":"m 450 -24 q 174 88 271 -22 q 78 385 78 197 q 174 681 78 572 q 450 790 271 789 q 558 781 513 790 q 654 751 603 772 l 654 625 q 559 658 604 649 q 460 668 514 668 q 272 591 331 667 q 214 386 214 515 q 272 176 214 254 q 457 97 331 99 q 672 157 556 97 l 714 43 q 450 -24 588 -24 z "},"ć":{"ha":758,"x_min":78,"x_max":714,"o":"m 78 0 m 450 -24 q 174 88 271 -22 q 78 385 78 197 q 174 681 78 572 q 450 790 271 789 q 558 781 513 790 q 654 751 603 772 l 654 625 q 559 658 604 649 q 460 668 514 668 q 272 591 331 667 q 214 386 214 515 q 272 176 214 254 q 457 97 331 99 q 672 157 556 97 l 714 43 q 450 -24 588 -24 m 501 1124 l 656 1124 l 488 911 l 356 911 l 501 1124 z "},"č":{"ha":758,"x_min":78,"x_max":714,"o":"m 78 0 m 450 -24 q 174 88 271 -22 q 78 385 78 197 q 174 681 78 572 q 450 790 271 789 q 558 781 513 790 q 654 751 603 772 l 654 625 q 559 658 604 649 q 460 668 514 668 q 272 591 331 667 q 214 386 214 515 q 272 176 214 254 q 457 97 331 99 q 672 157 556 97 l 714 43 q 450 -24 588 -24 m 660 1124 l 506 911 l 346 911 l 192 1124 l 332 1124 l 426 972 l 519 1124 l 660 1124 z "},"ç":{"ha":758,"x_min":78,"x_max":714,"o":"m 467 -87 q 578 -124 539 -87 q 617 -221 617 -161 q 571 -326 617 -286 q 439 -365 525 -365 q 301 -337 363 -365 l 301 -249 q 429 -278 365 -278 q 493 -262 472 -278 q 514 -222 514 -246 q 439 -171 514 -171 q 325 -192 393 -171 l 378 -18 q 155 111 232 4 q 78 385 78 218 q 174 681 78 572 q 450 790 271 789 q 558 781 513 790 q 654 751 603 772 l 654 625 q 559 658 604 649 q 460 668 514 668 q 272 591 331 667 q 214 386 214 515 q 272 176 214 254 q 457 97 331 99 q 672 157 556 97 l 714 43 q 474 -24 597 -18 l 454 -87 l 467 -87 z "},"ċ":{"ha":758,"x_min":78,"x_max":714,"o":"m 78 0 m 450 -24 q 174 88 271 -22 q 78 385 78 197 q 174 681 78 572 q 450 790 271 789 q 558 781 513 790 q 654 751 603 772 l 654 625 q 559 658 604 649 q 460 668 514 668 q 272 591 331 667 q 214 386 214 515 q 272 176 214 254 q 457 97 331 99 q 672 157 556 97 l 714 43 q 450 -24 588 -24 m 364 1103 l 494 1103 l 494 931 l 364 931 l 364 1103 z "},"d":{"ha":897,"x_min":78,"x_max":772,"o":"m 772 1175 l 772 0 l 642 0 l 642 69 q 419 -24 532 -24 q 171 81 264 -24 q 78 383 78 185 q 171 686 78 582 q 419 790 264 790 q 642 696 531 790 l 642 1175 l 772 1175 m 436 97 q 642 183 536 97 l 642 582 q 436 668 539 668 q 270 596 326 668 q 214 383 214 524 q 270 170 214 243 q 436 97 326 97 z "},"ð":{"ha":883,"x_min":78,"x_max":804,"o":"m 557 1067 q 740 783 675 947 q 804 440 804 619 q 710 103 804 229 q 442 -24 617 -24 q 175 79 272 -24 q 78 379 78 182 q 174 687 78 589 q 419 785 271 785 q 626 706 522 785 q 457 982 569 867 l 342 885 l 278 947 l 389 1044 q 296 1106 340 1082 l 390 1197 q 488 1129 435 1172 l 585 1214 l 651 1147 l 557 1067 m 671 435 q 661 563 672 493 q 440 664 551 664 q 276 601 342 664 q 211 379 211 539 q 274 164 211 231 q 442 97 336 97 q 609 185 549 97 q 671 435 669 272 z "},"ď":{"ha":897,"x_min":78,"x_max":1043,"o":"m 78 0 m 772 1175 l 772 0 l 642 0 l 642 69 q 419 -24 532 -24 q 171 81 264 -24 q 78 383 78 185 q 171 686 78 582 q 419 790 264 790 q 642 696 531 790 l 642 1175 l 772 1175 m 436 97 q 642 183 536 97 l 642 582 q 436 668 539 668 q 270 596 326 668 q 214 383 214 524 q 270 170 214 243 q 436 97 326 97 m 913 1043 l 1043 1043 l 956 763 l 843 763 l 913 1043 z "},"đ":{"ha":897,"x_min":78,"x_max":863,"o":"m 863 907 l 772 907 l 772 0 l 642 0 l 642 69 q 419 -24 532 -24 q 171 81 264 -24 q 78 383 78 185 q 171 686 78 582 q 419 790 264 790 q 642 696 531 790 l 642 907 l 399 907 l 399 1010 l 642 1010 l 642 1175 l 772 1175 l 772 1010 l 863 1010 l 863 907 m 436 97 q 642 183 536 97 l 642 582 q 436 668 539 668 q 270 596 326 668 q 214 383 214 524 q 270 170 214 243 q 436 97 326 97 z "},"e":{"ha":813,"x_min":78,"x_max":751,"o":"m 214 374 q 278 169 217 246 q 472 93 339 93 q 694 150 574 93 l 735 42 q 461 -24 608 -24 q 253 28 339 -24 q 122 171 167 79 q 78 385 78 263 q 124 605 78 514 q 250 743 171 696 q 428 790 329 790 q 665 696 579 790 q 751 425 751 601 l 751 374 l 214 374 m 428 674 q 222 483 256 674 l 614 483 q 561 627 607 581 q 428 674 515 674 z "},"é":{"ha":813,"x_min":78,"x_max":751,"o":"m 78 0 m 214 374 q 278 169 217 246 q 472 93 339 93 q 694 150 574 93 l 735 42 q 461 -24 608 -24 q 253 28 339 -24 q 122 171 167 79 q 78 385 78 263 q 124 605 78 514 q 250 743 171 696 q 428 790 329 790 q 665 696 579 790 q 751 425 751 601 l 751 374 l 214 374 m 428 674 q 222 483 256 674 l 614 483 q 561 627 607 581 q 428 674 515 674 m 501 1124 l 656 1124 l 488 911 l 356 911 l 501 1124 z "},"ě":{"ha":813,"x_min":78,"x_max":751,"o":"m 78 0 m 214 374 q 278 169 217 246 q 472 93 339 93 q 694 150 574 93 l 735 42 q 461 -24 608 -24 q 253 28 339 -24 q 122 171 167 79 q 78 385 78 263 q 124 605 78 514 q 250 743 171 696 q 428 790 329 790 q 665 696 579 790 q 751 425 751 601 l 751 374 l 214 374 m 428 674 q 222 483 256 674 l 614 483 q 561 627 607 581 q 428 674 515 674 m 661 1124 l 507 911 l 347 911 l 193 1124 l 333 1124 l 428 972 l 521 1124 l 661 1124 z "},"ê":{"ha":813,"x_min":78,"x_max":751,"o":"m 78 0 m 214 374 q 278 169 217 246 q 472 93 339 93 q 694 150 574 93 l 735 42 q 461 -24 608 -24 q 253 28 339 -24 q 122 171 167 79 q 78 385 78 263 q 124 605 78 514 q 250 743 171 696 q 428 790 329 790 q 665 696 579 790 q 751 425 751 601 l 751 374 l 214 374 m 428 674 q 222 483 256 674 l 614 483 q 561 627 607 581 q 428 674 515 674 m 521 911 l 428 1063 l 333 911 l 193 911 l 347 1124 l 507 1124 l 661 911 l 521 911 z "},"ë":{"ha":813,"x_min":78,"x_max":751,"o":"m 78 0 m 214 374 q 278 169 217 246 q 472 93 339 93 q 694 150 574 93 l 735 42 q 461 -24 608 -24 q 253 28 339 -24 q 122 171 167 79 q 78 385 78 263 q 124 605 78 514 q 250 743 171 696 q 428 790 329 790 q 665 696 579 790 q 751 425 751 601 l 751 374 l 214 374 m 428 674 q 222 483 256 674 l 614 483 q 561 627 607 581 q 428 674 515 674 m 508 1103 l 629 1103 l 629 931 l 508 931 l 508 1103 m 225 1103 l 347 1103 l 347 931 l 225 931 l 225 1103 z "},"ė":{"ha":813,"x_min":78,"x_max":751,"o":"m 78 0 m 214 374 q 278 169 217 246 q 472 93 339 93 q 694 150 574 93 l 735 42 q 461 -24 608 -24 q 253 28 339 -24 q 122 171 167 79 q 78 385 78 263 q 124 605 78 514 q 250 743 171 696 q 428 790 329 790 q 665 696 579 790 q 751 425 751 601 l 751 374 l 214 374 m 428 674 q 222 483 256 674 l 614 483 q 561 627 607 581 q 428 674 515 674 m 364 1103 l 494 1103 l 494 931 l 364 931 l 364 1103 z "},"è":{"ha":813,"x_min":78,"x_max":751,"o":"m 78 0 m 214 374 q 278 169 217 246 q 472 93 339 93 q 694 150 574 93 l 735 42 q 461 -24 608 -24 q 253 28 339 -24 q 122 171 167 79 q 78 385 78 263 q 124 605 78 514 q 250 743 171 696 q 428 790 329 790 q 665 696 579 790 q 751 425 751 601 l 751 374 l 214 374 m 428 674 q 222 483 256 674 l 614 483 q 561 627 607 581 q 428 674 515 674 m 200 1124 l 356 1124 l 500 911 l 368 911 l 200 1124 z "},"ē":{"ha":813,"x_min":78,"x_max":751,"o":"m 78 0 m 214 374 q 278 169 217 246 q 472 93 339 93 q 694 150 574 93 l 735 42 q 461 -24 608 -24 q 253 28 339 -24 q 122 171 167 79 q 78 385 78 263 q 124 605 78 514 q 250 743 171 696 q 428 790 329 790 q 665 696 579 790 q 751 425 751 601 l 751 374 l 214 374 m 428 674 q 222 483 256 674 l 614 483 q 561 627 607 581 q 428 674 515 674 m 213 1065 l 642 1065 l 642 971 l 213 971 l 213 1065 z "},"ę":{"ha":813,"x_min":78,"x_max":751,"o":"m 214 374 q 278 169 217 246 q 472 93 339 93 q 694 150 574 93 l 735 42 l 686 19 q 567 -86 608 -37 q 525 -186 525 -135 q 542 -226 525 -211 q 590 -240 558 -240 q 664 -224 629 -240 l 664 -311 q 578 -328 625 -328 q 458 -294 499 -328 q 417 -204 417 -261 q 515 -21 417 -108 q 461 -24 479 -24 q 253 28 339 -24 q 122 171 167 79 q 78 385 78 263 q 124 605 78 514 q 250 743 171 696 q 428 790 329 790 q 665 696 579 790 q 751 425 751 601 l 751 374 l 214 374 m 428 674 q 222 483 256 674 l 614 483 q 561 627 607 581 q 428 674 515 674 z "},"f":{"ha":464,"x_min":51,"x_max":429,"o":"m 360 1072 q 294 1052 311 1072 q 276 976 276 1032 l 276 768 l 429 768 l 429 646 l 276 646 l 276 0 l 146 0 l 146 646 l 51 646 l 51 768 l 146 768 l 146 1011 q 192 1151 146 1110 q 342 1193 238 1193 q 429 1183 375 1193 l 429 1064 q 360 1072 397 1072 z "},"g":{"ha":874,"x_min":76,"x_max":769,"o":"m 769 768 l 769 -15 q 697 -260 769 -172 q 442 -349 624 -349 q 288 -337 353 -349 q 156 -299 224 -326 l 156 -169 q 283 -213 219 -199 q 401 -228 347 -228 q 553 -202 501 -228 q 622 -128 604 -176 q 639 -1 639 -81 l 639 97 q 417 4 529 4 q 169 106 261 4 q 76 397 76 207 q 169 690 76 589 q 417 790 263 790 q 639 696 528 790 l 639 768 l 769 768 m 435 125 q 639 211 536 125 l 639 582 q 435 668 539 668 q 269 597 326 668 q 211 397 211 525 q 268 195 211 265 q 435 125 325 125 z "},"ğ":{"ha":874,"x_min":76,"x_max":769,"o":"m 76 0 m 769 768 l 769 -15 q 697 -260 769 -172 q 442 -349 624 -349 q 288 -337 353 -349 q 156 -299 224 -326 l 156 -169 q 283 -213 219 -199 q 401 -228 347 -228 q 553 -202 501 -228 q 622 -128 604 -176 q 639 -1 639 -81 l 639 97 q 417 4 529 4 q 169 106 261 4 q 76 397 76 207 q 169 690 76 589 q 417 790 263 790 q 639 696 528 790 l 639 768 l 769 768 m 435 125 q 639 211 536 125 l 639 582 q 435 668 539 668 q 269 597 326 668 q 211 397 211 525 q 268 195 211 265 q 435 125 325 125 m 442 910 q 283 959 342 910 q 224 1106 224 1008 l 224 1121 l 331 1121 l 331 1107 q 357 1025 331 1051 q 442 999 383 999 q 526 1025 500 999 q 553 1107 553 1051 l 553 1121 l 658 1121 l 658 1106 q 603 959 661 1008 q 442 910 544 910 z "},"ģ":{"ha":874,"x_min":76,"x_max":769,"o":"m 76 0 m 769 768 l 769 -15 q 697 -260 769 -172 q 442 -349 624 -349 q 288 -337 353 -349 q 156 -299 224 -326 l 156 -169 q 283 -213 219 -199 q 401 -228 347 -228 q 553 -202 501 -228 q 622 -128 604 -176 q 639 -1 639 -81 l 639 97 q 417 4 529 4 q 169 106 261 4 q 76 397 76 207 q 169 690 76 589 q 417 790 263 790 q 639 696 528 790 l 639 768 l 769 768 m 435 125 q 639 211 536 125 l 639 582 q 435 668 539 668 q 269 597 326 668 q 211 397 211 525 q 268 195 211 265 q 435 125 325 125 m 429 1171 l 556 1171 l 511 940 l 372 940 l 429 1171 z "},"ġ":{"ha":874,"x_min":76,"x_max":769,"o":"m 76 0 m 769 768 l 769 -15 q 697 -260 769 -172 q 442 -349 624 -349 q 288 -337 353 -349 q 156 -299 224 -326 l 156 -169 q 283 -213 219 -199 q 401 -228 347 -228 q 553 -202 501 -228 q 622 -128 604 -176 q 639 -1 639 -81 l 639 97 q 417 4 529 4 q 169 106 261 4 q 76 397 76 207 q 169 690 76 589 q 417 790 263 790 q 639 696 528 790 l 639 768 l 769 768 m 435 125 q 639 211 536 125 l 639 582 q 435 668 539 668 q 269 597 326 668 q 211 397 211 525 q 268 195 211 265 q 435 125 325 125 m 378 1103 l 508 1103 l 508 931 l 378 931 l 378 1103 z "},"h":{"ha":888,"x_min":125,"x_max":769,"o":"m 490 785 q 701 710 632 785 q 769 463 769 635 l 769 0 l 639 0 l 639 463 q 602 617 639 571 q 472 663 565 663 q 256 568 364 663 l 256 0 l 125 0 l 125 1175 l 256 1175 l 256 686 q 490 785 368 785 z "},"ħ":{"ha":888,"x_min":33,"x_max":769,"o":"m 490 785 q 701 710 632 785 q 769 463 769 635 l 769 0 l 639 0 l 639 463 q 602 617 639 571 q 472 663 565 663 q 256 568 364 663 l 256 0 l 125 0 l 125 907 l 33 907 l 33 1010 l 125 1010 l 125 1175 l 256 1175 l 256 1010 l 497 1010 l 497 907 l 256 907 l 256 686 q 490 785 368 785 z "},"i":{"ha":381,"x_min":125,"x_max":256,"o":"m 125 1122 l 256 1122 l 256 913 l 125 913 l 125 1122 m 125 768 l 256 768 l 256 0 l 125 0 l 125 768 z "},"ı":{"ha":381,"x_min":125,"x_max":256,"o":"m 125 768 l 256 768 l 256 0 l 125 0 l 125 768 z "},"í":{"ha":381,"x_min":118,"x_max":418,"o":"m 118 0 m 125 768 l 256 768 l 256 0 l 125 0 l 125 768 m 264 1124 l 418 1124 l 250 911 l 118 911 l 264 1124 z "},"î":{"ha":381,"x_min":-46,"x_max":422,"o":"m 0 0 m 125 768 l 256 768 l 256 0 l 125 0 l 125 768 m 282 911 l 189 1063 l 94 911 l -46 911 l 108 1124 l 268 1124 l 422 911 l 282 911 z "},"ï":{"ha":381,"x_min":-12,"x_max":392,"o":"m 0 0 m 125 768 l 256 768 l 256 0 l 125 0 l 125 768 m 271 1103 l 392 1103 l 392 931 l 271 931 l 271 1103 m -12 1103 l 110 1103 l 110 931 l -12 931 l -12 1103 z "},"ì":{"ha":381,"x_min":-39,"x_max":261,"o":"m 0 0 m 125 768 l 256 768 l 256 0 l 125 0 l 125 768 m -39 1124 l 117 1124 l 261 911 l 129 911 l -39 1124 z "},"ĳ":{"ha":761,"x_min":125,"x_max":636,"o":"m 125 0 m 125 1122 l 256 1122 l 256 913 l 125 913 l 125 1122 m 125 768 l 256 768 l 256 0 l 125 0 l 125 768 m 506 1122 l 636 1122 l 636 913 l 506 913 l 506 1122 m 440 -349 q 353 -337 404 -349 l 353 -219 q 422 -226 379 -226 q 474 -215 456 -226 q 499 -176 492 -204 q 506 -94 506 -149 l 506 769 l 636 769 l 636 -129 q 592 -299 636 -250 q 440 -349 549 -349 z "},"ī":{"ha":381,"x_min":-26,"x_max":403,"o":"m 0 0 m 125 768 l 256 768 l 256 0 l 125 0 l 125 768 m -26 1065 l 403 1065 l 403 971 l -26 971 l -26 1065 z "},"į":{"ha":381,"x_min":3,"x_max":256,"o":"m 256 1122 l 256 913 l 125 913 l 125 1122 l 256 1122 m 125 768 l 256 768 l 256 0 l 247 0 q 145 -96 181 -51 q 110 -186 110 -140 q 126 -226 110 -211 q 174 -240 142 -240 q 247 -224 213 -240 l 247 -311 q 161 -328 208 -328 q 42 -294 82 -328 q 3 -204 3 -261 q 35 -100 3 -150 q 135 0 68 -50 l 125 0 l 125 768 z "},"j":{"ha":381,"x_min":-28,"x_max":256,"o":"m 125 1122 l 256 1122 l 256 913 l 125 913 l 125 1122 m 60 -349 q -28 -337 24 -349 l -28 -219 q 42 -226 -1 -226 q 93 -215 75 -226 q 118 -176 111 -204 q 125 -94 125 -149 l 125 769 l 256 769 l 256 -129 q 212 -299 256 -250 q 60 -349 168 -349 z "},"ȷ":{"ha":381,"x_min":-28,"x_max":256,"o":"m 60 -349 q -28 -337 24 -349 l -28 -219 q 42 -226 -1 -226 q 93 -215 75 -226 q 118 -176 111 -204 q 125 -94 125 -149 l 125 769 l 256 769 l 256 -129 q 212 -299 256 -250 q 60 -349 168 -349 z "},"k":{"ha":811,"x_min":125,"x_max":778,"o":"m 339 354 l 256 269 l 256 0 l 125 0 l 125 1175 l 256 1175 l 256 435 l 569 758 l 733 758 l 428 444 l 778 0 l 619 0 l 339 354 z "},"ķ":{"ha":811,"x_min":125,"x_max":778,"o":"m 125 0 m 339 354 l 256 269 l 256 0 l 125 0 l 125 1175 l 256 1175 l 256 435 l 569 758 l 733 758 l 428 444 l 778 0 l 619 0 l 339 354 m 342 -111 l 481 -111 l 424 -342 l 297 -342 l 342 -111 z "},"l":{"ha":443,"x_min":125,"x_max":408,"o":"m 321 -18 q 171 24 217 -18 q 125 164 125 65 l 125 1175 l 256 1175 l 256 199 q 273 123 256 143 q 339 103 290 103 q 408 111 378 103 l 408 -8 q 321 -18 353 -18 z "},"ĺ":{"ha":443,"x_min":117,"x_max":417,"o":"m 117 0 m 321 -18 q 171 24 217 -18 q 125 164 125 65 l 125 1175 l 256 1175 l 256 199 q 273 123 256 143 q 339 103 290 103 q 408 111 378 103 l 408 -8 q 321 -18 353 -18 m 263 1540 l 417 1540 l 249 1328 l 117 1328 l 263 1540 z "},"ľ":{"ha":443,"x_min":125,"x_max":549,"o":"m 125 0 m 321 -18 q 171 24 217 -18 q 125 164 125 65 l 125 1175 l 256 1175 l 256 199 q 273 123 256 143 q 339 103 290 103 q 408 111 378 103 l 408 -8 q 321 -18 353 -18 m 418 1053 l 549 1053 l 461 772 l 349 772 l 418 1053 z "},"ļ":{"ha":443,"x_min":125,"x_max":408,"o":"m 125 0 m 321 -18 q 171 24 217 -18 q 125 164 125 65 l 125 1175 l 256 1175 l 256 199 q 273 123 256 143 q 339 103 290 103 q 408 111 378 103 l 408 -8 q 321 -18 353 -18 m 215 -111 l 354 -111 l 297 -342 l 171 -342 l 215 -111 z "},"ŀ":{"ha":443,"x_min":125,"x_max":471,"o":"m 125 0 m 321 -18 q 171 24 217 -18 q 125 164 125 65 l 125 1175 l 256 1175 l 256 199 q 273 123 256 143 q 339 103 290 103 q 408 111 378 103 l 408 -8 q 321 -18 353 -18 m 326 588 l 471 588 l 471 364 l 326 364 l 326 588 z "},"ł":{"ha":443,"x_min":11,"x_max":408,"o":"m 339 103 q 408 111 378 103 l 408 -8 q 321 -18 353 -18 q 171 24 217 -18 q 125 164 125 65 l 125 513 l 11 472 l 11 589 l 125 629 l 125 1175 l 256 1175 l 256 675 l 406 728 l 406 611 l 256 558 l 256 199 q 273 123 256 143 q 339 103 290 103 z "},"m":{"ha":1358,"x_min":125,"x_max":1264,"o":"m 989 785 q 1197 710 1129 785 q 1264 463 1264 635 l 1264 0 l 1133 0 l 1133 463 q 1098 617 1133 572 q 971 663 1063 663 q 754 558 863 663 q 760 463 760 519 l 760 0 l 629 0 l 629 463 q 594 617 629 572 q 467 663 558 663 q 256 568 361 663 l 256 0 l 125 0 l 125 768 l 256 768 l 256 686 q 485 785 368 785 q 638 753 578 785 q 728 654 697 722 q 989 785 854 785 z "},"n":{"ha":888,"x_min":125,"x_max":769,"o":"m 490 785 q 701 710 632 785 q 769 463 769 635 l 769 0 l 639 0 l 639 463 q 602 617 639 571 q 472 663 565 663 q 256 568 364 663 l 256 0 l 125 0 l 125 768 l 256 768 l 256 686 q 490 785 369 785 z "},"ń":{"ha":888,"x_min":125,"x_max":769,"o":"m 125 0 m 490 785 q 701 710 632 785 q 769 463 769 635 l 769 0 l 639 0 l 639 463 q 602 617 639 571 q 472 663 565 663 q 256 568 364 663 l 256 0 l 125 0 l 125 768 l 256 768 l 256 686 q 490 785 369 785 m 524 1124 l 678 1124 l 510 911 l 378 911 l 524 1124 z "},"ň":{"ha":888,"x_min":-86,"x_max":769,"o":"m 0 0 m 490 785 q 701 710 632 785 q 769 463 769 635 l 769 0 l 639 0 l 639 463 q 602 617 639 571 q 472 663 565 663 q 256 568 364 663 l 256 0 l 125 0 l 125 768 l 256 768 l 256 686 q 490 785 369 785 m -17 1053 l 114 1053 l 26 772 l -86 772 l -17 1053 z "},"ņ":{"ha":888,"x_min":125,"x_max":769,"o":"m 125 0 m 490 785 q 701 710 632 785 q 769 463 769 635 l 769 0 l 639 0 l 639 463 q 602 617 639 571 q 472 663 565 663 q 256 568 364 663 l 256 0 l 125 0 l 125 768 l 256 768 l 256 686 q 490 785 369 785 m 382 -111 l 521 -111 l 464 -342 l 338 -342 l 382 -111 z "},"ŋ":{"ha":876,"x_min":125,"x_max":769,"o":"m 490 785 q 701 710 632 785 q 769 463 769 635 l 769 -129 q 726 -299 769 -250 q 574 -349 682 -349 q 486 -337 535 -349 l 486 -219 q 556 -226 513 -226 q 606 -215 589 -226 q 631 -176 624 -204 q 639 -94 639 -149 l 639 463 q 602 617 639 571 q 472 663 565 663 q 256 568 364 663 l 256 0 l 125 0 l 125 768 l 256 768 l 256 686 q 490 785 369 785 z "},"ñ":{"ha":888,"x_min":125,"x_max":769,"o":"m 125 0 m 490 785 q 701 710 632 785 q 769 463 769 635 l 769 0 l 639 0 l 639 463 q 602 617 639 571 q 472 663 565 663 q 256 568 364 663 l 256 0 l 125 0 l 125 768 l 256 768 l 256 686 q 490 785 369 785 m 229 935 q 263 1056 231 1019 q 347 1092 296 1092 q 428 1071 383 1092 l 479 1047 q 526 1033 511 1033 q 564 1092 564 1033 l 667 1092 q 549 935 663 935 q 468 956 507 935 l 417 979 q 391 989 403 985 q 369 993 379 993 q 332 935 332 993 l 229 935 z "},"o":{"ha":913,"x_min":78,"x_max":835,"o":"m 457 -24 q 249 30 335 -24 q 121 176 164 83 q 78 383 78 268 q 121 591 78 499 q 249 737 164 683 q 457 790 335 790 q 665 737 579 790 q 792 591 750 683 q 835 383 835 499 q 792 176 835 268 q 665 30 750 83 q 457 -24 579 -24 m 457 94 q 635 175 572 94 q 699 383 699 256 q 635 591 699 511 q 457 671 572 671 q 278 591 342 671 q 214 383 214 511 q 278 175 214 256 q 457 94 342 94 z "},"ó":{"ha":913,"x_min":78,"x_max":835,"o":"m 78 0 m 457 -24 q 249 30 335 -24 q 121 176 164 83 q 78 383 78 268 q 121 591 78 499 q 249 737 164 683 q 457 790 335 790 q 665 737 579 790 q 792 591 750 683 q 835 383 835 499 q 792 176 835 268 q 665 30 750 83 q 457 -24 579 -24 m 457 94 q 635 175 572 94 q 699 383 699 256 q 635 591 699 511 q 457 671 572 671 q 278 591 342 671 q 214 383 214 511 q 278 175 214 256 q 457 94 342 94 m 531 1124 l 685 1124 l 517 911 l 385 911 l 531 1124 z "},"ô":{"ha":913,"x_min":78,"x_max":835,"o":"m 78 0 m 457 -24 q 249 30 335 -24 q 121 176 164 83 q 78 383 78 268 q 121 591 78 499 q 249 737 164 683 q 457 790 335 790 q 665 737 579 790 q 792 591 750 683 q 835 383 835 499 q 792 176 835 268 q 665 30 750 83 q 457 -24 579 -24 m 457 94 q 635 175 572 94 q 699 383 699 256 q 635 591 699 511 q 457 671 572 671 q 278 591 342 671 q 214 383 214 511 q 278 175 214 256 q 457 94 342 94 m 549 911 l 456 1063 l 361 911 l 221 911 l 375 1124 l 535 1124 l 689 911 l 549 911 z "},"ö":{"ha":913,"x_min":78,"x_max":835,"o":"m 78 0 m 457 -24 q 249 30 335 -24 q 121 176 164 83 q 78 383 78 268 q 121 591 78 499 q 249 737 164 683 q 457 790 335 790 q 665 737 579 790 q 792 591 750 683 q 835 383 835 499 q 792 176 835 268 q 665 30 750 83 q 457 -24 579 -24 m 457 94 q 635 175 572 94 q 699 383 699 256 q 635 591 699 511 q 457 671 572 671 q 278 591 342 671 q 214 383 214 511 q 278 175 214 256 q 457 94 342 94 m 538 1103 l 658 1103 l 658 931 l 538 931 l 538 1103 m 254 1103 l 376 1103 l 376 931 l 254 931 l 254 1103 z "},"ò":{"ha":913,"x_min":78,"x_max":835,"o":"m 78 0 m 457 -24 q 249 30 335 -24 q 121 176 164 83 q 78 383 78 268 q 121 591 78 499 q 249 737 164 683 q 457 790 335 790 q 665 737 579 790 q 792 591 750 683 q 835 383 835 499 q 792 176 835 268 q 665 30 750 83 q 457 -24 579 -24 m 457 94 q 635 175 572 94 q 699 383 699 256 q 635 591 699 511 q 457 671 572 671 q 278 591 342 671 q 214 383 214 511 q 278 175 214 256 q 457 94 342 94 m 228 1124 l 383 1124 l 528 911 l 396 911 l 228 1124 z "},"ő":{"ha":913,"x_min":78,"x_max":835,"o":"m 78 0 m 457 -24 q 249 30 335 -24 q 121 176 164 83 q 78 383 78 268 q 121 591 78 499 q 249 737 164 683 q 457 790 335 790 q 665 737 579 790 q 792 591 750 683 q 835 383 835 499 q 792 176 835 268 q 665 30 750 83 q 457 -24 579 -24 m 457 94 q 635 175 572 94 q 699 383 699 256 q 635 591 699 511 q 457 671 572 671 q 278 591 342 671 q 214 383 214 511 q 278 175 214 256 q 457 94 342 94 m 665 1124 l 811 1124 l 643 911 l 521 911 l 665 1124 m 404 1124 l 550 1124 l 382 911 l 258 911 l 404 1124 z "},"ō":{"ha":913,"x_min":78,"x_max":835,"o":"m 78 0 m 457 -24 q 249 30 335 -24 q 121 176 164 83 q 78 383 78 268 q 121 591 78 499 q 249 737 164 683 q 457 790 335 790 q 665 737 579 790 q 792 591 750 683 q 835 383 835 499 q 792 176 835 268 q 665 30 750 83 q 457 -24 579 -24 m 457 94 q 635 175 572 94 q 699 383 699 256 q 635 591 699 511 q 457 671 572 671 q 278 591 342 671 q 214 383 214 511 q 278 175 214 256 q 457 94 342 94 m 240 1065 l 669 1065 l 669 971 l 240 971 l 240 1065 z "},"ø":{"ha":913,"x_min":42,"x_max":872,"o":"m 781 614 q 835 383 835 517 q 792 176 835 268 q 665 30 750 83 q 457 -24 579 -24 q 199 68 299 -24 l 118 -7 l 42 67 l 133 153 q 78 383 78 253 q 121 591 78 499 q 249 737 164 683 q 457 790 335 790 q 715 697 615 790 l 797 775 l 872 700 l 781 614 m 214 383 q 236 249 214 307 l 619 608 q 457 671 560 671 q 278 591 342 671 q 214 383 214 511 m 699 383 q 676 518 699 460 l 293 158 q 457 94 357 94 q 635 175 572 94 q 699 383 699 256 z "},"õ":{"ha":913,"x_min":78,"x_max":835,"o":"m 78 0 m 457 -24 q 249 30 335 -24 q 121 176 164 83 q 78 383 78 268 q 121 591 78 499 q 249 737 164 683 q 457 790 335 790 q 665 737 579 790 q 792 591 750 683 q 835 383 835 499 q 792 176 835 268 q 665 30 750 83 q 457 -24 579 -24 m 457 94 q 635 175 572 94 q 699 383 699 256 q 635 591 699 511 q 457 671 572 671 q 278 591 342 671 q 214 383 214 511 q 278 175 214 256 q 457 94 342 94 m 236 935 q 270 1056 238 1019 q 354 1092 303 1092 q 435 1071 390 1092 l 486 1047 q 533 1033 518 1033 q 571 1092 571 1033 l 674 1092 q 556 935 669 935 q 475 956 514 935 l 424 979 q 398 989 410 985 q 376 993 386 993 q 339 935 339 993 l 236 935 z "},"œ":{"ha":1433,"x_min":78,"x_max":1372,"o":"m 835 374 q 899 169 838 246 q 1093 93 960 93 q 1315 150 1194 93 l 1356 42 q 1082 -24 1229 -24 q 891 22 971 -24 q 767 150 811 67 q 642 22 721 68 q 453 -24 563 -24 q 247 30 332 -24 q 120 176 163 83 q 78 383 78 268 q 120 591 78 499 q 247 737 163 683 q 453 790 332 790 q 640 745 561 790 q 765 619 719 700 q 885 747 810 703 q 1053 790 961 790 q 1287 696 1201 790 q 1372 425 1372 601 l 1372 374 l 835 374 m 1049 674 q 843 483 876 674 l 1235 483 q 1182 627 1228 581 q 1049 674 1136 674 m 457 94 q 635 175 572 94 q 699 383 699 256 q 635 591 699 511 q 457 671 572 671 q 278 591 342 671 q 214 383 214 511 q 278 175 214 256 q 457 94 342 94 z "},"p":{"ha":897,"x_min":125,"x_max":818,"o":"m 478 790 q 726 686 633 790 q 818 383 818 582 q 726 81 818 185 q 478 -24 633 -24 q 256 69 365 -24 l 256 -325 l 125 -325 l 125 768 l 256 768 l 256 696 q 478 790 367 790 m 460 97 q 626 170 569 97 q 683 383 683 243 q 626 596 683 524 q 460 668 569 668 q 256 582 356 668 l 256 183 q 460 97 358 97 z "},"þ":{"ha":865,"x_min":125,"x_max":818,"o":"m 478 790 q 726 686 633 790 q 818 383 818 582 q 726 81 818 185 q 478 -24 633 -24 q 256 69 365 -24 l 256 -325 l 125 -325 l 125 1175 l 256 1175 l 256 696 q 478 790 367 790 m 460 97 q 626 170 569 97 q 683 383 683 243 q 626 596 683 524 q 460 668 569 668 q 256 582 356 668 l 256 183 q 460 97 358 97 z "},"q":{"ha":897,"x_min":78,"x_max":772,"o":"m 772 768 l 772 -325 l 642 -325 l 642 69 q 419 -24 532 -24 q 171 81 264 -24 q 78 383 78 185 q 171 686 78 582 q 419 790 264 790 q 642 696 531 790 l 642 768 l 772 768 m 436 97 q 642 183 536 97 l 642 582 q 436 668 539 668 q 270 596 326 668 q 214 383 214 524 q 270 170 214 243 q 436 97 326 97 z "},"r":{"ha":561,"x_min":125,"x_max":519,"o":"m 519 785 l 519 663 l 488 663 q 256 567 368 663 l 256 0 l 125 0 l 125 768 l 256 768 l 256 682 q 488 785 369 785 l 519 785 z "},"ŕ":{"ha":561,"x_min":125,"x_max":554,"o":"m 125 0 m 519 785 l 519 663 l 488 663 q 256 567 368 663 l 256 0 l 125 0 l 125 768 l 256 768 l 256 682 q 488 785 369 785 l 519 785 m 400 1124 l 554 1124 l 386 911 l 254 911 l 400 1124 z "},"ř":{"ha":561,"x_min":90,"x_max":558,"o":"m 90 0 m 519 785 l 519 663 l 488 663 q 256 567 368 663 l 256 0 l 125 0 l 125 768 l 256 768 l 256 682 q 488 785 369 785 l 519 785 m 558 1124 l 404 911 l 244 911 l 90 1124 l 231 1124 l 325 972 l 418 1124 l 558 1124 z "},"ŗ":{"ha":561,"x_min":75,"x_max":519,"o":"m 75 0 m 519 785 l 519 663 l 488 663 q 256 567 368 663 l 256 0 l 125 0 l 125 768 l 256 768 l 256 682 q 488 785 369 785 l 519 785 m 119 -111 l 258 -111 l 201 -342 l 75 -342 l 119 -111 z "},"s":{"ha":714,"x_min":72,"x_max":638,"o":"m 358 -24 q 208 -10 274 -24 q 72 38 143 4 l 72 167 q 358 93 204 93 q 470 124 436 93 q 504 207 504 156 q 477 281 504 257 q 389 321 450 304 l 299 343 q 146 418 201 367 q 90 569 90 469 q 158 732 90 674 q 358 790 226 790 q 485 777 426 790 q 601 740 543 764 l 601 618 q 489 659 544 644 q 363 674 433 674 q 256 645 289 674 q 224 574 224 617 q 252 502 224 526 q 335 464 281 478 l 426 443 q 541 401 496 426 q 612 331 586 376 q 638 211 638 286 q 562 38 638 99 q 358 -24 486 -24 z "},"ś":{"ha":714,"x_min":72,"x_max":638,"o":"m 72 0 m 358 -24 q 208 -10 274 -24 q 72 38 143 4 l 72 167 q 358 93 204 93 q 470 124 436 93 q 504 207 504 156 q 477 281 504 257 q 389 321 450 304 l 299 343 q 146 418 201 367 q 90 569 90 469 q 158 732 90 674 q 358 790 226 790 q 485 777 426 790 q 601 740 543 764 l 601 618 q 489 659 544 644 q 363 674 433 674 q 256 645 289 674 q 224 574 224 617 q 252 502 224 526 q 335 464 281 478 l 426 443 q 541 401 496 426 q 612 331 586 376 q 638 211 638 286 q 562 38 638 99 q 358 -24 486 -24 m 433 1124 l 588 1124 l 419 911 l 288 911 l 433 1124 z "},"š":{"ha":714,"x_min":72,"x_max":638,"o":"m 72 0 m 358 -24 q 208 -10 274 -24 q 72 38 143 4 l 72 167 q 358 93 204 93 q 470 124 436 93 q 504 207 504 156 q 477 281 504 257 q 389 321 450 304 l 299 343 q 146 418 201 367 q 90 569 90 469 q 158 732 90 674 q 358 790 226 790 q 485 777 426 790 q 601 740 543 764 l 601 618 q 489 659 544 644 q 363 674 433 674 q 256 645 289 674 q 224 574 224 617 q 252 502 224 526 q 335 464 281 478 l 426 443 q 541 401 496 426 q 612 331 586 376 q 638 211 638 286 q 562 38 638 99 q 358 -24 486 -24 m 592 1124 l 438 911 l 278 911 l 124 1124 l 264 1124 l 358 972 l 451 1124 l 592 1124 z "},"ş":{"ha":714,"x_min":72,"x_max":638,"o":"m 638 211 q 574 49 638 108 q 403 -22 511 -11 l 382 -87 l 394 -87 q 506 -124 467 -87 q 544 -221 544 -161 q 499 -326 544 -286 q 367 -365 453 -365 q 229 -337 290 -365 l 229 -249 q 357 -278 293 -278 q 421 -262 400 -278 q 442 -222 442 -246 q 367 -171 442 -171 q 253 -192 321 -171 l 304 -22 q 187 -4 242 -18 q 72 38 132 10 l 72 167 q 358 93 204 93 q 470 124 436 93 q 504 207 504 156 q 477 281 504 257 q 389 321 450 304 l 299 343 q 146 418 201 367 q 90 569 90 469 q 158 732 90 674 q 358 790 226 790 q 485 777 426 790 q 601 740 543 764 l 601 618 q 489 659 544 644 q 363 674 433 674 q 256 645 289 674 q 224 574 224 617 q 252 502 224 526 q 335 464 281 478 l 426 443 q 541 401 496 426 q 612 331 586 376 q 638 211 638 286 z "},"ș":{"ha":714,"x_min":72,"x_max":638,"o":"m 72 0 m 358 -24 q 208 -10 274 -24 q 72 38 143 4 l 72 167 q 358 93 204 93 q 470 124 436 93 q 504 207 504 156 q 477 281 504 257 q 389 321 450 304 l 299 343 q 146 418 201 367 q 90 569 90 469 q 158 732 90 674 q 358 790 226 790 q 485 777 426 790 q 601 740 543 764 l 601 618 q 489 659 544 644 q 363 674 433 674 q 256 645 289 674 q 224 574 224 617 q 252 502 224 526 q 335 464 281 478 l 426 443 q 541 401 496 426 q 612 331 586 376 q 638 211 638 286 q 562 38 638 99 q 358 -24 486 -24 m 286 -111 l 425 -111 l 368 -342 l 242 -342 l 286 -111 z "},"ß":{"ha":865,"x_min":125,"x_max":813,"o":"m 546 -24 q 460 -17 500 -24 q 375 10 419 -10 l 375 131 q 460 101 424 108 q 532 93 496 93 q 679 211 675 93 q 647 287 678 260 q 550 346 615 314 q 458 397 493 374 q 397 463 422 421 q 372 569 372 504 q 390 667 372 626 q 444 758 408 707 q 499 847 481 808 q 517 942 517 886 q 485 1041 517 1010 q 390 1072 454 1072 q 288 1039 319 1072 q 256 924 256 1006 l 256 0 l 125 0 l 125 924 q 192 1130 125 1067 q 397 1193 260 1193 q 581 1129 515 1193 q 647 947 647 1065 q 624 809 647 864 q 558 693 601 754 q 518 626 531 651 q 506 571 506 600 q 535 505 506 531 q 626 447 564 479 q 722 392 685 418 q 785 322 758 365 q 813 213 813 278 q 738 35 808 94 q 546 -24 667 -24 z "},"t":{"ha":518,"x_min":51,"x_max":460,"o":"m 282 638 l 282 199 q 299 123 282 143 q 364 103 317 103 q 453 114 406 103 l 453 -4 q 342 -18 390 -18 q 194 25 236 -18 q 151 169 151 68 l 151 638 l 51 638 l 51 758 l 151 758 l 151 1022 l 282 1022 l 282 758 l 460 758 l 460 638 l 282 638 z "},"ŧ":{"ha":518,"x_min":51,"x_max":460,"o":"m 282 328 l 282 199 q 299 123 282 143 q 364 103 317 103 q 453 114 406 103 l 453 -4 q 342 -18 390 -18 q 194 25 236 -18 q 151 169 151 68 l 151 328 l 53 328 l 53 442 l 151 442 l 151 638 l 51 638 l 51 758 l 151 758 l 151 1022 l 282 1022 l 282 758 l 460 758 l 460 638 l 282 638 l 282 442 l 460 442 l 460 328 l 282 328 z "},"ť":{"ha":518,"x_min":51,"x_max":560,"o":"m 51 0 m 282 638 l 282 199 q 299 123 282 143 q 364 103 317 103 q 453 114 406 103 l 453 -4 q 342 -18 390 -18 q 194 25 236 -18 q 151 169 151 68 l 151 638 l 51 638 l 51 758 l 151 758 l 151 1022 l 282 1022 l 282 758 l 460 758 l 460 638 l 282 638 m 429 1122 l 560 1122 l 472 842 l 360 842 l 429 1122 z "},"ţ":{"ha":518,"x_min":51,"x_max":482,"o":"m 331 -87 q 443 -124 404 -87 q 482 -221 482 -161 q 436 -326 482 -286 q 303 -365 390 -365 q 167 -337 228 -365 l 167 -249 q 294 -278 231 -278 q 358 -262 338 -278 q 379 -222 379 -246 q 303 -171 379 -171 q 190 -192 258 -171 l 246 -6 q 173 53 194 11 q 151 169 151 96 l 151 638 l 51 638 l 51 758 l 151 758 l 151 1022 l 282 1022 l 282 758 l 460 758 l 460 638 l 282 638 l 282 199 q 299 123 282 143 q 364 103 317 103 q 453 114 406 103 l 453 -4 q 340 -18 390 -18 l 318 -87 l 331 -87 z "},"ț":{"ha":518,"x_min":51,"x_max":460,"o":"m 51 0 m 282 638 l 282 199 q 299 123 282 143 q 364 103 317 103 q 453 114 406 103 l 453 -4 q 342 -18 390 -18 q 194 25 236 -18 q 151 169 151 68 l 151 638 l 51 638 l 51 758 l 151 758 l 151 1022 l 282 1022 l 282 758 l 460 758 l 460 638 l 282 638 m 222 -111 l 361 -111 l 304 -342 l 178 -342 l 222 -111 z "},"u":{"ha":888,"x_min":118,"x_max":763,"o":"m 763 768 l 763 0 l 632 0 l 632 82 q 397 -17 518 -17 q 187 58 256 -17 q 118 304 118 133 l 118 768 l 249 768 l 249 304 q 285 150 249 196 q 415 104 322 104 q 632 199 524 104 l 632 768 l 763 768 z "},"ú":{"ha":888,"x_min":118,"x_max":763,"o":"m 118 0 m 763 768 l 763 0 l 632 0 l 632 82 q 397 -17 518 -17 q 187 58 256 -17 q 118 304 118 133 l 118 768 l 249 768 l 249 304 q 285 150 249 196 q 415 104 322 104 q 632 199 524 104 l 632 768 l 763 768 m 514 1124 l 668 1124 l 500 911 l 368 911 l 514 1124 z "},"û":{"ha":888,"x_min":118,"x_max":763,"o":"m 118 0 m 763 768 l 763 0 l 632 0 l 632 82 q 397 -17 518 -17 q 187 58 256 -17 q 118 304 118 133 l 118 768 l 249 768 l 249 304 q 285 150 249 196 q 415 104 322 104 q 632 199 524 104 l 632 768 l 763 768 m 532 911 l 439 1063 l 344 911 l 204 911 l 358 1124 l 518 1124 l 672 911 l 532 911 z "},"ü":{"ha":888,"x_min":118,"x_max":763,"o":"m 118 0 m 763 768 l 763 0 l 632 0 l 632 82 q 397 -17 518 -17 q 187 58 256 -17 q 118 304 118 133 l 118 768 l 249 768 l 249 304 q 285 150 249 196 q 415 104 322 104 q 632 199 524 104 l 632 768 l 763 768 m 521 1103 l 642 1103 l 642 931 l 521 931 l 521 1103 m 238 1103 l 360 1103 l 360 931 l 238 931 l 238 1103 z "},"ù":{"ha":888,"x_min":118,"x_max":763,"o":"m 118 0 m 763 768 l 763 0 l 632 0 l 632 82 q 397 -17 518 -17 q 187 58 256 -17 q 118 304 118 133 l 118 768 l 249 768 l 249 304 q 285 150 249 196 q 415 104 322 104 q 632 199 524 104 l 632 768 l 763 768 m 211 1124 l 367 1124 l 511 911 l 379 911 l 211 1124 z "},"ű":{"ha":888,"x_min":118,"x_max":794,"o":"m 118 0 m 763 768 l 763 0 l 632 0 l 632 82 q 397 -17 518 -17 q 187 58 256 -17 q 118 304 118 133 l 118 768 l 249 768 l 249 304 q 285 150 249 196 q 415 104 322 104 q 632 199 524 104 l 632 768 l 763 768 m 649 1124 l 794 1124 l 626 911 l 504 911 l 649 1124 m 388 1124 l 533 1124 l 365 911 l 242 911 l 388 1124 z "},"ū":{"ha":888,"x_min":118,"x_max":763,"o":"m 118 0 m 763 768 l 763 0 l 632 0 l 632 82 q 397 -17 518 -17 q 187 58 256 -17 q 118 304 118 133 l 118 768 l 249 768 l 249 304 q 285 150 249 196 q 415 104 322 104 q 632 199 524 104 l 632 768 l 763 768 m 224 1065 l 653 1065 l 653 971 l 224 971 l 224 1065 z "},"ų":{"ha":888,"x_min":118,"x_max":763,"o":"m 763 768 l 763 0 q 660 -96 696 -51 q 625 -186 625 -140 q 641 -226 625 -211 q 689 -240 657 -240 q 763 -224 728 -240 l 763 -311 q 676 -328 724 -328 q 558 -294 597 -328 q 518 -204 518 -261 q 551 -100 518 -150 q 650 0 583 -50 l 632 0 l 632 82 q 397 -17 518 -17 q 187 58 256 -17 q 118 304 118 133 l 118 768 l 249 768 l 249 304 q 285 150 249 196 q 415 104 322 104 q 632 199 524 104 l 632 768 l 763 768 z "},"ů":{"ha":888,"x_min":118,"x_max":763,"o":"m 118 0 m 763 768 l 763 0 l 632 0 l 632 82 q 397 -17 518 -17 q 187 58 256 -17 q 118 304 118 133 l 118 768 l 249 768 l 249 304 q 285 150 249 196 q 415 104 322 104 q 632 199 524 104 l 632 768 l 763 768 m 439 889 q 335 925 374 889 q 296 1017 296 961 q 334 1108 296 1072 q 439 1143 372 1143 q 542 1108 504 1143 q 581 1017 581 1072 q 542 925 581 961 q 439 889 504 889 m 439 956 q 483 972 467 956 q 500 1017 500 989 q 483 1061 500 1044 q 439 1078 467 1078 q 394 1061 411 1078 q 376 1017 376 1044 q 394 972 376 989 q 439 956 411 956 z "},"v":{"ha":789,"x_min":28,"x_max":761,"o":"m 761 768 l 471 -12 l 321 -12 l 28 768 l 164 768 l 396 132 l 625 768 l 761 768 z "},"w":{"ha":1197,"x_min":32,"x_max":1165,"o":"m 1165 768 l 929 -12 l 789 -12 l 599 576 l 410 -12 l 269 -12 l 32 768 l 168 768 l 340 158 l 524 768 l 674 768 l 858 158 l 1029 768 l 1165 768 z "},"ẃ":{"ha":1197,"x_min":32,"x_max":1165,"o":"m 32 0 m 1165 768 l 929 -12 l 789 -12 l 599 576 l 410 -12 l 269 -12 l 32 768 l 168 768 l 340 158 l 524 768 l 674 768 l 858 158 l 1029 768 l 1165 768 m 672 1124 l 826 1124 l 658 911 l 526 911 l 672 1124 z "},"ŵ":{"ha":1197,"x_min":32,"x_max":1165,"o":"m 32 0 m 1165 768 l 929 -12 l 789 -12 l 599 576 l 410 -12 l 269 -12 l 32 768 l 168 768 l 340 158 l 524 768 l 674 768 l 858 158 l 1029 768 l 1165 768 m 690 911 l 597 1063 l 503 911 l 363 911 l 517 1124 l 676 1124 l 831 911 l 690 911 z "},"ẅ":{"ha":1197,"x_min":32,"x_max":1165,"o":"m 32 0 m 1165 768 l 929 -12 l 789 -12 l 599 576 l 410 -12 l 269 -12 l 32 768 l 168 768 l 340 158 l 524 768 l 674 768 l 858 158 l 1029 768 l 1165 768 m 679 1103 l 800 1103 l 800 931 l 679 931 l 679 1103 m 396 1103 l 518 1103 l 518 931 l 396 931 l 396 1103 z "},"ẁ":{"ha":1197,"x_min":32,"x_max":1165,"o":"m 32 0 m 1165 768 l 929 -12 l 789 -12 l 599 576 l 410 -12 l 269 -12 l 32 768 l 168 768 l 340 158 l 524 768 l 674 768 l 858 158 l 1029 768 l 1165 768 m 369 1124 l 525 1124 l 669 911 l 538 911 l 369 1124 z "},"x":{"ha":808,"x_min":49,"x_max":760,"o":"m 603 0 l 400 299 l 206 0 l 49 0 l 319 401 l 63 768 l 219 768 l 406 493 l 593 768 l 747 768 l 483 390 l 760 0 l 603 0 z "},"y":{"ha":771,"x_min":28,"x_max":743,"o":"m 743 768 l 403 -124 q 338 -264 367 -218 q 269 -329 308 -310 q 160 -349 229 -349 q 78 -337 119 -349 l 78 -219 q 150 -228 114 -228 q 224 -200 197 -228 q 283 -90 251 -172 l 319 3 l 28 768 l 164 768 l 385 174 l 611 768 l 743 768 z "},"ý":{"ha":771,"x_min":28,"x_max":743,"o":"m 28 0 m 743 768 l 403 -124 q 338 -264 367 -218 q 269 -329 308 -310 q 160 -349 229 -349 q 78 -337 119 -349 l 78 -219 q 150 -228 114 -228 q 224 -200 197 -228 q 283 -90 251 -172 l 319 3 l 28 768 l 164 768 l 385 174 l 611 768 l 743 768 m 460 1124 l 614 1124 l 446 911 l 314 911 l 460 1124 z "},"ŷ":{"ha":771,"x_min":28,"x_max":743,"o":"m 28 0 m 743 768 l 403 -124 q 338 -264 367 -218 q 269 -329 308 -310 q 160 -349 229 -349 q 78 -337 119 -349 l 78 -219 q 150 -228 114 -228 q 224 -200 197 -228 q 283 -90 251 -172 l 319 3 l 28 768 l 164 768 l 385 174 l 611 768 l 743 768 m 478 911 l 385 1063 l 290 911 l 150 911 l 304 1124 l 464 1124 l 618 911 l 478 911 z "},"ÿ":{"ha":771,"x_min":28,"x_max":743,"o":"m 28 0 m 743 768 l 403 -124 q 338 -264 367 -218 q 269 -329 308 -310 q 160 -349 229 -349 q 78 -337 119 -349 l 78 -219 q 150 -228 114 -228 q 224 -200 197 -228 q 283 -90 251 -172 l 319 3 l 28 768 l 164 768 l 385 174 l 611 768 l 743 768 m 467 1103 l 588 1103 l 588 931 l 467 931 l 467 1103 m 183 1103 l 306 1103 l 306 931 l 183 931 l 183 1103 z "},"ỳ":{"ha":771,"x_min":28,"x_max":743,"o":"m 28 0 m 743 768 l 403 -124 q 338 -264 367 -218 q 269 -329 308 -310 q 160 -349 229 -349 q 78 -337 119 -349 l 78 -219 q 150 -228 114 -228 q 224 -200 197 -228 q 283 -90 251 -172 l 319 3 l 28 768 l 164 768 l 385 174 l 611 768 l 743 768 m 157 1124 l 313 1124 l 457 911 l 325 911 l 157 1124 z "},"z":{"ha":744,"x_min":92,"x_max":671,"o":"m 671 118 l 671 0 l 92 0 l 92 118 l 496 649 l 117 649 l 117 768 l 640 768 l 640 649 l 238 118 l 671 118 z "},"ź":{"ha":744,"x_min":92,"x_max":671,"o":"m 92 0 m 671 118 l 671 0 l 92 0 l 92 118 l 496 649 l 117 649 l 117 768 l 640 768 l 640 649 l 238 118 l 671 118 m 439 1124 l 593 1124 l 425 911 l 293 911 l 439 1124 z "},"ž":{"ha":744,"x_min":92,"x_max":671,"o":"m 92 0 m 671 118 l 671 0 l 92 0 l 92 118 l 496 649 l 117 649 l 117 768 l 640 768 l 640 649 l 238 118 l 671 118 m 599 1124 l 444 911 l 285 911 l 131 1124 l 271 1124 l 365 972 l 458 1124 l 599 1124 z "},"ż":{"ha":744,"x_min":92,"x_max":671,"o":"m 92 0 m 671 118 l 671 0 l 92 0 l 92 118 l 496 649 l 117 649 l 117 768 l 640 768 l 640 649 l 238 118 l 671 118 m 301 1103 l 432 1103 l 432 931 l 301 931 l 301 1103 z "},"ﬁ":{"ha":844,"x_min":51,"x_max":719,"o":"m 51 0 m 360 1072 q 294 1052 311 1072 q 276 976 276 1032 l 276 768 l 429 768 l 429 646 l 276 646 l 276 0 l 146 0 l 146 646 l 51 646 l 51 768 l 146 768 l 146 1011 q 192 1151 146 1110 q 342 1193 238 1193 q 429 1183 375 1193 l 429 1064 q 360 1072 397 1072 m 589 1122 l 719 1122 l 719 913 l 589 913 l 589 1122 m 589 768 l 719 768 l 719 0 l 589 0 l 589 768 z "},"ﬂ":{"ha":907,"x_min":51,"x_max":872,"o":"m 51 0 m 360 1072 q 294 1052 311 1072 q 276 976 276 1032 l 276 768 l 429 768 l 429 646 l 276 646 l 276 0 l 146 0 l 146 646 l 51 646 l 51 768 l 146 768 l 146 1011 q 192 1151 146 1110 q 342 1193 238 1193 q 429 1183 375 1193 l 429 1064 q 360 1072 397 1072 m 785 -18 q 635 24 681 -18 q 589 164 589 65 l 589 1175 l 719 1175 l 719 199 q 737 123 719 143 q 803 103 754 103 q 872 111 842 103 l 872 -8 q 785 -18 817 -18 z "},"ª":{"ha":551,"x_min":36,"x_max":479,"o":"m 268 950 q 402 919 356 950 q 464 837 449 889 q 479 706 479 785 l 479 394 l 375 394 l 375 440 q 224 382 307 382 q 90 432 144 382 q 36 567 36 482 q 93 707 36 657 q 246 757 150 757 q 375 728 314 757 q 348 822 372 792 q 253 851 324 851 l 171 851 l 171 950 l 268 950 m 242 478 q 306 490 271 478 q 375 529 342 503 l 375 642 q 263 663 322 663 q 181 641 214 663 q 149 568 149 619 q 177 500 149 522 q 242 478 206 478 z "},"º":{"ha":718,"x_min":79,"x_max":639,"o":"m 360 382 q 209 421 272 382 q 113 526 146 460 q 79 676 79 593 q 113 825 79 758 q 209 931 146 892 q 360 969 272 969 q 510 931 447 969 q 606 825 574 892 q 639 676 639 758 q 606 526 639 593 q 510 421 574 460 q 360 382 447 382 m 360 485 q 487 538 444 485 q 529 676 529 592 q 487 813 529 760 q 360 867 444 867 q 232 813 275 867 q 189 676 189 760 q 232 539 189 593 q 360 485 275 485 z "},"ॲ":{"ha":1007,"x_min":63,"x_max":1079,"o":"m 63 0 m 1021 899 l 1021 801 l 868 801 l 868 0 l 747 0 l 747 321 l 494 321 q 496 299 496 314 q 397 113 496 169 q 143 56 297 56 l 63 56 l 63 154 l 143 154 q 309 187 243 154 q 375 308 375 219 q 333 404 375 372 q 197 436 290 436 l 126 436 l 126 535 l 199 535 q 331 574 288 535 q 375 676 375 613 q 328 774 375 746 q 185 801 281 801 l 106 801 l 106 899 l 185 899 q 419 850 343 899 q 496 688 496 801 q 465 570 496 619 q 369 489 433 521 q 463 419 429 469 l 747 419 l 747 801 l 579 801 l 579 899 l 1021 899 m 807 1004 q 604 1062 674 1004 q 535 1229 535 1119 l 535 1249 l 643 1249 l 643 1229 q 807 1103 643 1103 q 971 1229 971 1103 l 971 1249 l 1079 1249 l 1079 1229 q 1010 1062 1079 1119 q 807 1004 940 1004 z "},"ऄ":{"ha":1007,"x_min":63,"x_max":1021,"o":"m 1021 899 l 1021 801 l 868 801 l 868 0 l 747 0 l 747 321 l 494 321 q 496 299 496 314 q 397 113 496 169 q 143 56 297 56 l 63 56 l 63 154 l 143 154 q 309 187 243 154 q 375 308 375 219 q 333 404 375 372 q 197 436 290 436 l 126 436 l 126 535 l 199 535 q 331 574 288 535 q 375 676 375 613 q 328 774 375 746 q 185 801 281 801 l 106 801 l 106 899 l 185 899 q 419 850 343 899 q 496 688 496 801 q 465 570 496 619 q 369 489 433 521 q 463 419 429 469 l 747 419 l 747 801 l 579 801 l 579 899 l 747 899 l 747 954 q 735 1040 747 1010 q 688 1086 722 1071 q 588 1101 654 1101 l 356 1101 q 179 1128 242 1101 q 92 1208 117 1154 q 67 1351 67 1261 l 67 1381 l 188 1381 l 188 1351 q 199 1261 188 1292 q 246 1215 210 1231 q 356 1200 282 1200 l 588 1200 q 767 1174 707 1200 q 847 1097 826 1149 q 868 954 868 1046 l 868 899 l 1021 899 z "},"अ":{"ha":1007,"x_min":63,"x_max":1021,"o":"m 1021 899 l 1021 801 l 868 801 l 868 0 l 747 0 l 747 321 l 494 321 q 496 299 496 314 q 397 113 496 169 q 143 56 297 56 l 63 56 l 63 154 l 143 154 q 309 187 243 154 q 375 308 375 219 q 333 404 375 372 q 197 436 290 436 l 126 436 l 126 535 l 199 535 q 331 574 288 535 q 375 676 375 613 q 328 774 375 746 q 185 801 281 801 l 106 801 l 106 899 l 185 899 q 419 850 343 899 q 496 688 496 801 q 465 570 496 619 q 369 489 433 521 q 463 419 429 469 l 747 419 l 747 801 l 579 801 l 579 899 l 1021 899 z "},"आ":{"ha":1407,"x_min":63,"x_max":1421,"o":"m 1421 801 l 1268 801 l 1268 0 l 1146 0 l 1146 801 l 1021 801 l 868 801 l 868 0 l 747 0 l 747 321 l 494 321 q 496 299 496 314 q 397 113 496 169 q 143 56 297 56 l 63 56 l 63 154 l 143 154 q 309 187 243 154 q 375 308 375 219 q 333 404 375 372 q 197 436 290 436 l 126 436 l 126 535 l 199 535 q 331 574 288 535 q 375 676 375 613 q 328 774 375 746 q 185 801 281 801 l 106 801 l 106 899 l 185 899 q 419 850 343 899 q 496 688 496 801 q 465 570 496 619 q 369 489 433 521 q 463 419 429 469 l 747 419 l 747 801 l 579 801 l 579 899 l 1021 899 l 1421 899 l 1421 801 z "},"इ":{"ha":721,"x_min":-14,"x_max":735,"o":"m 311 571 q 233 554 258 571 q 208 494 208 538 q 219 447 208 468 q 243 417 229 426 l 408 417 q 658 218 658 417 q 594 61 658 114 q 410 8 529 8 l 393 8 q 204 46 288 8 l 204 -86 l 92 -86 l 92 242 l 204 242 l 204 149 q 388 107 288 107 l 406 107 q 538 211 538 107 q 505 293 538 268 q 408 318 472 318 l 181 318 q 117 394 147 344 q 88 501 88 444 q 142 631 88 593 q 311 669 196 669 l 440 669 l 440 801 l -14 801 l -14 899 l 735 899 l 735 801 l 561 801 l 561 571 l 311 571 z "},"ई":{"ha":721,"x_min":-14,"x_max":735,"o":"m 311 571 q 233 554 258 571 q 208 494 208 538 q 219 447 208 468 q 243 417 229 426 l 408 417 q 658 218 658 417 q 594 61 658 114 q 410 8 529 8 l 393 8 q 204 46 288 8 l 204 -86 l 92 -86 l 92 242 l 204 242 l 204 149 q 388 107 288 107 l 406 107 q 538 211 538 107 q 505 293 538 268 q 408 318 472 318 l 181 318 q 117 394 147 344 q 88 501 88 444 q 142 631 88 593 q 311 669 196 669 l 440 669 l 440 801 l -14 801 l -14 899 l 442 899 q 386 1117 386 1017 q 449 1271 386 1224 q 600 1318 513 1318 q 700 1300 661 1318 l 700 1197 q 613 1219 658 1219 q 536 1192 565 1219 q 507 1104 507 1165 q 521 1010 507 1056 q 564 899 535 964 l 735 899 l 735 801 l 561 801 l 561 571 l 311 571 z "},"उ":{"ha":788,"x_min":-14,"x_max":803,"o":"m 803 801 l 638 801 q 685 664 685 751 q 654 551 685 597 q 557 476 624 504 q 653 394 622 454 q 685 256 685 335 q 378 0 685 0 q 71 261 71 0 l 71 331 l 193 331 l 193 261 q 242 133 193 168 q 378 99 292 99 q 513 133 464 99 q 563 261 563 168 q 522 386 563 344 q 390 428 481 428 l 292 428 l 292 525 l 392 525 q 520 566 478 525 q 563 669 563 607 q 542 746 563 718 q 468 801 521 774 l -14 801 l -14 899 l 803 899 l 803 801 z "},"ऊ":{"ha":1136,"x_min":-14,"x_max":1144,"o":"m 1144 801 l 638 801 q 685 664 685 751 q 654 551 685 597 q 557 476 624 504 q 649 401 615 456 q 740 446 694 431 q 839 461 785 461 q 1023 410 964 461 q 1082 231 1082 360 q 1022 53 1082 106 q 838 0 961 0 l 821 0 q 742 7 781 0 l 742 106 q 815 99 779 99 l 832 99 q 928 128 896 99 q 961 231 961 157 q 931 331 961 300 q 828 363 900 363 q 746 351 781 363 q 679 318 711 340 q 685 256 685 276 q 378 0 685 0 q 71 261 71 0 l 71 331 l 193 331 l 193 261 q 242 133 193 168 q 378 99 292 99 q 513 133 464 99 q 563 261 563 168 q 522 386 563 344 q 390 428 481 428 l 292 428 l 292 525 l 392 525 q 520 566 478 525 q 563 669 563 607 q 542 746 563 718 q 468 801 521 774 l -14 801 l -14 899 l 1144 899 l 1144 801 z "},"ऋ":{"ha":1161,"x_min":-14,"x_max":1175,"o":"m 635 801 l 635 492 l 824 492 l 824 663 l 946 663 l 946 481 q 1064 357 1022 417 q 1106 228 1106 297 q 1026 58 1106 115 q 822 0 947 0 l 781 0 l 781 99 l 822 99 q 939 131 894 99 q 983 228 983 163 q 955 317 983 276 q 869 394 926 357 l 635 394 l 635 0 l 513 0 l 513 303 l 151 -8 l 79 72 l 508 440 q 394 523 446 500 q 279 546 343 546 q 197 536 246 546 q 79 508 149 526 l 79 615 q 283 651 214 651 q 402 630 350 651 q 513 557 454 608 l 513 801 l -14 801 l -14 899 l 1175 899 l 1175 801 l 635 801 z "},"ॠ":{"ha":1143,"x_min":-14,"x_max":1196,"o":"m 1049 -190 q 1196 -149 1128 -190 l 1196 -251 q 1040 -283 1133 -283 q 873 -244 928 -283 q 818 -122 818 -206 q 871 -7 818 -47 q 783 122 783 28 q 807 209 783 175 q 885 260 831 243 l 815 394 l 635 394 l 635 0 l 513 0 l 513 303 l 151 -8 l 79 72 l 508 440 q 394 523 446 500 q 279 546 343 546 q 197 536 246 546 q 79 508 149 526 l 79 615 q 283 651 214 651 q 402 630 350 651 q 513 557 454 608 l 513 801 l -14 801 l -14 899 l 1157 899 l 1157 801 l 635 801 l 635 492 l 796 492 l 796 663 l 918 663 l 918 433 l 1000 272 q 1071 265 1039 272 l 1071 172 q 993 179 1039 179 q 925 163 944 179 q 906 114 906 146 q 929 65 906 81 q 1018 49 953 49 l 1099 49 l 1099 -29 l 1081 -29 l 1081 -46 l 1025 -46 q 940 -117 940 -46 q 967 -174 940 -157 q 1049 -190 994 -190 z "},"ऌ":{"ha":1058,"x_min":-14,"x_max":1092,"o":"m 814 801 l 814 592 q 944 524 899 578 q 990 396 990 471 q 955 267 990 321 q 856 150 919 213 q 792 82 813 108 q 772 26 772 56 q 799 -29 772 -8 q 881 -50 825 -50 q 969 -34 922 -50 q 1047 3 1015 -18 l 1047 -103 q 872 -149 978 -149 q 708 -101 765 -149 q 650 21 650 -53 q 678 114 650 74 q 761 207 707 154 q 843 301 817 263 q 869 389 869 339 q 838 471 869 443 q 749 499 807 499 q 644 453 679 499 q 608 319 610 407 l 608 275 l 488 275 l 488 319 q 349 499 483 499 q 207 319 211 499 q 258 160 210 221 q 431 99 306 99 l 465 99 l 465 0 l 431 0 q 167 92 247 0 q 86 319 86 185 q 151 522 86 446 q 339 597 215 597 q 547 490 488 597 q 692 592 594 571 l 692 801 l -14 801 l -14 899 l 1092 899 l 1092 801 l 814 801 z "},"ॡ":{"ha":1078,"x_min":-14,"x_max":1092,"o":"m 814 801 l 814 592 q 944 524 899 578 q 990 396 990 471 q 955 267 990 321 q 856 150 919 213 q 792 82 813 108 q 772 26 772 56 q 799 -29 772 -8 q 881 -50 825 -50 q 963 -37 915 -50 l 963 -139 q 878 -149 926 -149 q 843 -147 854 -149 q 810 -222 810 -175 q 836 -279 810 -262 q 915 -296 863 -296 q 989 -286 956 -296 q 1057 -254 1022 -276 l 1057 -357 q 901 -389 992 -389 q 740 -350 793 -389 q 688 -231 688 -311 q 735 -117 688 -158 q 671 -56 692 -93 q 650 24 650 -19 q 679 115 651 75 q 761 208 707 156 q 842 300 815 261 q 869 389 869 339 q 838 471 869 443 q 749 499 807 499 q 644 453 679 499 q 608 319 610 407 l 608 275 l 488 275 l 488 319 q 349 499 483 499 q 207 319 211 499 q 258 160 210 221 q 431 99 306 99 l 465 99 l 465 0 l 431 0 q 167 92 247 0 q 86 319 86 185 q 151 522 86 446 q 339 597 215 597 q 547 490 488 597 q 692 592 594 571 l 692 801 l -14 801 l -14 899 l 1092 899 l 1092 801 l 814 801 z "},"ऍ":{"ha":814,"x_min":-14,"x_max":828,"o":"m 0 38 m 828 801 l 694 801 l 694 554 q 638 381 694 431 q 458 332 581 332 l 418 332 l 418 429 l 458 429 q 524 440 500 431 q 560 475 547 449 q 574 554 574 501 l 574 801 l 265 801 l 265 400 q 306 220 265 278 q 406 149 346 163 q 568 135 467 135 l 690 135 l 690 38 l 568 38 q 340 64 431 38 q 197 169 250 90 q 143 400 143 249 l 143 801 l -14 801 l -14 899 l 828 899 l 828 801 m 415 986 q 213 1044 282 986 q 143 1211 143 1101 l 143 1231 l 251 1231 l 251 1211 q 415 1085 251 1085 q 579 1211 579 1085 l 579 1231 l 688 1231 l 688 1211 q 618 1044 688 1101 q 415 986 549 986 z "},"ऎ":{"ha":814,"x_min":-103,"x_max":828,"o":"m 828 801 l 694 801 l 694 554 q 638 381 694 431 q 458 332 581 332 l 418 332 l 418 429 l 458 429 q 524 440 500 431 q 560 475 547 449 q 574 554 574 501 l 574 801 l 265 801 l 265 400 q 306 220 265 278 q 406 149 346 163 q 568 135 467 135 l 690 135 l 690 38 l 568 38 q 340 64 431 38 q 197 169 250 90 q 143 400 143 249 l 143 801 l -14 801 l -14 899 l 578 899 l 578 954 q 565 1040 578 1010 q 519 1086 553 1071 q 418 1101 485 1101 l 186 1101 q 10 1128 72 1101 q -78 1208 -53 1154 q -103 1351 -103 1261 l -103 1381 l 19 1381 l 19 1351 q 31 1261 19 1292 q 77 1215 42 1231 q 186 1200 113 1200 l 418 1200 q 598 1174 538 1200 q 679 1097 658 1149 q 700 954 700 1046 l 700 899 l 828 899 l 828 801 z "},"ए":{"ha":814,"x_min":-14,"x_max":828,"o":"m 828 801 l 694 801 l 694 554 q 638 381 694 431 q 458 332 581 332 l 418 332 l 418 429 l 458 429 q 524 440 500 431 q 560 475 547 449 q 574 554 574 501 l 574 801 l 265 801 l 265 400 q 306 220 265 278 q 406 149 346 163 q 568 135 467 135 l 690 135 l 690 38 l 568 38 q 340 64 431 38 q 197 169 250 90 q 143 400 143 249 l 143 801 l -14 801 l -14 899 l 828 899 l 828 801 z "},"ऐ":{"ha":814,"x_min":-14,"x_max":828,"o":"m 828 801 l 694 801 l 694 554 q 638 381 694 431 q 458 332 581 332 l 418 332 l 418 429 l 458 429 q 524 440 500 431 q 560 475 547 449 q 574 554 574 501 l 574 801 l 265 801 l 265 400 q 306 220 265 278 q 406 149 346 163 q 568 135 467 135 l 690 135 l 690 38 l 568 38 q 340 64 431 38 q 197 169 250 90 q 143 400 143 249 l 143 801 l -14 801 l -14 899 l 576 899 l 536 1076 q 489 1169 521 1144 q 389 1193 457 1193 l 275 1193 l 275 1292 l 389 1292 q 522 1276 472 1292 q 603 1214 571 1260 q 657 1076 636 1168 l 699 899 l 828 899 l 828 801 z "},"ऑ":{"ha":1407,"x_min":63,"x_max":1478,"o":"m 63 0 m 1421 801 l 1268 801 l 1268 0 l 1146 0 l 1146 801 l 1021 801 l 868 801 l 868 0 l 747 0 l 747 321 l 494 321 q 496 299 496 314 q 397 113 496 169 q 143 56 297 56 l 63 56 l 63 154 l 143 154 q 309 187 243 154 q 375 308 375 219 q 333 404 375 372 q 197 436 290 436 l 126 436 l 126 535 l 199 535 q 331 574 288 535 q 375 676 375 613 q 328 774 375 746 q 185 801 281 801 l 106 801 l 106 899 l 185 899 q 419 850 343 899 q 496 688 496 801 q 465 570 496 619 q 369 489 433 521 q 463 419 429 469 l 747 419 l 747 801 l 579 801 l 579 899 l 1021 899 l 1421 899 l 1421 801 m 1206 1004 q 1003 1062 1072 1004 q 933 1229 933 1119 l 933 1249 l 1042 1249 l 1042 1229 q 1206 1103 1042 1103 q 1369 1229 1369 1103 l 1369 1249 l 1478 1249 l 1478 1229 q 1408 1062 1478 1119 q 1206 1004 1339 1004 z "},"ऒ":{"ha":1407,"x_min":63,"x_max":1421,"o":"m 1421 801 l 1268 801 l 1268 0 l 1146 0 l 1146 801 l 1021 801 l 868 801 l 868 0 l 747 0 l 747 321 l 494 321 q 496 299 496 314 q 397 113 496 169 q 143 56 297 56 l 63 56 l 63 154 l 143 154 q 309 187 243 154 q 375 308 375 219 q 333 404 375 372 q 197 436 290 436 l 126 436 l 126 535 l 199 535 q 331 574 288 535 q 375 676 375 613 q 328 774 375 746 q 185 801 281 801 l 106 801 l 106 899 l 185 899 q 419 850 343 899 q 496 688 496 801 q 465 570 496 619 q 369 489 433 521 q 463 419 429 469 l 747 419 l 747 801 l 579 801 l 579 899 l 1021 899 l 1146 899 l 1146 954 q 1133 1040 1146 1010 q 1087 1086 1121 1071 q 986 1101 1053 1101 l 754 1101 q 578 1128 640 1101 q 490 1208 515 1154 q 465 1351 465 1261 l 465 1381 l 588 1381 l 588 1351 q 599 1261 588 1292 q 645 1215 610 1231 q 754 1200 681 1200 l 986 1200 q 1166 1174 1106 1200 q 1247 1097 1226 1149 q 1268 954 1268 1046 l 1268 899 l 1421 899 l 1421 801 z "},"ओ":{"ha":1407,"x_min":63,"x_max":1421,"o":"m 1421 801 l 1268 801 l 1268 0 l 1146 0 l 1146 801 l 1021 801 l 868 801 l 868 0 l 747 0 l 747 321 l 494 321 q 496 299 496 314 q 397 113 496 169 q 143 56 297 56 l 63 56 l 63 154 l 143 154 q 309 187 243 154 q 375 308 375 219 q 333 404 375 372 q 197 436 290 436 l 126 436 l 126 535 l 199 535 q 331 574 288 535 q 375 676 375 613 q 328 774 375 746 q 185 801 281 801 l 106 801 l 106 899 l 185 899 q 419 850 343 899 q 496 688 496 801 q 465 570 496 619 q 369 489 433 521 q 463 419 429 469 l 747 419 l 747 801 l 579 801 l 579 899 l 1021 899 l 1144 899 l 1104 1076 q 1057 1169 1089 1144 q 957 1193 1025 1193 l 843 1193 l 843 1292 l 957 1292 q 1090 1276 1040 1292 q 1172 1214 1139 1260 q 1225 1076 1204 1168 l 1267 899 l 1421 899 l 1421 801 z "},"औ":{"ha":1407,"x_min":63,"x_max":1421,"o":"m 1421 801 l 1268 801 l 1268 0 l 1146 0 l 1146 801 l 1021 801 l 868 801 l 868 0 l 747 0 l 747 321 l 494 321 q 496 299 496 314 q 397 113 496 169 q 143 56 297 56 l 63 56 l 63 154 l 143 154 q 309 187 243 154 q 375 308 375 219 q 333 404 375 372 q 197 436 290 436 l 126 436 l 126 535 l 199 535 q 331 574 288 535 q 375 676 375 613 q 328 774 375 746 q 185 801 281 801 l 106 801 l 106 899 l 185 899 q 419 850 343 899 q 496 688 496 801 q 465 570 496 619 q 369 489 433 521 q 463 419 429 469 l 747 419 l 747 801 l 579 801 l 579 899 l 1021 899 l 1136 899 l 1064 989 q 969 1070 1018 1047 q 821 1093 919 1093 l 693 1093 l 693 1190 l 821 1190 q 957 1178 906 1190 q 1044 1139 1008 1167 q 1122 1058 1081 1111 l 1090 1199 q 1041 1283 1076 1261 q 932 1306 1006 1306 l 818 1306 l 818 1404 l 932 1404 q 1064 1389 1014 1404 q 1147 1329 1114 1374 q 1199 1199 1179 1285 l 1267 899 l 1421 899 l 1421 801 z "},"ॳ":{"ha":1007,"x_min":63,"x_max":1021,"o":"m 1021 899 l 1021 801 l 868 801 l 868 0 l 747 0 l 747 321 l 494 321 q 496 299 496 314 q 397 113 496 169 q 143 56 297 56 l 63 56 l 63 154 l 143 154 q 309 187 243 154 q 375 308 375 219 q 333 404 375 372 q 197 436 290 436 l 126 436 l 126 535 l 199 535 q 331 574 288 535 q 375 676 375 613 q 328 774 375 746 q 185 801 281 801 l 106 801 l 106 899 l 185 899 q 419 850 343 899 q 496 688 496 801 q 465 570 496 619 q 369 489 433 521 q 463 419 429 469 l 747 419 l 747 801 l 579 801 l 579 899 l 749 899 l 749 1254 l 867 1254 l 867 899 l 1021 899 z "},"ॴ":{"ha":1407,"x_min":63,"x_max":1421,"o":"m 1421 801 l 1268 801 l 1268 0 l 1146 0 l 1146 801 l 1021 801 l 868 801 l 868 0 l 747 0 l 747 321 l 494 321 q 496 299 496 314 q 397 113 496 169 q 143 56 297 56 l 63 56 l 63 154 l 143 154 q 309 187 243 154 q 375 308 375 219 q 333 404 375 372 q 197 436 290 436 l 126 436 l 126 535 l 199 535 q 331 574 288 535 q 375 676 375 613 q 328 774 375 746 q 185 801 281 801 l 106 801 l 106 899 l 185 899 q 419 850 343 899 q 496 688 496 801 q 465 570 496 619 q 369 489 433 521 q 463 419 429 469 l 747 419 l 747 801 l 579 801 l 579 899 l 1021 899 l 1146 899 l 1146 1254 l 1268 1254 l 1268 899 l 1421 899 l 1421 801 z "},"ॶ":{"ha":1007,"x_min":63,"x_max":1021,"o":"m 63 0 m 1021 899 l 1021 801 l 868 801 l 868 0 l 747 0 l 747 321 l 494 321 q 496 299 496 314 q 397 113 496 169 q 143 56 297 56 l 63 56 l 63 154 l 143 154 q 309 187 243 154 q 375 308 375 219 q 333 404 375 372 q 197 436 290 436 l 126 436 l 126 535 l 199 535 q 331 574 288 535 q 375 676 375 613 q 328 774 375 746 q 185 801 281 801 l 106 801 l 106 899 l 185 899 q 419 850 343 899 q 496 688 496 801 q 465 570 496 619 q 369 489 433 521 q 463 419 429 469 l 747 419 l 747 801 l 579 801 l 579 899 l 1021 899 m 603 -282 q 415 -237 497 -282 q 288 -121 333 -193 l 363 -61 q 603 -185 458 -183 q 843 -61 747 -183 l 918 -121 q 790 -237 872 -193 q 603 -282 708 -282 z "},"ॷ":{"ha":1007,"x_min":63,"x_max":1021,"o":"m 63 0 m 1021 899 l 1021 801 l 868 801 l 868 0 l 747 0 l 747 321 l 494 321 q 496 299 496 314 q 397 113 496 169 q 143 56 297 56 l 63 56 l 63 154 l 143 154 q 309 187 243 154 q 375 308 375 219 q 333 404 375 372 q 197 436 290 436 l 126 436 l 126 535 l 199 535 q 331 574 288 535 q 375 676 375 613 q 328 774 375 746 q 185 801 281 801 l 106 801 l 106 899 l 185 899 q 419 850 343 899 q 496 688 496 801 q 465 570 496 619 q 369 489 433 521 q 463 419 429 469 l 747 419 l 747 801 l 579 801 l 579 899 l 1021 899 m 603 -282 q 415 -237 497 -282 q 288 -121 333 -193 l 363 -61 q 603 -185 458 -183 q 843 -61 747 -183 l 918 -121 q 790 -237 872 -193 q 603 -282 708 -282 m 603 -518 q 415 -474 497 -518 q 288 -357 333 -429 l 363 -297 q 603 -421 458 -419 q 843 -297 747 -419 l 918 -357 q 790 -474 872 -429 q 603 -518 708 -518 z "},"ा":{"ha":399,"x_min":-14,"x_max":413,"o":"m 413 801 l 260 801 l 260 0 l 139 0 l 139 801 l -14 801 l -14 899 l 413 899 l 413 801 z "},"ि":{"ha":399,"x_min":-14,"x_max":1022,"o":"m 601 1300 q 842 1268 750 1300 q 977 1163 933 1236 q 1022 965 1021 1090 l 1022 844 l 900 844 l 900 965 q 865 1119 900 1068 q 769 1187 831 1171 q 601 1203 707 1203 l 560 1203 q 392 1187 454 1203 q 296 1119 331 1171 q 261 965 261 1068 l 261 899 l 414 899 l 414 801 l 261 801 l 261 0 l 140 0 l 140 801 l -14 801 l -14 899 l 140 899 l 140 965 q 184 1163 140 1090 q 319 1268 228 1236 q 560 1300 410 1300 l 601 1300 z "},"ी":{"ha":399,"x_min":-260,"x_max":413,"o":"m 413 801 l 260 801 l 260 0 l 139 0 l 139 801 l -14 801 l -14 899 l 139 899 l 139 1011 q 125 1135 139 1093 q 85 1190 111 1176 q 14 1203 58 1203 l -14 1203 q -85 1190 -58 1203 q -125 1135 -111 1176 q -139 1011 -139 1093 l -139 844 l -260 844 l -260 1017 q -235 1185 -260 1124 q -156 1273 -210 1246 q -14 1300 -103 1300 l 14 1300 q 156 1273 103 1300 q 234 1184 208 1246 q 260 1017 260 1122 l 260 899 l 413 899 l 413 801 z "},"ॉ":{"ha":399,"x_min":-74,"x_max":471,"o":"m 0 0 m 413 801 l 260 801 l 260 0 l 139 0 l 139 801 l -14 801 l -14 899 l 413 899 l 413 801 m 199 1004 q -4 1062 65 1004 q -74 1229 -74 1119 l -74 1249 l 35 1249 l 35 1229 q 199 1103 35 1103 q 363 1229 363 1103 l 363 1249 l 471 1249 l 471 1229 q 401 1062 471 1119 q 199 1004 332 1004 z "},"ॊ":{"ha":399,"x_min":-542,"x_max":413,"o":"m 413 801 l 260 801 l 260 0 l 139 0 l 139 801 l -14 801 l -14 899 l 139 899 l 139 954 q 126 1040 139 1010 q 80 1086 114 1071 q -21 1101 46 1101 l -253 1101 q -429 1128 -367 1101 q -517 1208 -492 1154 q -542 1351 -542 1261 l -542 1381 l -421 1381 l -421 1351 q -410 1261 -421 1292 q -362 1215 -399 1231 q -253 1200 -326 1200 l -21 1200 q 158 1174 99 1200 q 239 1097 218 1149 q 260 954 260 1046 l 260 899 l 413 899 l 413 801 z "},"ो":{"ha":399,"x_min":-164,"x_max":413,"o":"m 413 801 l 260 801 l 260 0 l 139 0 l 139 801 l -14 801 l -14 899 l 138 899 l 97 1076 q 50 1169 82 1144 q -50 1193 18 1193 l -164 1193 l -164 1292 l -50 1292 q 82 1276 32 1292 q 165 1214 132 1260 q 218 1076 197 1168 l 258 899 l 413 899 l 413 801 z "},"ौ":{"ha":399,"x_min":-314,"x_max":413,"o":"m 413 801 l 260 801 l 260 0 l 139 0 l 139 801 l -14 801 l -14 899 l 129 899 l 57 989 q -40 1070 10 1047 q -186 1093 -89 1093 l -314 1093 l -314 1190 l -186 1190 q -50 1178 -101 1190 q 37 1138 1 1165 q 115 1057 72 1111 l 83 1199 q 34 1283 69 1261 q -75 1306 -1 1306 l -189 1306 l -189 1404 l -75 1404 q 56 1389 7 1404 q 138 1329 106 1374 q 190 1199 171 1285 l 258 899 l 413 899 l 413 801 z "},"ॎ":{"ha":374,"x_min":114,"x_max":388,"o":"m 388 801 l 235 801 l 235 0 l 114 0 l 114 899 l 388 899 l 388 801 z "},"ऻ":{"ha":399,"x_min":-14,"x_max":413,"o":"m 413 801 l 260 801 l 260 0 l 139 0 l 139 801 l -14 801 l -14 899 l 139 899 l 139 1254 l 260 1254 l 260 899 l 413 899 l 413 801 z "},"क":{"ha":1124,"x_min":-14,"x_max":1138,"o":"m 622 801 l 622 578 q 785 614 693 614 l 804 614 q 1008 565 943 614 q 1072 392 1072 515 q 1008 220 1072 271 q 808 169 944 169 l 792 169 q 747 172 771 169 q 708 176 724 174 l 708 274 q 786 267 747 267 l 803 267 q 915 293 878 267 q 951 392 951 319 q 934 470 951 443 q 883 506 917 497 q 794 517 850 515 l 775 517 q 695 508 732 517 q 622 479 658 500 l 622 0 l 501 0 l 501 206 q 339 169 432 169 l 321 169 q 117 219 182 169 q 51 392 51 268 q 116 563 51 513 q 317 614 181 614 l 333 614 q 378 612 354 614 q 417 607 401 610 l 417 510 q 339 517 378 517 l 322 517 q 210 490 247 517 q 174 392 174 464 q 191 313 174 340 q 242 277 208 286 q 331 267 275 268 l 349 267 q 428 275 392 267 q 501 304 465 283 l 501 801 l -14 801 l -14 899 l 1138 899 l 1138 801 l 622 801 z "},"ख":{"ha":1194,"x_min":-14,"x_max":1208,"o":"m 1208 801 l 1056 801 l 1056 0 l 935 0 l 935 247 q 806 225 879 225 l 781 225 q 557 419 557 225 q 613 565 557 517 q 757 614 669 614 l 774 614 q 850 608 817 614 l 850 511 q 788 517 803 517 l 771 517 q 678 419 678 517 q 706 342 678 361 q 797 322 735 322 l 819 322 q 935 344 881 322 l 935 801 l 499 801 l 499 549 q 433 386 499 432 q 229 340 368 340 l 221 340 l 221 271 q 265 136 221 174 q 415 99 308 99 l 644 99 l 644 0 l 415 0 q 181 58 263 0 q 99 271 99 115 l 99 596 l 221 596 l 221 438 l 229 438 q 342 459 307 438 q 376 549 376 481 l 376 801 l -14 801 l -14 899 l 1208 899 l 1208 801 z "},"ग":{"ha":861,"x_min":-14,"x_max":875,"o":"m 875 801 l 722 801 l 722 0 l 601 0 l 601 801 l 361 801 l 363 417 q 328 296 363 338 q 228 254 294 254 q 124 288 167 254 q 50 392 81 321 l 143 440 q 178 375 161 397 q 214 353 194 353 q 236 367 231 353 q 242 417 242 382 l 240 801 l -14 801 l -14 899 l 875 899 l 875 801 z "},"घ":{"ha":839,"x_min":-14,"x_max":853,"o":"m 853 899 l 853 801 l 700 801 l 700 0 l 579 0 l 579 199 q 414 165 504 165 l 389 165 q 192 213 256 165 q 129 376 129 261 q 204 543 129 496 q 110 603 140 563 q 79 711 79 643 q 96 801 79 763 l -14 801 l -14 899 l 853 899 m 424 263 q 579 303 514 263 l 579 801 l 222 801 q 200 719 200 774 q 248 624 201 647 q 399 601 294 601 l 438 601 l 438 582 l 449 582 l 449 503 l 399 503 q 286 478 322 503 q 250 383 250 454 q 267 306 250 332 q 315 272 285 281 q 399 263 346 264 l 424 263 z "},"ङ":{"ha":839,"x_min":-14,"x_max":853,"o":"m 853 899 l 853 801 l 561 801 l 561 597 l 556 597 l 556 550 l 304 550 q 228 533 253 550 q 203 474 203 517 q 213 426 203 447 q 238 396 222 406 l 401 396 q 588 347 524 396 q 653 197 653 299 q 588 40 653 93 q 404 -12 522 -12 l 386 -12 q 194 12 278 -12 q 35 85 111 36 l 82 178 q 226 108 157 131 q 381 86 296 86 l 400 86 q 496 111 461 86 q 531 186 531 136 q 499 272 531 246 q 401 297 467 297 l 175 297 q 111 373 142 322 q 81 481 81 424 q 135 609 81 571 q 304 647 189 647 l 440 647 l 440 801 l -14 801 l -14 899 l 853 899 m 724 547 l 818 453 l 724 358 l 628 453 l 724 547 z "},"च":{"ha":860,"x_min":-14,"x_max":874,"o":"m 874 899 l 874 801 l 721 801 l 721 0 l 600 0 l 600 185 q 447 156 536 156 l 417 156 q 210 207 281 156 q 139 378 139 258 q 192 532 139 476 l 43 532 l 43 629 l 489 629 l 489 532 l 331 532 q 278 477 296 511 q 260 386 260 443 q 302 280 260 307 q 432 253 344 253 l 457 253 q 600 286 535 253 l 600 801 l -14 801 l -14 899 l 874 899 z "},"छ":{"ha":1011,"x_min":-14,"x_max":1025,"o":"m 854 801 l 854 701 q 910 581 910 669 l 910 404 q 798 111 910 199 q 507 24 686 24 l 486 24 q 226 83 326 24 q 125 275 125 142 q 225 475 125 426 q 125 539 156 496 q 94 653 94 582 q 109 738 94 701 q 154 801 124 774 l -14 801 l -14 899 l 1025 899 l 1025 801 l 854 801 m 732 801 l 331 801 q 246 748 276 781 q 215 658 215 715 q 263 560 217 588 q 415 533 310 533 l 457 533 l 457 436 l 428 436 q 291 402 335 436 q 247 281 247 368 q 315 156 247 192 q 488 121 383 121 l 507 121 q 788 404 788 124 l 788 576 q 778 613 788 603 q 744 624 769 624 q 711 613 721 624 q 701 576 701 601 l 701 435 l 590 435 l 590 581 q 623 681 590 647 q 732 721 656 715 l 732 801 z "},"ज":{"ha":936,"x_min":-14,"x_max":950,"o":"m 950 899 l 950 801 l 797 801 l 797 0 l 675 0 l 675 503 l 538 503 l 538 406 q 486 209 538 271 q 303 147 435 147 q 125 210 179 147 q 71 406 71 274 l 71 600 l 188 600 l 188 399 q 213 283 188 321 q 303 246 239 246 q 394 282 371 246 q 417 399 417 318 l 417 600 l 675 600 l 675 801 l -14 801 l -14 899 l 950 899 z "},"झ":{"ha":1079,"x_min":-14,"x_max":1093,"o":"m 1093 801 l 940 801 l 940 0 l 818 0 l 818 256 l 631 256 l 631 236 q 569 81 631 133 q 396 28 508 28 l 379 28 q 204 58 283 28 l 204 -67 l 92 -67 l 92 260 l 204 260 l 204 160 q 374 125 281 125 l 392 125 q 478 151 447 125 q 510 229 510 176 q 481 312 510 286 q 394 338 451 338 l 181 338 q 117 413 147 363 q 88 521 88 463 q 142 649 88 611 q 311 688 196 688 l 413 688 l 413 801 l -14 801 l -14 899 l 1093 899 l 1093 801 m 818 801 l 533 801 l 533 589 l 311 589 q 233 573 258 589 q 208 514 208 557 q 218 467 208 488 q 243 435 228 446 l 394 435 q 600 353 546 435 l 818 353 l 818 801 z "},"ञ":{"ha":815,"x_min":-14,"x_max":829,"o":"m 829 899 l 829 801 l 676 801 l 676 0 l 556 0 l 556 351 l 417 351 q 335 189 406 239 q 131 139 265 139 l 53 139 l 53 236 l 131 236 q 256 272 215 236 q 297 397 297 307 q 258 525 297 492 q 131 558 218 558 l 53 558 l 53 656 l 131 656 q 335 608 265 656 q 417 449 404 561 l 556 449 l 556 801 l -14 801 l -14 899 l 829 899 z "},"ट":{"ha":717,"x_min":-14,"x_max":731,"o":"m 371 554 q 267 537 307 554 q 206 473 228 519 q 185 340 185 426 q 204 208 185 254 q 260 144 224 161 q 357 126 297 126 l 383 126 q 511 164 472 126 q 550 301 550 201 l 550 343 l 672 343 l 672 301 q 603 94 672 158 q 383 29 533 29 l 357 29 q 134 100 206 29 q 63 340 63 171 q 138 581 63 511 q 371 651 213 651 l 456 651 l 456 801 l -14 801 l -14 899 l 731 899 l 731 801 l 578 801 l 578 554 l 371 554 z "},"ठ":{"ha":761,"x_min":-14,"x_max":775,"o":"m 622 751 q 563 615 622 660 q 651 514 622 581 q 681 340 681 447 q 610 99 681 169 q 388 29 540 29 l 367 29 q 144 100 215 29 q 72 340 72 171 q 147 582 72 511 q 381 653 222 653 q 474 674 446 653 q 501 751 501 696 l 501 801 l -14 801 l -14 899 l 775 899 l 775 801 l 622 801 l 622 751 m 388 126 q 485 144 449 126 q 541 208 522 161 q 560 340 560 254 q 515 509 560 464 q 381 554 471 554 q 276 537 317 554 q 215 473 236 519 q 193 340 193 426 q 213 208 193 254 q 272 144 233 161 q 375 126 311 126 l 388 126 z "},"ड":{"ha":710,"x_min":-14,"x_max":724,"o":"m 304 550 q 228 533 253 550 q 203 474 203 517 q 213 426 203 447 q 238 396 222 406 l 401 396 q 588 347 524 396 q 653 197 653 299 q 588 40 653 93 q 404 -12 522 -12 l 386 -12 q 194 12 278 -12 q 35 85 111 36 l 82 178 q 226 108 157 131 q 381 86 296 86 l 400 86 q 496 111 461 86 q 531 186 531 136 q 499 272 531 246 q 401 297 467 297 l 175 297 q 111 373 142 322 q 81 481 81 424 q 135 609 81 571 q 304 647 189 647 l 440 647 l 440 801 l -14 801 l -14 899 l 724 899 l 724 801 l 561 801 l 561 597 l 556 597 l 556 550 l 304 550 z "},"ढ":{"ha":717,"x_min":-14,"x_max":731,"o":"m 371 554 q 267 537 307 554 q 206 473 228 519 q 185 340 185 426 q 204 208 185 254 q 260 144 224 161 q 357 126 297 126 l 383 126 q 510 153 469 126 q 550 242 550 179 l 550 286 q 537 328 550 315 q 496 340 524 340 q 455 328 468 340 q 442 285 442 315 l 442 224 l 329 224 l 329 294 q 370 399 329 365 q 503 433 411 433 q 632 395 592 433 q 672 285 672 357 l 672 243 q 601 81 671 133 q 383 29 531 29 l 357 29 q 134 100 206 29 q 63 340 63 171 q 138 581 63 511 q 371 651 213 651 l 456 651 l 456 801 l -14 801 l -14 899 l 731 899 l 731 801 l 578 801 l 578 554 l 371 554 z "},"ण":{"ha":999,"x_min":-14,"x_max":1013,"o":"m 1013 899 l 1013 801 l 860 801 l 860 0 l 738 0 l 738 801 l 568 801 l 568 525 q 515 344 568 396 q 349 292 463 292 q 183 344 236 292 q 129 525 129 396 l 129 801 l -14 801 l -14 899 l 1013 899 m 447 801 l 251 801 l 251 521 q 275 418 251 447 q 349 389 299 389 q 423 418 399 389 q 447 521 447 447 l 447 801 z "},"त":{"ha":796,"x_min":-14,"x_max":810,"o":"m 810 899 l 810 801 l 657 801 l 657 0 l 535 0 l 535 526 l 324 526 q 251 509 278 526 q 209 446 224 492 q 193 315 194 400 q 230 144 194 190 q 338 99 265 99 l 360 99 l 360 0 l 338 0 q 138 74 204 0 q 72 315 72 147 q 133 554 72 483 q 324 625 193 625 l 535 625 l 535 801 l -14 801 l -14 899 l 810 899 z "},"थ":{"ha":856,"x_min":71,"x_max":869,"o":"m 869 899 l 869 801 l 717 801 l 717 0 l 596 0 l 596 249 q 399 199 507 199 q 210 249 279 199 q 93 429 140 299 q 217 488 176 463 q 278 555 257 513 q 299 674 299 597 l 299 726 q 287 800 299 781 q 242 819 275 819 q 196 799 208 819 q 183 726 183 779 l 183 656 l 71 656 l 71 726 q 111 865 71 818 q 242 913 151 913 q 372 867 332 913 q 411 726 411 821 l 411 674 q 391 536 411 589 q 335 450 371 483 q 235 382 299 417 q 303 314 263 332 q 406 296 344 296 q 596 354 503 296 l 596 801 l 485 801 l 485 899 l 869 899 z "},"द":{"ha":725,"x_min":-14,"x_max":739,"o":"m 408 574 q 288 558 333 574 q 217 501 242 543 q 193 382 193 460 q 239 231 193 271 q 382 192 285 192 l 401 192 q 499 206 451 192 l 499 325 l 619 325 l 619 -21 l 499 -21 l 499 108 q 389 93 449 93 l 369 93 q 146 159 219 93 q 72 381 72 225 q 154 606 72 540 q 408 671 236 671 l 465 671 l 465 801 l -14 801 l -14 899 l 739 899 l 739 801 l 586 801 l 586 574 l 408 574 z "},"ध":{"ha":863,"x_min":75,"x_max":876,"o":"m 876 899 l 876 801 l 724 801 l 724 0 l 603 0 l 603 168 q 426 138 531 138 l 406 138 q 197 187 265 138 q 129 356 129 236 q 149 458 129 417 q 210 526 168 500 q 108 595 140 550 q 75 715 75 640 q 141 871 75 825 q 347 917 207 917 l 364 917 q 407 914 388 917 l 407 817 l 364 819 l 347 819 q 232 796 268 819 q 196 704 196 772 q 247 610 197 633 q 408 588 296 588 l 460 588 l 460 485 l 413 485 q 291 458 331 485 q 251 360 251 431 q 290 261 251 286 q 413 235 328 236 l 438 235 q 603 271 539 235 l 603 801 l 488 801 l 488 899 l 876 899 z "},"न":{"ha":782,"x_min":-14,"x_max":796,"o":"m 796 899 l 796 801 l 643 801 l 643 0 l 522 0 l 522 465 l 238 465 q 194 458 207 465 q 182 428 182 450 q 254 356 182 388 l 206 268 q 99 339 132 299 q 65 439 65 379 q 228 564 65 564 l 522 564 l 522 801 l -14 801 l -14 899 l 796 899 z "},"ऩ":{"ha":782,"x_min":-14,"x_max":796,"o":"m 0 0 m 796 899 l 796 801 l 643 801 l 643 0 l 522 0 l 522 465 l 238 465 q 194 458 207 465 q 182 428 182 450 q 254 356 182 388 l 206 268 q 99 339 132 299 q 65 439 65 379 q 228 564 65 564 l 522 564 l 522 801 l -14 801 l -14 899 l 796 899 m 222 0 l 317 94 l 413 0 l 317 -93 l 222 0 z "},"प":{"ha":781,"x_min":-14,"x_max":794,"o":"m 794 899 l 794 801 l 642 801 l 642 0 l 519 0 l 519 322 q 361 279 450 279 q 173 335 235 279 q 111 531 111 390 l 111 801 l -14 801 l -14 899 l 794 899 m 375 376 q 519 426 454 376 l 519 801 l 232 801 l 232 531 q 264 411 232 446 q 375 376 296 376 z "},"फ":{"ha":1133,"x_min":-14,"x_max":1147,"o":"m 632 801 l 632 578 q 794 614 703 614 l 814 614 q 1017 565 953 614 q 1082 392 1082 515 q 1018 220 1082 271 q 817 169 954 169 l 800 169 q 756 172 779 169 q 717 176 732 174 l 717 274 q 794 267 756 267 l 811 267 q 924 293 888 267 q 961 392 961 319 q 944 470 961 443 q 893 506 926 497 q 803 517 860 515 l 785 517 q 705 508 742 517 q 632 479 668 500 l 632 0 l 511 0 l 511 321 q 351 279 440 279 q 171 335 231 279 q 111 531 111 392 l 111 801 l -14 801 l -14 899 l 1147 899 l 1147 801 l 632 801 m 367 376 q 447 390 413 376 q 511 425 481 403 l 511 801 l 232 801 l 232 531 q 262 411 232 446 q 367 376 292 376 z "},"ब":{"ha":761,"x_min":-14,"x_max":775,"o":"m 775 899 l 775 801 l 622 801 l 622 0 l 501 0 l 501 206 q 339 169 432 169 l 321 169 q 117 219 182 169 q 51 392 51 268 q 116 563 51 513 q 317 614 181 614 l 333 614 q 378 612 354 614 q 417 607 401 610 l 417 510 q 339 517 378 517 l 322 517 q 274 514 304 517 l 471 289 l 501 304 l 501 801 l -14 801 l -14 899 l 775 899 m 349 267 q 389 269 364 267 l 201 482 q 174 392 174 454 q 191 313 174 340 q 242 277 208 286 q 331 267 275 268 l 349 267 z "},"भ":{"ha":924,"x_min":43,"x_max":938,"o":"m 938 899 l 938 801 l 785 801 l 785 0 l 664 0 l 664 349 l 365 349 l 365 224 l 244 224 l 244 764 q 235 807 244 794 q 200 819 226 819 q 165 806 175 819 q 154 764 154 793 l 154 692 l 43 692 l 43 764 q 81 875 43 838 q 204 913 119 913 q 328 875 290 913 q 365 764 365 838 l 365 447 l 664 447 l 664 801 l 521 801 l 521 899 l 938 899 z "},"म":{"ha":804,"x_min":-14,"x_max":818,"o":"m 818 899 l 818 801 l 665 801 l 665 0 l 544 0 l 544 369 l 246 369 l 246 243 l 125 243 l 125 801 l -14 801 l -14 899 l 818 899 m 544 467 l 544 801 l 246 801 l 246 467 l 544 467 z "},"य":{"ha":829,"x_min":-14,"x_max":843,"o":"m 843 899 l 843 801 l 690 801 l 690 0 l 568 0 l 568 261 q 476 228 524 239 q 390 218 428 218 q 249 238 306 218 q 148 307 192 257 q 69 449 104 357 q 215 533 175 490 q 254 639 254 576 q 201 801 254 717 l -14 801 l -14 899 l 843 899 m 390 317 q 568 368 479 317 l 568 801 l 322 801 q 362 711 347 757 q 376 632 376 665 q 338 504 376 558 q 213 406 299 450 q 285 335 242 353 q 390 317 329 317 z "},"र":{"ha":636,"x_min":-14,"x_max":650,"o":"m 225 340 l 225 271 q 269 136 225 174 q 419 99 313 99 l 575 99 l 575 0 l 419 0 q 185 58 267 0 q 104 271 104 115 l 104 596 l 225 596 l 225 438 l 229 438 q 342 459 307 438 q 376 549 376 481 l 376 801 l -14 801 l -14 899 l 650 899 l 650 801 l 499 801 l 499 549 q 433 386 499 432 q 229 340 368 340 l 225 340 z "},"ऱ":{"ha":636,"x_min":-14,"x_max":650,"o":"m 0 0 m 225 340 l 225 271 q 269 136 225 174 q 419 99 313 99 l 575 99 l 575 0 l 419 0 q 185 58 267 0 q 104 271 104 115 l 104 596 l 225 596 l 225 438 l 229 438 q 342 459 307 438 q 376 549 376 481 l 376 801 l -14 801 l -14 899 l 650 899 l 650 801 l 499 801 l 499 549 q 433 386 499 432 q 229 340 368 340 l 225 340 m -1 -107 l 93 -12 l 189 -107 l 93 -200 l -1 -107 z "},"ल":{"ha":1090,"x_min":-14,"x_max":1104,"o":"m 1104 899 l 1104 801 l 951 801 l 949 0 l 828 0 l 829 494 q 753 513 797 513 q 646 465 682 513 q 608 329 610 418 l 608 285 l 585 285 l 585 275 l 488 275 l 488 319 q 349 499 483 499 q 207 319 211 499 q 258 160 210 221 q 431 99 306 99 l 465 99 l 465 0 l 431 0 q 167 92 247 0 q 86 319 86 185 q 151 522 86 446 q 339 597 215 597 q 543 499 481 597 q 749 611 601 611 q 829 600 792 611 l 831 801 l -14 801 l -14 899 l 1104 899 z "},"ळ":{"ha":1054,"x_min":-14,"x_max":1068,"o":"m 797 801 l 797 633 q 947 548 894 617 q 999 383 999 479 q 933 200 999 272 q 744 128 867 128 q 614 156 668 128 q 528 233 560 183 q 442 156 496 183 q 314 128 389 128 q 123 200 190 128 q 56 383 56 272 q 123 566 56 494 q 314 638 190 638 q 442 610 389 638 q 528 532 496 582 q 676 631 576 610 l 676 801 l -14 801 l -14 899 l 1068 899 l 1068 801 l 797 801 m 324 226 q 431 269 396 226 q 467 383 467 313 q 431 496 467 453 q 324 539 396 539 q 213 496 249 539 q 178 383 178 453 q 213 269 178 313 q 324 226 249 226 m 878 383 q 842 496 878 453 q 733 539 807 539 q 623 496 658 539 q 588 383 588 453 q 623 269 588 313 q 733 226 658 226 q 842 269 807 226 q 878 383 878 313 z "},"ऴ":{"ha":1054,"x_min":-14,"x_max":1068,"o":"m 0 0 m 797 801 l 797 633 q 947 548 894 617 q 999 383 999 479 q 933 200 999 272 q 744 128 867 128 q 614 156 668 128 q 528 233 560 183 q 442 156 496 183 q 314 128 389 128 q 123 200 190 128 q 56 383 56 272 q 123 566 56 494 q 314 638 190 638 q 442 610 389 638 q 528 532 496 582 q 676 631 576 610 l 676 801 l -14 801 l -14 899 l 1068 899 l 1068 801 l 797 801 m 324 226 q 431 269 396 226 q 467 383 467 313 q 431 496 467 453 q 324 539 396 539 q 213 496 249 539 q 178 383 178 453 q 213 269 178 313 q 324 226 249 226 m 878 383 q 842 496 878 453 q 733 539 807 539 q 623 496 658 539 q 588 383 588 453 q 623 269 588 313 q 733 226 658 226 q 842 269 807 226 q 878 383 878 313 m 431 0 l 525 94 l 621 0 l 525 -93 l 431 0 z "},"व":{"ha":761,"x_min":-14,"x_max":775,"o":"m 775 899 l 775 801 l 622 801 l 622 0 l 501 0 l 501 206 q 339 169 432 169 l 321 169 q 117 219 182 169 q 51 392 51 268 q 116 563 51 513 q 317 614 181 614 l 333 614 q 378 612 354 614 q 417 607 401 610 l 417 510 q 339 517 378 517 l 322 517 q 210 490 247 517 q 174 392 174 464 q 191 313 174 340 q 242 277 208 286 q 331 267 275 268 l 349 267 q 428 275 392 267 q 501 304 465 283 l 501 801 l -14 801 l -14 899 l 775 899 z "},"श":{"ha":989,"x_min":69,"x_max":1003,"o":"m 274 324 q 337 146 281 193 q 500 99 393 99 l 583 99 l 583 0 l 496 0 q 253 74 340 0 q 157 319 165 149 l 69 319 l 69 418 l 208 418 q 383 478 325 418 q 443 653 442 538 q 419 783 443 747 q 331 819 394 819 q 248 784 275 819 q 219 663 221 749 l 219 596 l 97 596 l 97 672 q 155 852 99 792 q 331 913 211 913 q 510 849 456 913 q 564 653 564 786 q 487 430 563 518 q 274 324 411 342 m 1003 801 l 850 801 l 850 0 l 729 0 l 729 899 l 1003 899 l 1003 801 z "},"ष":{"ha":807,"x_min":-14,"x_max":821,"o":"m 821 899 l 821 801 l 668 801 l 668 0 l 547 0 l 547 324 q 374 279 474 279 q 176 335 242 279 q 110 531 110 392 l 110 801 l -14 801 l -14 899 l 821 899 m 547 801 l 296 801 l 547 483 l 547 801 m 232 531 q 267 411 232 446 q 389 376 301 376 q 513 407 458 376 l 232 763 l 232 531 z "},"स":{"ha":1067,"x_min":-14,"x_max":1081,"o":"m 1081 899 l 1081 801 l 928 801 l 928 0 l 806 0 l 806 372 l 543 372 l 543 469 l 806 469 l 806 801 l 499 801 l 499 549 q 433 386 499 432 q 229 340 368 340 l 221 340 l 221 271 q 265 136 221 174 q 415 99 308 99 l 631 99 l 631 0 l 415 0 q 181 58 263 0 q 99 271 99 115 l 99 596 l 221 596 l 221 438 l 229 438 q 342 459 307 438 q 376 549 376 481 l 376 801 l -14 801 l -14 899 l 1081 899 z "},"ह":{"ha":743,"x_min":-14,"x_max":765,"o":"m 311 571 q 233 554 258 571 q 208 494 208 538 q 224 440 208 465 q 263 399 239 415 q 392 425 321 425 l 433 425 q 601 369 543 425 q 660 221 660 314 l 660 185 l 557 185 l 557 221 q 524 297 557 268 q 433 326 492 326 l 392 326 q 299 294 340 326 q 258 188 258 263 q 325 46 258 83 q 500 8 392 8 l 589 8 l 589 -90 l 496 -90 q 235 -24 335 -90 q 136 192 136 42 q 176 331 136 275 q 114 407 140 363 q 88 501 88 451 q 140 631 88 593 q 306 669 193 669 l 481 669 l 481 801 l -14 801 l -14 899 l 765 899 l 765 801 l 603 801 l 603 571 l 311 571 z "},"क़":{"ha":1124,"x_min":-14,"x_max":1138,"o":"m 0 0 m 622 801 l 622 578 q 785 614 693 614 l 804 614 q 1008 565 943 614 q 1072 392 1072 515 q 1008 220 1072 271 q 808 169 944 169 l 792 169 q 747 172 771 169 q 708 176 724 174 l 708 274 q 786 267 747 267 l 803 267 q 915 293 878 267 q 951 392 951 319 q 934 470 951 443 q 883 506 917 497 q 794 517 850 515 l 775 517 q 695 508 732 517 q 622 479 658 500 l 622 0 l 501 0 l 501 206 q 339 169 432 169 l 321 169 q 117 219 182 169 q 51 392 51 268 q 116 563 51 513 q 317 614 181 614 l 333 614 q 378 612 354 614 q 417 607 401 610 l 417 510 q 339 517 378 517 l 322 517 q 210 490 247 517 q 174 392 174 464 q 191 313 174 340 q 242 277 208 286 q 331 267 275 268 l 349 267 q 428 275 392 267 q 501 304 465 283 l 501 801 l -14 801 l -14 899 l 1138 899 l 1138 801 l 622 801 m 207 -10 l 301 85 l 397 -10 l 301 -103 l 207 -10 z "},"ख़":{"ha":1194,"x_min":-14,"x_max":1208,"o":"m 0 0 m 1208 801 l 1056 801 l 1056 0 l 935 0 l 935 247 q 806 225 879 225 l 781 225 q 557 419 557 225 q 613 565 557 517 q 757 614 669 614 l 774 614 q 850 608 817 614 l 850 511 q 788 517 803 517 l 771 517 q 678 419 678 517 q 706 342 678 361 q 797 322 735 322 l 819 322 q 935 344 881 322 l 935 801 l 499 801 l 499 549 q 433 386 499 432 q 229 340 368 340 l 221 340 l 221 271 q 265 136 221 174 q 415 99 308 99 l 644 99 l 644 0 l 415 0 q 181 58 263 0 q 99 271 99 115 l 99 596 l 221 596 l 221 438 l 229 438 q 342 459 307 438 q 376 549 376 481 l 376 801 l -14 801 l -14 899 l 1208 899 l 1208 801 m 67 -140 l 161 -46 l 257 -140 l 161 -233 l 67 -140 z "},"ग़":{"ha":861,"x_min":-14,"x_max":875,"o":"m 0 0 m 875 801 l 722 801 l 722 0 l 601 0 l 601 801 l 361 801 l 363 417 q 328 296 363 338 q 228 254 294 254 q 124 288 167 254 q 50 392 81 321 l 143 440 q 178 375 161 397 q 214 353 194 353 q 236 367 231 353 q 242 417 242 382 l 240 801 l -14 801 l -14 899 l 875 899 l 875 801 m 206 0 l 300 94 l 396 0 l 300 -93 l 206 0 z "},"ज़":{"ha":936,"x_min":-14,"x_max":950,"o":"m 0 0 m 950 899 l 950 801 l 797 801 l 797 0 l 675 0 l 675 503 l 538 503 l 538 406 q 486 209 538 271 q 303 147 435 147 q 125 210 179 147 q 71 406 71 274 l 71 600 l 188 600 l 188 399 q 213 283 188 321 q 303 246 239 246 q 394 282 371 246 q 417 399 417 318 l 417 600 l 675 600 l 675 801 l -14 801 l -14 899 l 950 899 m 208 -18 l 303 76 l 399 -18 l 303 -111 l 208 -18 z "},"ड़":{"ha":710,"x_min":-14,"x_max":724,"o":"m 0 0 m 304 550 q 228 533 253 550 q 203 474 203 517 q 213 426 203 447 q 238 396 222 406 l 401 396 q 588 347 524 396 q 653 197 653 299 q 588 40 653 93 q 404 -12 522 -12 l 386 -12 q 194 12 278 -12 q 35 85 111 36 l 82 178 q 226 108 157 131 q 381 86 296 86 l 400 86 q 496 111 461 86 q 531 186 531 136 q 499 272 531 246 q 401 297 467 297 l 175 297 q 111 373 142 322 q 81 481 81 424 q 135 609 81 571 q 304 647 189 647 l 440 647 l 440 801 l -14 801 l -14 899 l 724 899 l 724 801 l 561 801 l 561 597 l 556 597 l 556 550 l 304 550 m 282 -160 l 376 -65 l 472 -160 l 376 -253 l 282 -160 z "},"ढ़":{"ha":717,"x_min":-14,"x_max":731,"o":"m 0 0 m 371 554 q 267 537 307 554 q 206 473 228 519 q 185 340 185 426 q 204 208 185 254 q 260 144 224 161 q 357 126 297 126 l 383 126 q 510 153 469 126 q 550 242 550 179 l 550 286 q 537 328 550 315 q 496 340 524 340 q 455 328 468 340 q 442 285 442 315 l 442 224 l 329 224 l 329 294 q 370 399 329 365 q 503 433 411 433 q 632 395 592 433 q 672 285 672 357 l 672 243 q 601 81 671 133 q 383 29 531 29 l 357 29 q 134 100 206 29 q 63 340 63 171 q 138 581 63 511 q 371 651 213 651 l 456 651 l 456 801 l -14 801 l -14 899 l 731 899 l 731 801 l 578 801 l 578 554 l 371 554 m 278 -132 l 372 -37 l 468 -132 l 372 -225 l 278 -132 z "},"फ़":{"ha":1133,"x_min":-14,"x_max":1147,"o":"m 0 0 m 632 801 l 632 578 q 794 614 703 614 l 814 614 q 1017 565 953 614 q 1082 392 1082 515 q 1018 220 1082 271 q 817 169 954 169 l 800 169 q 756 172 779 169 q 717 176 732 174 l 717 274 q 794 267 756 267 l 811 267 q 924 293 888 267 q 961 392 961 319 q 944 470 961 443 q 893 506 926 497 q 803 517 860 515 l 785 517 q 705 508 742 517 q 632 479 668 500 l 632 0 l 511 0 l 511 321 q 351 279 440 279 q 171 335 231 279 q 111 531 111 392 l 111 801 l -14 801 l -14 899 l 1147 899 l 1147 801 l 632 801 m 367 376 q 447 390 413 376 q 511 425 481 403 l 511 801 l 232 801 l 232 531 q 262 411 232 446 q 367 376 292 376 m 101 121 l 196 215 l 292 121 l 196 28 l 101 121 z "},"य़":{"ha":829,"x_min":-14,"x_max":843,"o":"m 0 0 m 843 899 l 843 801 l 690 801 l 690 0 l 568 0 l 568 261 q 476 228 524 239 q 390 218 428 218 q 249 238 306 218 q 148 307 192 257 q 69 449 104 357 q 215 533 175 490 q 254 639 254 576 q 201 801 254 717 l -14 801 l -14 899 l 843 899 m 390 317 q 568 368 479 317 l 568 801 l 322 801 q 362 711 347 757 q 376 632 376 665 q 338 504 376 558 q 213 406 299 450 q 285 335 242 353 q 390 317 329 317 m 93 69 l 188 164 l 283 69 l 188 -24 l 93 69 z "},"ॹ":{"ha":936,"x_min":-14,"x_max":950,"o":"m 0 0 m 950 899 l 950 801 l 797 801 l 797 0 l 675 0 l 675 503 l 538 503 l 538 406 q 486 209 538 271 q 303 147 435 147 q 125 210 179 147 q 71 406 71 274 l 71 600 l 188 600 l 188 399 q 213 283 188 321 q 303 246 239 246 q 394 282 371 246 q 417 399 417 318 l 417 600 l 675 600 l 675 801 l -14 801 l -14 899 l 950 899 m 65 11 l 160 106 l 256 11 l 160 -82 l 65 11 m 211 -132 l 306 -37 l 401 -132 l 306 -225 l 211 -132 m 356 11 l 450 106 l 546 11 l 450 -82 l 356 11 z "},"ॺ":{"ha":806,"x_min":-14,"x_max":843,"o":"m 843 899 l 843 801 l 690 801 l 690 0 l 568 0 l 568 261 q 476 228 524 239 q 390 218 428 218 q 249 238 306 218 q 148 307 192 257 q 69 449 104 357 q 215 533 175 490 q 254 639 254 576 q 201 801 254 717 l -14 801 l -14 899 l 843 899 m 568 801 l 338 801 l 568 494 l 568 801 m 213 406 q 285 335 242 353 q 390 317 329 317 q 558 363 474 317 l 375 606 q 329 494 368 543 q 213 406 290 446 z "},"ॻ":{"ha":861,"x_min":-14,"x_max":875,"o":"m 875 801 l 722 801 l 722 0 l 704 0 l 704 -37 l 69 -37 l 69 61 l 601 61 l 601 801 l 361 801 l 363 417 q 328 296 363 338 q 228 254 294 254 q 124 288 167 254 q 50 392 81 321 l 143 440 q 178 375 161 397 q 214 353 194 353 q 236 367 231 353 q 242 417 242 382 l 240 801 l -14 801 l -14 899 l 875 899 l 875 801 z "},"ॼ":{"ha":899,"x_min":-14,"x_max":950,"o":"m 950 899 l 950 801 l 797 801 l 797 0 l 772 0 l 772 -37 l 69 -37 l 69 61 l 675 61 l 675 503 l 538 503 l 538 406 q 486 209 538 271 q 303 147 435 147 q 125 210 179 147 q 71 406 71 274 l 71 600 l 188 600 l 188 399 q 213 283 188 321 q 303 246 239 246 q 394 282 371 246 q 417 399 417 318 l 417 600 l 675 600 l 675 801 l -14 801 l -14 899 l 950 899 z "},"ॾ":{"ha":710,"x_min":-14,"x_max":724,"o":"m 304 550 q 228 533 253 550 q 203 474 203 517 q 213 426 203 447 q 238 396 222 406 l 401 396 q 588 347 524 396 q 653 197 653 299 q 588 40 653 93 q 404 -12 522 -12 l 386 -12 q 194 12 278 -12 q 35 85 111 36 l 82 178 q 226 108 157 131 q 381 86 296 86 l 400 86 q 496 111 461 86 q 531 186 531 136 q 499 272 531 246 q 401 297 467 297 l 175 297 q 111 373 142 322 q 81 481 81 424 q 135 609 81 571 q 304 647 189 647 l 440 647 l 440 801 l -14 801 l -14 899 l 724 899 l 724 801 l 561 801 l 561 597 l 556 597 l 556 550 l 304 550 m 69 -106 l 639 -106 l 639 -204 l 69 -204 l 69 -106 z "},"ॿ":{"ha":761,"x_min":-14,"x_max":775,"o":"m 775 899 l 775 801 l 622 801 l 622 0 l 600 0 l 600 -57 l 69 -57 l 69 40 l 501 40 l 501 206 q 339 169 432 169 l 321 169 q 117 219 182 169 q 51 392 51 268 q 116 563 51 513 q 317 614 181 614 l 333 614 q 378 612 354 614 q 417 607 401 610 l 417 510 q 339 517 378 517 l 322 517 q 274 514 304 517 l 471 289 l 501 304 l 501 801 l -14 801 l -14 899 l 775 899 m 349 267 q 389 269 364 267 l 201 482 q 174 392 174 454 q 191 313 174 340 q 242 277 208 286 q 331 267 275 268 l 349 267 z "},"⁄":{"ha":549,"x_min":-74,"x_max":622,"o":"m 506 1074 l 622 1074 l 43 -46 l -74 -46 l 506 1074 z "},"½":{"ha":1494,"x_min":104,"x_max":1454,"o":"m 104 0 m 438 281 l 438 182 l 104 182 l 104 281 l 219 281 l 219 836 l 124 836 l 124 935 l 322 935 l 322 281 l 438 281 m 989 1074 l 1106 1074 l 526 -46 l 410 -46 l 989 1074 m 1014 160 q 1199 369 1135 292 q 1297 508 1264 447 q 1329 619 1329 568 q 1299 703 1329 675 q 1210 732 1268 732 q 1038 690 1121 732 l 1038 790 q 1211 828 1122 828 q 1374 775 1314 828 q 1435 622 1435 722 q 1397 483 1435 556 q 1301 342 1358 411 q 1139 160 1243 272 l 1454 160 l 1454 61 l 1014 61 l 1014 160 z "},"¼":{"ha":1432,"x_min":104,"x_max":1418,"o":"m 104 0 m 438 281 l 438 182 l 104 182 l 104 281 l 219 281 l 219 836 l 124 836 l 124 935 l 322 935 l 322 281 l 438 281 m 989 1074 l 1106 1074 l 526 -46 l 410 -46 l 989 1074 m 1418 240 l 1325 240 l 1325 61 l 1222 61 l 1222 240 l 914 240 l 914 336 l 1221 826 l 1325 826 l 1325 336 l 1418 336 l 1418 240 m 1222 336 l 1222 660 l 1018 336 l 1222 336 z "},"¾":{"ha":1428,"x_min":69,"x_max":1414,"o":"m 69 0 m 358 579 q 453 506 421 554 q 486 397 486 458 q 419 227 486 288 q 236 167 353 167 q 69 194 140 167 l 69 294 q 232 263 142 263 q 339 298 299 263 q 379 400 379 333 q 335 496 379 463 q 207 529 290 529 l 149 529 l 149 629 l 207 629 q 328 660 286 629 q 369 751 369 692 q 335 826 369 799 q 236 853 301 853 q 79 825 147 853 l 79 924 q 236 949 147 949 q 416 896 356 949 q 476 751 476 843 q 358 579 476 633 m 985 1074 l 1101 1074 l 522 -46 l 406 -46 l 985 1074 m 1414 240 l 1321 240 l 1321 61 l 1218 61 l 1218 240 l 910 240 l 910 336 l 1217 826 l 1321 826 l 1321 336 l 1414 336 l 1414 240 m 1218 336 l 1218 660 l 1014 336 l 1218 336 z "},"¹":{"ha":542,"x_min":104,"x_max":438,"o":"m 438 281 l 438 182 l 104 182 l 104 281 l 219 281 l 219 836 l 124 836 l 124 935 l 322 935 l 322 281 l 438 281 z "},"²":{"ha":542,"x_min":61,"x_max":501,"o":"m 61 281 q 247 490 182 413 q 344 628 311 568 q 376 740 376 689 q 346 824 376 796 q 257 853 315 853 q 85 811 168 853 l 85 911 q 258 949 169 949 q 422 896 361 949 q 482 743 482 843 q 444 604 482 676 q 348 463 406 532 q 186 281 290 393 l 501 281 l 501 182 l 61 182 l 61 281 z "},"³":{"ha":542,"x_min":69,"x_max":486,"o":"m 358 579 q 453 506 421 554 q 486 397 486 458 q 419 227 486 288 q 236 167 353 167 q 69 194 140 167 l 69 294 q 232 263 142 263 q 339 298 299 263 q 379 400 379 333 q 335 496 379 463 q 207 529 290 529 l 149 529 l 149 629 l 207 629 q 328 660 286 629 q 369 751 369 692 q 335 826 369 799 q 236 853 301 853 q 79 825 147 853 l 79 924 q 236 949 147 949 q 416 896 356 949 q 476 751 476 843 q 358 579 476 633 z "},"०":{"ha":886,"x_min":118,"x_max":768,"o":"m 443 158 q 269 199 343 158 q 157 310 196 240 q 118 465 118 381 q 157 620 118 550 q 269 731 196 690 q 443 772 343 772 q 617 731 543 772 q 729 620 690 690 q 768 465 768 550 q 729 310 768 381 q 617 199 690 240 q 443 158 543 158 m 443 257 q 593 316 539 257 q 647 465 647 375 q 593 615 647 556 q 443 674 539 674 q 293 615 347 674 q 239 465 239 556 q 293 316 239 375 q 443 257 347 257 z "},"१":{"ha":667,"x_min":86,"x_max":604,"o":"m 604 658 q 522 426 603 524 q 314 290 442 329 l 526 44 l 446 -24 l 194 269 l 169 269 l 86 269 l 86 367 l 169 367 q 324 401 253 367 q 439 501 396 435 q 482 658 482 567 q 453 787 482 750 q 350 824 425 824 q 247 785 281 824 q 213 658 214 747 l 213 606 l 90 606 l 90 658 q 154 856 92 789 q 350 922 217 922 q 544 856 483 922 q 604 658 604 789 z "},"२":{"ha":686,"x_min":110,"x_max":635,"o":"m 635 99 l 635 0 l 551 0 q 188 368 188 0 l 188 388 l 110 388 l 110 485 l 240 485 q 400 519 349 485 q 453 643 451 553 q 400 767 451 733 q 240 801 349 801 l 110 801 l 110 899 l 240 899 q 492 840 411 899 q 575 643 574 781 q 509 460 574 519 q 310 389 444 400 l 310 368 q 375 156 311 214 q 551 99 439 99 l 635 99 z "},"३":{"ha":672,"x_min":86,"x_max":621,"o":"m 426 500 q 570 419 519 475 q 621 281 621 363 q 541 94 621 157 q 331 32 461 32 q 203 49 265 32 l 203 -62 l 86 -62 l 86 275 l 203 275 l 203 151 q 331 131 261 131 q 456 166 408 131 q 504 283 504 201 q 244 436 504 436 l 164 436 l 164 535 l 246 535 q 377 575 333 535 q 421 679 421 615 q 376 774 421 747 q 236 801 331 801 l 101 801 l 101 899 l 236 899 q 464 849 390 899 q 538 688 538 800 q 510 575 538 621 q 426 500 483 529 z "},"४":{"ha":797,"x_min":83,"x_max":714,"o":"m 714 831 q 694 674 714 733 q 638 578 674 614 q 539 499 603 542 l 492 467 q 610 358 568 415 q 651 214 651 301 q 620 92 651 146 q 531 7 589 38 q 399 -24 474 -24 q 266 7 324 -24 q 177 92 208 38 q 146 214 146 146 q 190 355 146 294 q 307 467 233 415 l 258 499 q 157 580 193 540 q 102 678 121 619 q 83 831 83 738 l 83 899 l 206 899 l 206 831 q 219 697 206 743 q 265 622 233 651 q 371 546 296 593 l 399 528 l 426 546 q 529 622 497 592 q 576 699 561 653 q 592 831 592 746 l 592 899 l 714 899 l 714 831 m 399 75 q 493 109 457 75 q 529 214 529 143 q 497 320 529 278 q 400 407 465 363 q 302 318 336 363 q 268 214 268 274 q 304 109 268 143 q 399 75 340 75 z "},"५":{"ha":794,"x_min":129,"x_max":665,"o":"m 665 733 l 665 218 q 586 37 665 97 q 374 -24 507 -24 q 172 14 263 -24 l 150 131 q 249 90 199 104 q 364 75 299 75 q 543 232 543 75 l 543 372 q 381 326 471 326 q 191 382 253 326 q 129 578 129 438 l 129 899 l 251 899 l 251 578 q 281 458 251 493 q 385 424 310 424 q 473 438 436 424 q 543 478 510 453 l 543 732 l 665 733 z "},"६":{"ha":704,"x_min":69,"x_max":644,"o":"m 644 326 l 644 -19 l 522 -19 l 522 108 q 414 96 468 96 l 389 96 q 181 157 251 96 q 110 329 110 218 q 210 524 110 464 q 104 590 139 544 q 69 714 69 635 q 144 871 69 825 q 376 917 218 917 l 401 917 q 506 906 461 917 l 506 806 q 401 819 460 819 l 376 819 q 235 795 279 819 q 192 701 192 771 q 242 606 193 629 q 399 582 290 582 l 433 582 l 433 564 l 453 564 l 453 485 l 389 485 q 273 447 314 485 q 232 332 232 408 q 389 193 232 196 l 414 193 q 522 211 474 193 l 522 326 l 644 326 z "},"७":{"ha":819,"x_min":107,"x_max":713,"o":"m 410 35 q 238 68 304 35 q 140 181 172 101 q 107 401 107 261 l 107 899 l 228 899 l 228 407 q 247 235 228 294 q 306 154 267 175 q 410 133 344 133 q 511 155 472 133 q 571 235 550 176 q 592 407 592 294 l 592 778 q 583 813 592 803 q 553 824 575 824 q 523 813 532 824 q 514 778 514 803 l 514 636 l 393 636 l 393 782 q 431 882 393 847 q 553 917 468 917 q 675 882 638 917 q 713 782 713 847 l 713 401 q 678 182 713 263 q 577 68 643 101 q 410 35 511 35 z "},"८":{"ha":654,"x_min":42,"x_max":592,"o":"m 493 0 q 154 88 267 0 q 42 326 42 176 q 73 471 42 404 q 159 599 104 538 q 304 738 214 660 l 515 921 l 592 836 l 381 653 q 258 537 303 585 q 188 438 213 489 q 164 326 164 386 q 245 158 164 218 q 493 99 326 99 l 572 99 l 572 0 l 493 0 z "},"९":{"ha":724,"x_min":49,"x_max":693,"o":"m 400 186 q 369 213 368 214 q 198 374 261 310 q 92 514 135 439 q 49 668 49 589 q 124 855 49 793 q 336 917 199 917 q 517 855 453 917 q 582 668 582 793 l 582 581 l 460 581 l 460 668 q 426 784 460 749 q 331 819 392 819 q 213 785 254 819 q 172 668 172 750 q 203 553 172 608 q 284 447 235 497 q 424 318 333 397 l 478 269 l 693 76 l 615 -7 l 400 186 z "},"*":{"ha":858,"x_min":101,"x_max":757,"o":"m 508 865 l 757 743 l 700 644 l 468 796 l 486 521 l 372 521 l 390 796 l 158 644 l 101 743 l 350 865 l 101 989 l 158 1088 l 390 935 l 372 1211 l 486 1211 l 468 935 l 700 1088 l 757 989 l 508 865 z "},"\\":{"ha":569,"x_min":3,"x_max":568,"o":"m 3 1293 l 136 1293 l 568 -246 l 435 -246 l 3 1293 z "},"·":{"ha":394,"x_min":125,"x_max":269,"o":"m 125 588 l 269 588 l 269 364 l 125 364 l 125 588 z "},"•":{"ha":482,"x_min":65,"x_max":417,"o":"m 242 353 q 153 376 194 353 q 89 441 113 400 q 65 529 65 482 q 117 653 65 603 q 242 704 168 704 q 366 653 315 704 q 417 529 417 603 q 366 404 417 456 q 242 353 315 353 z "},":":{"ha":394,"x_min":125,"x_max":269,"o":"m 125 0 m 125 224 l 269 224 l 269 0 l 125 0 l 125 224 m 125 772 l 269 772 l 269 549 l 125 549 l 125 772 z "},",":{"ha":394,"x_min":79,"x_max":301,"o":"m 163 224 l 301 224 l 200 -210 l 79 -210 l 163 224 z "},"…":{"ha":1183,"x_min":125,"x_max":1058,"o":"m 125 224 l 269 224 l 269 0 l 125 0 l 125 224 m 519 224 l 664 224 l 664 0 l 519 0 l 519 224 m 1058 224 l 1058 0 l 914 0 l 914 224 l 1058 224 z "},"!":{"ha":394,"x_min":119,"x_max":275,"o":"m 119 1053 l 275 1053 l 254 319 l 140 319 l 119 1053 m 125 219 l 269 219 l 269 0 l 125 0 l 125 219 z "},"¡":{"ha":394,"x_min":119,"x_max":275,"o":"m 125 1053 l 269 1053 l 269 833 l 125 833 l 125 1053 m 140 733 l 254 733 l 275 0 l 119 0 l 140 733 z "},"#":{"ha":976,"x_min":83,"x_max":892,"o":"m 738 583 l 707 353 l 850 353 l 850 231 l 692 231 l 663 0 l 538 0 l 568 231 l 346 231 l 317 0 l 192 0 l 222 231 l 83 231 l 83 353 l 238 353 l 268 583 l 125 583 l 125 706 l 283 706 l 313 936 l 438 936 l 407 706 l 629 706 l 658 936 l 783 936 l 753 706 l 892 706 l 892 583 l 738 583 m 614 583 l 392 583 l 361 353 l 583 353 l 614 583 z "},".":{"ha":394,"x_min":125,"x_max":269,"o":"m 125 224 l 269 224 l 269 0 l 125 0 l 125 224 z "},"?":{"ha":740,"x_min":97,"x_max":647,"o":"m 263 385 q 277 480 263 440 q 317 547 292 519 q 388 614 342 575 l 436 656 q 494 723 478 693 q 511 796 511 753 q 465 913 511 872 q 339 954 418 954 q 97 896 211 954 l 97 1021 q 349 1072 215 1072 q 564 1002 481 1072 q 647 803 647 932 q 617 673 647 724 q 529 574 586 622 l 490 540 q 415 461 435 492 q 396 376 396 431 l 396 319 l 263 319 l 263 385 m 257 219 l 401 219 l 401 0 l 257 0 l 257 219 z "},"¿":{"ha":740,"x_min":93,"x_max":643,"o":"m 399 913 l 424 913 l 424 974 l 399 974 l 399 913 m 392 -19 q 176 51 260 -19 q 93 250 93 121 q 124 380 93 329 q 211 479 154 431 l 250 513 q 325 592 306 561 q 344 676 344 622 l 344 733 l 478 733 l 478 668 q 463 572 478 611 q 424 505 449 533 q 353 439 399 476 l 306 397 q 246 330 263 360 q 229 257 229 300 q 276 140 229 181 q 401 99 322 99 q 643 156 529 99 l 643 32 q 392 -19 525 -19 z "},"\"":{"ha":644,"x_min":135,"x_max":510,"o":"m 135 633 m 135 1053 l 260 1053 l 260 633 l 135 633 l 135 1053 m 385 1053 l 510 1053 l 510 633 l 385 633 l 385 1053 z "},"'":{"ha":394,"x_min":135,"x_max":260,"o":"m 135 1053 l 260 1053 l 260 633 l 135 633 l 135 1053 z "},";":{"ha":394,"x_min":79,"x_max":301,"o":"m 79 0 m 163 224 l 301 224 l 200 -210 l 79 -210 l 163 224 m 125 772 l 269 772 l 269 549 l 125 549 l 125 772 z "},"/":{"ha":569,"x_min":3,"x_max":568,"o":"m 435 1293 l 568 1293 l 136 -246 l 3 -246 l 435 1293 z "},"_":{"ha":694,"x_min":0,"x_max":694,"o":"m 0 -107 l 694 -107 l 694 -228 l 0 -228 l 0 -107 z "},"{":{"ha":488,"x_min":58,"x_max":439,"o":"m 296 693 q 274 557 296 599 q 193 499 253 515 q 274 438 251 481 q 296 304 296 396 l 296 43 q 312 -37 296 -17 q 375 -58 328 -58 q 439 -53 411 -58 l 439 -174 q 368 -179 404 -179 q 248 -162 292 -179 q 183 -104 204 -146 q 163 13 163 -62 l 163 290 q 156 383 163 353 q 132 426 149 414 q 82 438 115 438 l 58 438 l 58 560 l 82 560 q 132 572 115 560 q 156 614 149 583 q 163 707 163 644 l 163 985 q 183 1101 163 1060 q 248 1160 204 1143 q 368 1176 292 1176 q 439 1171 404 1176 l 439 1050 q 375 1056 411 1056 q 312 1035 328 1056 q 296 954 296 1014 l 296 693 z "},"}":{"ha":450,"x_min":11,"x_max":392,"o":"m 11 0 m 154 693 q 176 557 154 599 q 257 499 197 515 q 176 438 199 481 q 154 304 154 396 l 154 43 q 138 -37 154 -17 q 75 -58 122 -58 q 11 -53 39 -58 l 11 -174 q 82 -179 46 -179 q 202 -162 158 -179 q 267 -104 246 -146 q 288 13 288 -62 l 288 290 q 294 383 288 353 q 318 426 301 414 q 368 438 335 438 l 392 438 l 392 560 l 368 560 q 318 572 335 560 q 294 614 301 583 q 288 707 288 644 l 288 985 q 267 1101 288 1060 q 202 1160 246 1143 q 82 1176 158 1176 q 11 1171 46 1176 l 11 1050 q 75 1056 39 1056 q 138 1035 122 1056 q 154 954 154 1014 l 154 693 z "},"[":{"ha":460,"x_min":139,"x_max":390,"o":"m 390 -58 l 390 -179 l 139 -179 l 139 1176 l 383 1176 l 383 1056 l 272 1056 l 272 -58 l 390 -58 z "},"]":{"ha":460,"x_min":72,"x_max":321,"o":"m 321 -179 l 72 -179 l 72 -58 l 188 -58 l 188 1056 l 74 1056 l 74 1176 l 321 1176 l 321 -179 z "},"(":{"ha":481,"x_min":78,"x_max":415,"o":"m 324 -179 q 149 102 221 -58 q 78 499 78 263 q 149 895 78 735 q 324 1176 221 1056 l 415 1111 q 276 854 333 999 q 218 499 218 710 q 276 143 218 288 q 415 -114 333 -1 l 324 -179 z "},")":{"ha":481,"x_min":65,"x_max":403,"o":"m 65 -114 q 205 143 147 -1 q 263 499 263 288 q 205 854 263 710 q 65 1111 147 999 l 157 1176 q 331 895 260 1056 q 403 499 403 735 q 331 102 403 263 q 157 -179 260 -58 l 65 -114 z "},"—":{"ha":1389,"x_min":174,"x_max":1215,"o":"m 174 471 l 1215 471 l 1215 351 l 174 351 l 174 471 z "},"–":{"ha":694,"x_min":0,"x_max":694,"o":"m 0 471 l 694 471 l 694 351 l 0 351 l 0 471 z "},"-":{"ha":631,"x_min":111,"x_max":519,"o":"m 111 472 l 519 472 l 519 350 l 111 350 l 111 472 z "},"«":{"ha":1036,"x_min":153,"x_max":878,"o":"m 508 46 m 626 375 l 878 126 l 794 46 l 508 328 l 508 422 l 794 704 l 878 624 l 626 375 m 271 375 l 522 126 l 439 46 l 153 328 l 153 422 l 439 704 l 522 624 l 271 375 z "},"»":{"ha":1036,"x_min":158,"x_max":883,"o":"m 158 46 m 410 375 l 158 126 l 242 46 l 528 328 l 528 422 l 242 704 l 158 624 l 410 375 m 765 375 l 514 126 l 597 46 l 883 328 l 883 422 l 597 704 l 514 624 l 765 375 z "},"‹":{"ha":681,"x_min":153,"x_max":522,"o":"m 271 375 l 522 126 l 439 46 l 153 328 l 153 422 l 439 704 l 522 624 l 271 375 z "},"›":{"ha":681,"x_min":158,"x_max":528,"o":"m 158 46 m 410 375 l 158 126 l 242 46 l 528 328 l 528 422 l 242 704 l 158 624 l 410 375 z "},"„":{"ha":654,"x_min":79,"x_max":561,"o":"m 163 224 l 301 224 l 200 -210 l 79 -210 l 163 224 m 561 224 l 460 -210 l 339 -210 l 422 224 l 561 224 z "},"“":{"ha":654,"x_min":93,"x_max":575,"o":"m 214 1053 l 315 619 l 176 619 l 93 1053 l 214 1053 m 575 619 l 436 619 l 353 1053 l 474 1053 l 575 619 z "},"”":{"ha":654,"x_min":79,"x_max":561,"o":"m 79 619 m 163 1053 l 301 1053 l 200 619 l 79 619 l 163 1053 m 422 1053 l 561 1053 l 460 619 l 339 619 l 422 1053 z "},"‘":{"ha":394,"x_min":93,"x_max":315,"o":"m 93 619 m 176 619 l 315 619 l 214 1053 l 93 1053 l 176 619 z "},"’":{"ha":394,"x_min":79,"x_max":301,"o":"m 79 619 m 163 1053 l 301 1053 l 200 619 l 79 619 l 163 1053 z "},"‚":{"ha":394,"x_min":79,"x_max":301,"o":"m 79 0 m 163 224 l 301 224 l 200 -210 l 79 -210 l 163 224 z "},"ॽ":{"ha":642,"x_min":110,"x_max":575,"o":"m 575 636 q 506 444 575 508 q 289 372 436 379 l 289 0 l 167 0 l 167 469 l 254 469 q 405 508 357 469 q 453 636 453 547 q 400 763 453 724 q 240 801 347 801 l 110 801 l 110 899 l 240 899 q 491 834 407 899 q 575 636 575 769 z "},"।":{"ha":640,"x_min":374,"x_max":496,"o":"m 374 881 l 496 881 l 496 0 l 374 0 l 374 881 z "},"॥":{"ha":986,"x_min":374,"x_max":857,"o":"m 374 0 m 374 881 l 496 881 l 496 0 l 374 0 l 374 881 m 735 881 l 857 881 l 857 0 l 735 0 l 735 881 z "},"॰":{"ha":640,"x_min":88,"x_max":553,"o":"m 321 156 q 203 185 257 156 q 119 266 150 214 q 88 385 88 318 q 119 503 88 451 q 203 584 150 556 q 321 613 257 613 q 438 584 385 613 q 522 503 490 556 q 553 385 553 451 q 522 266 553 318 q 438 185 490 214 q 321 156 385 156 m 321 249 q 408 288 374 249 q 442 385 442 326 q 408 481 442 443 q 321 519 375 519 q 233 481 267 519 q 199 385 199 443 q 233 288 199 326 q 321 249 267 249 z "},"ॱ":{"ha":381,"x_min":96,"x_max":285,"o":"m 96 850 l 190 944 l 285 850 l 190 757 l 96 850 z "}," ":{"ha":306,"x_min":0,"x_max":0,"o":""},"‍":{"ha":0,"x_min":0,"x_max":0,"o":""},"":{"ha":833,"x_min":0,"x_max":0,"o":""},"¢":{"ha":764,"x_min":78,"x_max":722,"o":"m 722 43 q 519 -19 625 -8 l 519 -133 l 400 -133 l 400 -21 q 161 103 244 -3 q 78 381 78 210 q 161 655 78 550 q 400 778 244 760 l 400 890 l 519 890 l 519 778 q 663 743 589 772 l 663 615 q 519 657 589 651 l 519 101 q 681 157 599 114 l 722 43 m 213 382 q 258 196 213 269 q 400 103 303 122 l 400 653 q 258 563 303 635 q 213 382 213 492 z "},"¤":{"ha":764,"x_min":56,"x_max":707,"o":"m 58 214 l 167 322 q 121 467 121 386 q 164 608 121 546 l 56 718 l 128 792 l 238 682 q 378 724 301 724 q 524 676 458 724 l 635 786 l 707 713 l 596 601 q 636 467 636 536 q 592 325 636 389 l 701 217 l 628 143 l 518 253 q 378 210 456 210 q 240 250 306 210 l 131 140 l 58 214 m 378 304 q 488 351 442 304 q 533 467 533 399 q 488 581 533 533 q 378 629 442 629 q 269 581 314 629 q 224 467 224 533 q 269 351 224 399 q 378 304 314 304 z "},"$":{"ha":810,"x_min":64,"x_max":710,"o":"m 710 246 q 638 63 710 133 q 438 -21 565 -8 l 438 -133 l 318 -133 l 318 -21 q 64 49 189 -11 l 64 175 q 318 97 185 111 l 318 413 l 310 415 q 136 506 199 447 q 74 682 74 565 q 140 873 74 804 q 329 953 207 942 l 329 1053 l 449 1053 l 449 951 q 554 931 506 946 q 657 888 603 915 l 657 764 q 449 832 558 818 l 449 515 l 475 508 q 650 417 590 476 q 710 246 710 358 m 206 689 q 238 600 207 631 q 329 549 268 569 l 329 835 q 236 788 267 826 q 206 689 206 749 m 578 243 q 541 328 578 299 q 438 379 504 358 l 438 99 q 578 243 578 117 z "},"€":{"ha":764,"x_min":60,"x_max":688,"o":"m 688 53 q 578 -6 632 11 q 454 -24 525 -24 q 156 306 201 -24 l 61 306 l 101 413 l 146 413 l 144 467 l 146 521 l 60 521 l 100 629 l 156 629 q 461 956 201 956 q 569 940 521 956 q 661 896 617 925 l 613 788 q 544 823 582 808 q 468 838 506 838 q 353 786 397 838 q 292 629 310 735 l 575 629 l 535 521 l 282 521 l 281 467 l 282 413 l 494 413 l 454 306 l 292 306 q 468 94 326 94 q 556 110 518 94 q 640 161 593 126 l 688 53 z "},"ƒ":{"ha":764,"x_min":156,"x_max":611,"o":"m 542 1072 q 478 1053 494 1072 q 454 981 461 1035 l 432 758 l 589 758 l 565 638 l 419 638 l 319 -325 l 189 -325 l 289 638 l 156 638 l 156 758 l 301 758 l 325 989 q 355 1112 333 1068 q 422 1174 376 1156 q 546 1193 467 1193 q 611 1188 579 1193 l 611 1065 q 542 1072 582 1072 z "},"₹":{"ha":764,"x_min":81,"x_max":685,"o":"m 526 801 l 526 686 l 685 686 l 685 588 l 526 588 l 526 531 q 459 367 526 415 q 247 317 392 319 l 247 271 q 291 121 247 163 q 442 79 335 79 l 604 79 l 604 -18 l 442 -18 q 273 6 342 -18 q 165 93 204 29 q 125 271 125 157 l 125 489 l 247 489 l 247 415 q 369 440 332 417 q 406 531 406 463 l 406 588 l 81 588 l 81 686 l 406 686 l 406 801 l 81 801 l 81 899 l 685 899 l 685 801 l 526 801 z "},"£":{"ha":764,"x_min":61,"x_max":707,"o":"m 707 121 l 707 0 l 61 0 l 61 121 l 193 121 l 193 426 l 103 426 l 103 549 l 193 549 l 193 676 q 218 842 193 782 q 301 928 243 901 q 461 956 360 956 q 544 949 500 956 q 615 931 588 943 l 615 806 q 469 835 551 835 q 381 820 413 835 q 337 771 350 806 q 324 672 324 736 l 324 549 l 549 549 l 549 426 l 324 426 l 324 121 l 707 121 z "},"¥":{"ha":764,"x_min":11,"x_max":754,"o":"m 499 492 l 653 492 l 653 385 l 449 385 l 449 276 l 653 276 l 653 168 l 449 168 l 449 0 l 315 0 l 315 168 l 111 168 l 111 276 l 315 276 l 315 385 l 111 385 l 111 492 l 267 492 l 11 936 l 144 936 l 382 517 l 621 936 l 754 936 l 499 492 z "},"≈":{"ha":764,"x_min":71,"x_max":692,"o":"m 490 493 q 424 506 453 493 q 360 544 396 519 q 337 559 356 547 q 301 577 318 571 q 269 583 285 583 q 204 565 233 583 q 129 507 175 546 l 71 586 q 169 669 124 640 q 265 699 214 699 q 333 685 304 699 q 399 647 363 672 q 446 618 426 628 q 486 608 465 608 q 554 626 525 608 q 629 685 583 644 l 688 606 q 588 522 632 550 q 490 493 544 493 m 496 215 q 430 228 458 215 q 365 267 401 242 q 314 297 332 288 q 274 306 296 306 q 207 286 238 306 q 135 229 176 267 l 76 308 q 173 391 128 361 q 269 421 218 421 q 338 408 308 421 q 403 369 367 394 q 449 340 429 350 q 492 331 469 331 q 558 349 531 331 q 633 407 586 367 l 692 328 q 592 243 635 271 q 496 215 550 215 z "},"~":{"ha":764,"x_min":56,"x_max":708,"o":"m 513 372 q 436 388 468 372 q 361 435 404 404 q 308 469 329 458 q 263 481 288 481 q 191 459 224 481 q 114 396 158 438 l 56 475 q 153 566 107 535 q 258 597 199 597 q 339 581 306 597 q 413 535 372 565 q 463 501 442 513 q 508 490 483 490 q 579 508 547 490 q 651 564 611 526 l 708 485 q 614 401 658 431 q 513 372 569 372 z "},"÷":{"ha":764,"x_min":93,"x_max":671,"o":"m 93 54 m 310 278 l 454 278 l 454 54 l 310 54 l 310 278 m 93 529 l 671 529 l 671 407 l 93 407 l 93 529 m 310 886 l 454 886 l 454 663 l 310 663 l 310 886 z "},"=":{"ha":764,"x_min":93,"x_max":671,"o":"m 93 668 l 671 668 l 671 546 l 93 546 l 93 668 m 93 390 l 671 390 l 671 268 l 93 268 l 93 390 z "},">":{"ha":764,"x_min":104,"x_max":671,"o":"m 104 114 m 525 467 l 104 219 l 165 114 l 671 414 l 671 518 l 164 819 l 104 714 l 525 467 z "},"≥":{"ha":764,"x_min":88,"x_max":671,"o":"m 88 0 m 522 476 l 88 267 l 122 160 l 671 429 l 671 524 l 122 799 l 88 690 l 522 476 m 671 121 l 93 121 l 93 0 l 671 0 l 671 121 z "},"∆":{"ha":1017,"x_min":38,"x_max":981,"o":"m 981 0 l 38 0 l 433 1065 l 583 1065 l 981 0 m 796 121 l 508 897 l 221 121 l 796 121 z "},"∞":{"ha":764,"x_min":24,"x_max":740,"o":"m 533 688 q 683 626 626 688 q 740 467 740 564 q 683 306 740 368 q 533 244 626 244 q 436 272 479 244 q 368 344 393 299 q 303 287 342 308 q 219 265 265 265 q 79 322 135 265 q 24 467 24 379 q 79 611 24 554 q 219 668 135 668 q 304 647 265 668 q 368 588 343 625 q 437 660 394 633 q 533 688 479 688 m 529 350 q 605 382 576 350 q 633 467 633 414 q 605 551 633 519 q 529 582 576 582 q 452 551 481 582 q 424 467 424 519 q 452 382 424 414 q 529 350 481 350 m 224 371 q 291 396 265 371 q 317 467 317 421 q 291 538 317 513 q 224 563 265 563 q 156 538 182 563 q 131 467 131 513 q 156 396 131 421 q 224 371 182 371 z "},"∫":{"ha":764,"x_min":164,"x_max":600,"o":"m 513 1193 q 600 1183 544 1193 l 600 1064 q 531 1072 569 1072 q 465 1052 482 1072 q 447 976 447 1032 l 447 -129 q 403 -299 447 -250 q 251 -349 360 -349 q 164 -337 215 -349 l 164 -219 q 233 -226 190 -226 q 285 -215 267 -226 q 310 -176 303 -204 q 317 -94 317 -149 l 317 1011 q 363 1151 317 1110 q 513 1193 408 1193 z "},"<":{"ha":764,"x_min":93,"x_max":660,"o":"m 239 467 l 660 219 l 599 114 l 93 414 l 93 518 l 600 819 l 660 714 l 239 467 z "},"≤":{"ha":764,"x_min":93,"x_max":676,"o":"m 242 476 l 676 267 l 642 160 l 93 429 l 93 524 l 642 799 l 676 690 l 242 476 m 93 121 l 671 121 l 671 0 l 93 0 l 93 121 z "},"¬":{"ha":764,"x_min":93,"x_max":671,"o":"m 671 529 l 671 179 l 547 178 l 547 407 l 93 407 l 93 529 l 671 529 z "},"−":{"ha":764,"x_min":93,"x_max":671,"o":"m 93 529 l 671 529 l 671 407 l 93 407 l 93 529 z "},"≠":{"ha":833,"x_min":93,"x_max":671,"o":"m 481 546 l 436 390 l 671 390 l 671 268 l 401 268 l 361 125 l 228 125 l 268 268 l 93 268 l 93 390 l 303 390 l 347 546 l 93 546 l 93 668 l 381 668 l 418 797 l 551 797 l 514 668 l 671 668 l 671 546 l 481 546 z "},"∂":{"ha":857,"x_min":69,"x_max":782,"o":"m 372 1072 q 674 785 565 961 q 782 403 782 610 q 689 92 782 208 q 422 -24 596 -24 q 238 24 318 -24 q 113 153 157 71 q 69 340 69 236 q 115 538 69 454 q 236 664 160 621 q 401 707 313 707 q 601 638 511 707 q 474 830 556 742 q 278 981 392 918 l 372 1072 m 649 397 q 643 483 649 446 q 543 558 599 532 q 424 585 488 585 q 317 558 367 585 q 235 477 267 532 q 203 340 203 422 q 232 212 203 267 q 312 127 261 157 q 425 97 363 97 q 588 175 529 97 q 649 397 647 253 z "},"%":{"ha":1417,"x_min":51,"x_max":1365,"o":"m 949 1074 l 1065 1074 l 486 -46 l 369 -46 l 949 1074 m 331 428 q 186 465 250 428 q 87 565 122 501 q 51 706 51 629 q 87 846 51 782 q 186 947 122 910 q 331 983 250 983 q 473 947 410 983 q 572 846 536 910 q 607 706 607 782 q 572 565 607 629 q 473 465 536 501 q 331 428 410 428 m 331 528 q 450 579 404 528 q 496 706 496 631 q 451 831 496 781 q 331 882 406 882 q 210 831 256 882 q 164 706 164 781 q 210 579 164 631 q 331 528 257 528 m 1089 -24 q 945 14 1008 -24 q 846 115 882 51 q 810 256 810 179 q 845 395 810 332 q 944 495 881 458 q 1089 532 1008 532 q 1231 495 1168 532 q 1330 395 1294 458 q 1365 256 1365 332 q 1330 115 1365 179 q 1231 14 1294 51 q 1089 -24 1168 -24 m 1089 78 q 1208 129 1163 78 q 1254 256 1254 181 q 1208 381 1254 331 q 1089 432 1163 432 q 968 381 1014 432 q 922 256 922 331 q 969 129 922 181 q 1089 78 1015 78 z "},"‰":{"ha":2051,"x_min":51,"x_max":2000,"o":"m 949 1074 l 1065 1074 l 486 -46 l 369 -46 l 949 1074 m 331 428 q 186 465 250 428 q 87 565 122 501 q 51 706 51 629 q 87 846 51 782 q 186 947 122 910 q 331 983 250 983 q 473 947 410 983 q 572 846 536 910 q 607 706 607 782 q 572 565 607 629 q 473 465 536 501 q 331 428 410 428 m 331 528 q 450 579 404 528 q 496 706 496 631 q 451 831 496 781 q 331 882 406 882 q 210 831 256 882 q 164 706 164 781 q 210 579 164 631 q 331 528 257 528 m 1089 -24 q 945 14 1008 -24 q 846 115 882 51 q 810 256 810 179 q 845 395 810 332 q 944 495 881 458 q 1089 532 1008 532 q 1231 495 1168 532 q 1330 395 1294 458 q 1365 256 1365 332 q 1330 115 1365 179 q 1231 14 1294 51 q 1089 -24 1168 -24 m 1722 -24 q 1579 14 1643 -24 q 1480 115 1515 51 q 1444 256 1444 179 q 1480 395 1444 332 q 1579 495 1515 458 q 1722 532 1643 532 q 1866 495 1803 532 q 1965 395 1929 458 q 2000 256 2000 332 q 1965 115 2000 179 q 1866 14 1929 51 q 1722 -24 1803 -24 m 1089 78 q 1208 129 1163 78 q 1254 256 1254 181 q 1208 381 1254 331 q 1089 432 1163 432 q 968 381 1014 432 q 922 256 922 331 q 969 129 922 181 q 1089 78 1015 78 m 1722 78 q 1842 129 1797 78 q 1888 256 1888 181 q 1842 381 1888 331 q 1722 432 1797 432 q 1602 381 1649 432 q 1556 256 1556 331 q 1602 129 1556 181 q 1722 78 1649 78 z "},"+":{"ha":764,"x_min":93,"x_max":671,"o":"m 671 407 l 444 407 l 444 179 l 319 178 l 319 407 l 93 407 l 93 529 l 319 529 l 319 756 l 444 757 l 444 529 l 671 529 l 671 407 z "},"±":{"ha":764,"x_min":93,"x_max":671,"o":"m 93 0 m 671 407 l 444 407 l 444 179 l 319 178 l 319 407 l 93 407 l 93 529 l 319 529 l 319 756 l 444 757 l 444 529 l 671 529 l 671 407 m 93 99 l 671 99 l 671 -24 l 93 -24 l 93 99 z "},"∏":{"ha":1097,"x_min":149,"x_max":949,"o":"m 949 -329 l 814 -329 l 814 932 l 283 932 l 283 -329 l 149 -329 l 149 1053 l 949 1053 l 949 -329 z "},"√":{"ha":972,"x_min":64,"x_max":1054,"o":"m 1054 1303 l 589 -240 l 479 -240 l 229 368 l 129 294 l 64 397 l 281 556 l 529 -49 l 926 1303 l 1054 1303 z "},"∑":{"ha":961,"x_min":111,"x_max":878,"o":"m 878 -208 l 878 -329 l 111 -329 l 111 -211 l 517 363 l 111 935 l 111 1053 l 868 1053 l 868 932 l 281 932 l 660 396 l 660 329 l 281 -208 l 878 -208 z "},"◌":{"ha":1069,"x_min":129,"x_max":940,"o":"m 536 742 q 496 758 513 742 q 479 799 479 775 q 496 838 479 821 q 536 856 513 856 q 576 838 558 856 q 593 799 593 821 q 576 758 593 775 q 536 742 558 742 m 358 697 q 319 714 336 697 q 303 754 303 731 q 319 794 303 778 q 358 811 336 811 q 399 794 382 811 q 415 754 415 778 q 399 715 415 732 q 358 697 382 697 m 708 697 q 669 715 686 697 q 651 754 651 732 q 669 794 651 778 q 708 811 686 811 q 749 794 732 811 q 765 754 765 778 q 749 714 765 731 q 708 697 732 697 m 229 568 q 189 585 206 568 q 172 625 172 601 q 189 665 172 649 q 229 682 206 682 q 269 665 253 682 q 286 625 286 649 q 269 585 286 601 q 229 568 253 568 m 840 568 q 800 585 817 568 q 783 625 783 601 q 801 665 783 649 q 840 682 818 682 q 881 665 864 682 q 897 625 897 649 q 881 585 897 601 q 840 568 864 568 m 186 392 q 146 408 163 392 q 129 449 129 425 q 146 489 129 472 q 186 506 163 506 q 226 489 210 506 q 243 449 243 472 q 226 409 243 426 q 186 392 210 392 m 883 392 q 844 409 861 392 q 828 449 828 426 q 844 489 828 472 q 883 506 861 506 q 924 489 907 506 q 940 449 940 472 q 924 408 940 425 q 883 392 907 392 m 229 217 q 189 233 206 217 q 172 274 172 250 q 189 313 172 297 q 229 329 206 329 q 269 313 253 329 q 286 274 286 296 q 269 234 286 251 q 229 217 253 217 m 840 217 q 801 234 818 217 q 783 274 783 251 q 800 313 783 296 q 840 329 817 329 q 881 313 864 329 q 897 274 897 297 q 881 233 897 250 q 840 217 864 217 m 358 85 q 319 101 336 85 q 303 142 303 118 q 319 181 303 165 q 358 197 336 197 q 399 181 382 197 q 415 142 415 164 q 399 102 415 119 q 358 85 382 85 m 708 85 q 669 102 686 85 q 651 142 651 119 q 668 181 651 164 q 708 197 685 197 q 749 181 732 197 q 765 142 765 165 q 749 101 765 118 q 708 85 732 85 m 536 42 q 496 58 513 42 q 479 99 479 75 q 496 139 479 122 q 536 156 513 156 q 576 139 558 156 q 593 99 593 122 q 576 59 593 76 q 536 42 558 42 z "},"◊":{"ha":764,"x_min":54,"x_max":714,"o":"m 714 468 l 438 0 l 332 0 l 54 468 l 332 936 l 436 936 l 714 468 m 574 468 l 385 790 l 194 468 l 385 146 l 574 468 z "},"|":{"ha":429,"x_min":149,"x_max":282,"o":"m 149 1176 l 282 1176 l 282 -179 l 149 -179 l 149 1176 z "},"¦":{"ha":429,"x_min":149,"x_max":282,"o":"m 149 1176 l 282 1176 l 282 654 l 149 654 l 149 1176 m 149 343 l 282 343 l 282 -179 l 149 -179 l 149 343 z "},"@":{"ha":1369,"x_min":83,"x_max":1286,"o":"m 889 219 q 879 168 879 183 q 898 128 879 140 q 957 115 917 115 q 1076 165 1026 115 q 1150 294 1125 214 q 1175 468 1175 375 q 1056 793 1175 679 q 725 907 938 907 q 462 832 583 907 q 267 622 340 757 q 194 317 194 488 q 316 -59 194 81 q 675 -199 438 -199 q 852 -173 768 -199 q 1029 -97 936 -147 l 1067 -190 q 874 -268 964 -242 q 675 -294 783 -294 q 367 -223 501 -294 q 158 -13 233 -151 q 83 317 83 125 q 171 673 83 517 q 405 916 258 829 q 725 1003 551 1003 q 1023 938 896 1003 q 1218 751 1150 872 q 1286 468 1286 631 q 1242 235 1286 338 q 1121 76 1199 133 q 944 19 1043 19 q 826 47 869 19 q 771 128 782 75 q 588 38 689 38 q 435 97 492 38 q 378 267 378 156 q 424 489 378 389 q 550 646 471 589 q 724 703 629 703 q 890 615 838 703 l 910 681 l 1024 681 l 889 219 m 601 140 q 788 264 703 140 l 863 521 q 802 581 835 563 q 729 600 769 600 q 608 553 661 600 q 525 430 556 506 q 493 272 494 354 q 519 170 493 200 q 601 140 546 140 z "},"&":{"ha":1131,"x_min":75,"x_max":1089,"o":"m 1089 121 l 1089 0 l 1032 0 q 744 107 897 0 q 594 10 675 44 q 425 -24 513 -24 q 233 16 313 -24 q 115 124 154 56 q 75 282 75 193 q 131 456 75 388 q 290 590 188 525 q 213 715 239 657 q 186 840 186 772 q 258 1016 186 950 q 443 1082 329 1082 q 624 1019 556 1082 q 693 851 693 957 q 642 712 693 776 q 508 594 590 647 l 467 567 q 592 423 518 503 q 739 278 667 343 q 822 465 793 358 q 853 692 851 571 l 989 692 q 947 430 989 557 q 831 203 906 303 q 1033 121 947 121 l 1089 121 m 443 968 q 352 934 382 968 q 322 839 322 900 q 340 749 322 792 q 394 657 357 707 l 447 690 q 557 854 557 763 q 529 937 557 906 q 443 968 501 968 m 211 285 q 267 149 211 204 q 425 94 322 94 q 654 182 551 94 q 361 499 525 303 q 247 399 283 446 q 211 285 211 353 z "},"¶":{"ha":964,"x_min":63,"x_max":815,"o":"m 432 418 l 392 418 q 144 499 226 418 q 63 733 63 579 q 392 1053 63 1053 l 815 1053 l 815 -139 l 692 -139 l 692 935 l 556 935 l 556 -139 l 432 -139 l 432 418 z "},"©":{"ha":1299,"x_min":93,"x_max":1206,"o":"m 650 -24 q 369 48 497 -24 q 167 244 242 119 q 93 525 93 369 q 168 798 93 672 q 371 998 243 924 q 650 1072 499 1072 q 926 998 799 1072 q 1130 798 1054 924 q 1206 525 1206 672 q 1131 245 1206 371 q 928 48 1056 119 q 650 -24 800 -24 m 650 76 q 870 135 768 76 q 1033 298 972 194 q 1094 528 1094 401 q 1033 749 1094 646 q 869 912 971 851 q 650 972 767 972 q 427 911 529 972 q 265 747 325 850 q 204 525 204 644 q 264 296 204 399 q 426 135 324 193 q 650 76 528 76 m 660 215 q 497 256 564 215 q 395 368 429 297 q 361 525 361 439 q 437 747 361 661 q 660 833 513 833 q 735 827 703 833 q 804 806 768 821 l 804 696 q 660 729 742 729 q 528 673 576 729 q 479 529 479 617 q 526 376 479 431 q 660 321 572 321 q 740 331 701 321 q 824 360 779 340 l 851 264 q 756 228 806 240 q 660 215 706 215 z "},"®":{"ha":1001,"x_min":99,"x_max":903,"o":"m 501 1068 q 702 1014 610 1068 q 849 868 794 960 q 903 671 903 776 q 849 467 903 558 q 702 324 794 376 q 501 272 610 272 q 298 324 390 272 q 152 467 206 375 q 99 671 99 558 q 153 868 99 776 q 299 1014 207 960 q 501 1068 392 1068 m 501 356 q 658 397 586 356 q 774 512 731 439 q 817 674 817 585 q 773 828 817 757 q 656 942 729 900 q 501 985 583 985 q 342 942 415 985 q 227 828 269 900 q 185 671 185 756 q 227 510 185 582 q 342 397 269 438 q 501 356 415 356 m 660 742 q 586 619 660 647 l 679 469 l 583 469 l 500 607 l 436 607 l 436 469 l 353 469 l 353 872 l 511 872 q 623 841 586 872 q 660 742 660 810 m 436 681 l 503 681 q 558 694 543 681 q 574 742 574 707 q 558 786 574 774 q 503 799 543 799 l 436 799 l 436 681 z "},"§":{"ha":764,"x_min":57,"x_max":707,"o":"m 707 415 q 560 231 706 289 q 644 65 644 172 q 570 -87 643 -32 q 371 -142 497 -142 q 136 -101 240 -142 l 136 21 q 371 -28 243 -28 q 481 -2 444 -28 q 518 65 518 24 q 486 132 518 107 q 397 172 454 157 l 299 199 q 170 244 221 219 q 88 312 119 269 q 57 422 57 354 q 201 600 57 544 q 129 754 129 654 q 198 905 129 854 q 389 956 267 956 q 514 944 460 956 q 625 908 568 933 l 625 788 q 512 829 567 817 q 389 842 457 842 q 289 819 322 842 q 256 754 256 796 q 283 692 256 713 q 364 657 311 671 l 463 629 q 640 551 575 597 q 707 415 706 504 m 449 281 q 581 403 581 317 q 540 471 581 446 q 418 518 499 496 l 325 544 l 310 549 q 183 435 185 518 q 200 379 185 400 q 248 343 215 358 q 343 310 281 328 l 436 283 l 449 281 z "},"™":{"ha":1583,"x_min":56,"x_max":1435,"o":"m 586 940 l 381 940 l 381 300 l 261 300 l 261 940 l 56 940 l 56 1053 l 586 1053 l 586 940 m 1435 1053 l 1435 300 l 1315 300 l 1315 860 l 1104 569 l 1046 569 l 835 860 l 835 300 l 715 300 l 715 1053 l 818 1053 l 1075 701 l 1332 1053 l 1435 1053 z "},"°":{"ha":657,"x_min":56,"x_max":601,"o":"m 329 419 q 192 456 254 419 q 92 556 129 493 q 56 693 56 618 q 92 831 56 768 q 192 929 129 893 q 329 965 254 965 q 467 929 404 965 q 565 831 529 893 q 601 693 601 768 q 565 556 601 618 q 467 456 529 493 q 329 419 404 419 m 329 529 q 440 576 397 529 q 483 693 483 624 q 440 809 483 763 q 329 856 397 856 q 217 808 261 856 q 174 693 174 761 q 217 576 174 624 q 329 529 261 529 z "},"^":{"ha":764,"x_min":29,"x_max":735,"o":"m 629 178 l 382 599 l 135 178 l 29 239 l 329 744 l 433 744 l 735 238 l 629 178 z "},"†":{"ha":644,"x_min":53,"x_max":592,"o":"m 592 751 l 389 751 l 389 65 l 256 65 l 256 751 l 53 751 l 53 878 l 256 878 l 256 1118 l 389 1118 l 389 878 l 592 878 l 592 751 z "},"‡":{"ha":644,"x_min":53,"x_max":592,"o":"m 389 751 l 389 461 l 592 461 l 592 335 l 389 335 l 389 -249 l 256 -249 l 256 335 l 53 335 l 53 461 l 256 461 l 256 751 l 53 751 l 53 878 l 256 878 l 256 1118 l 389 1118 l 389 878 l 592 878 l 592 751 l 389 751 z "},"ऽ":{"ha":674,"x_min":18,"x_max":610,"o":"m 18 99 l 194 99 q 355 135 306 99 q 404 243 404 171 q 372 342 404 299 q 278 443 340 386 q 200 522 229 489 q 150 600 171 556 q 129 699 129 644 q 188 845 129 792 q 372 899 247 899 l 610 899 l 610 801 l 396 801 q 285 776 318 801 q 251 699 251 751 q 281 612 251 651 q 369 517 310 572 q 451 435 419 471 q 504 350 482 399 q 526 243 526 301 q 451 64 526 128 q 218 0 376 0 l 18 0 l 18 99 z "},"ॐ":{"ha":1297,"x_min":63,"x_max":1228,"o":"m 813 972 l 718 1065 l 813 1161 l 907 1065 l 813 972 m 813 763 q 610 820 679 763 q 540 988 540 878 l 540 1007 l 649 1007 l 649 988 q 813 861 649 861 q 976 988 976 861 l 976 1007 l 1085 1007 l 1085 988 q 1015 820 1085 878 q 813 763 946 763 m 954 676 q 1165 602 1103 676 q 1228 363 1228 528 q 1163 118 1228 189 q 961 47 1099 47 l 940 47 q 747 109 811 47 q 675 321 682 171 l 494 321 q 496 299 496 314 q 397 113 496 169 q 143 56 297 56 l 63 56 l 63 154 l 143 154 q 309 187 243 154 q 375 308 375 219 q 333 404 375 372 q 197 436 290 436 l 126 436 l 126 535 l 199 535 q 331 574 288 535 q 375 676 375 613 q 328 774 375 746 q 185 801 281 801 l 106 801 l 106 899 l 185 899 q 419 850 343 899 q 496 688 496 801 q 465 570 496 619 q 369 489 433 521 q 463 419 429 469 l 676 419 q 751 617 686 558 q 954 676 817 676 m 961 146 q 1042 163 1011 146 q 1090 228 1074 181 q 1106 363 1106 275 q 1090 493 1106 446 q 1041 560 1074 540 q 954 579 1008 579 q 863 560 897 579 q 813 494 829 542 q 796 363 796 447 q 813 227 796 274 q 861 163 829 181 q 949 146 893 146 l 961 146 z "},"̦":{"ha":901,"x_min":-562,"x_max":-379,"o":"m -518 -111 l -379 -111 l -436 -342 l -562 -342 l -518 -111 z "},"´":{"ha":901,"x_min":353,"x_max":653,"o":"m 499 1124 l 653 1124 l 485 911 l 353 911 l 499 1124 z "},"˘":{"ha":901,"x_min":235,"x_max":672,"o":"m 453 910 q 294 959 353 910 q 235 1106 235 1008 l 235 1121 l 342 1121 l 342 1107 q 368 1025 342 1051 q 453 999 394 999 q 538 1025 511 999 q 564 1107 564 1051 l 564 1121 l 669 1121 l 669 1106 q 614 959 672 1008 q 453 910 556 910 z "},"ˇ":{"ha":901,"x_min":217,"x_max":685,"o":"m 685 1124 l 531 911 l 371 911 l 217 1124 l 357 1124 l 451 972 l 544 1124 l 685 1124 z "},"¸":{"ha":901,"x_min":315,"x_max":631,"o":"m 479 -87 q 592 -124 553 -87 q 631 -221 631 -161 q 585 -326 631 -286 q 451 -365 539 -365 q 315 -337 376 -365 l 315 -249 q 443 -278 379 -278 q 507 -262 486 -278 q 528 -222 528 -246 q 451 -171 528 -171 q 339 -192 407 -171 l 396 1 l 494 1 l 467 -87 l 479 -87 z "},"ˆ":{"ha":901,"x_min":217,"x_max":685,"o":"m 544 911 l 451 1063 l 357 911 l 217 911 l 371 1124 l 531 1124 l 685 911 l 544 911 z "},"¨":{"ha":901,"x_min":249,"x_max":653,"o":"m 532 1103 l 653 1103 l 653 931 l 532 931 l 532 1103 m 249 1103 l 371 1103 l 371 931 l 249 931 l 249 1103 z "},"˙":{"ha":901,"x_min":388,"x_max":518,"o":"m 388 1103 l 518 1103 l 518 931 l 388 931 l 388 1103 z "},"`":{"ha":901,"x_min":250,"x_max":550,"o":"m 250 1124 l 406 1124 l 550 911 l 418 911 l 250 1124 z "},"˝":{"ha":901,"x_min":226,"x_max":779,"o":"m 633 1124 l 779 1124 l 611 911 l 489 911 l 633 1124 m 372 1124 l 518 1124 l 350 911 l 226 911 l 372 1124 z "},"¯":{"ha":901,"x_min":236,"x_max":665,"o":"m 236 1065 l 665 1065 l 665 971 l 236 971 l 236 1065 z "},"˛":{"ha":901,"x_min":290,"x_max":538,"o":"m 451 -328 q 331 -294 372 -328 q 290 -204 290 -261 q 322 -100 290 -150 q 419 0 354 -50 l 538 0 q 435 -96 471 -51 q 399 -186 399 -140 q 415 -226 399 -211 q 464 -240 432 -240 q 538 -224 503 -240 l 538 -311 q 451 -328 499 -328 z "},"˚":{"ha":901,"x_min":308,"x_max":593,"o":"m 451 889 q 347 925 386 889 q 308 1017 308 961 q 347 1108 308 1072 q 451 1143 385 1143 q 555 1108 517 1143 q 593 1017 593 1072 q 555 925 593 961 q 451 889 517 889 m 451 956 q 496 972 479 956 q 513 1017 513 989 q 496 1061 513 1044 q 451 1078 479 1078 q 406 1061 424 1078 q 389 1017 389 1044 q 406 972 389 989 q 451 956 424 956 z "},"˜":{"ha":901,"x_min":232,"x_max":669,"o":"m 232 935 q 266 1056 233 1019 q 350 1092 299 1092 q 431 1071 386 1092 l 482 1047 q 529 1033 514 1033 q 567 1092 567 1033 l 669 1092 q 551 935 665 935 q 471 956 510 935 l 419 979 q 394 989 406 985 q 372 993 382 993 q 335 935 335 993 l 232 935 z "},"ु":{"ha":0,"x_min":-624,"x_max":75,"o":"m -190 -408 q -427 -356 -324 -408 q -624 -222 -531 -304 l -558 -150 q -388 -267 -476 -225 q -194 -310 -300 -310 q -84 -281 -122 -310 q -46 -199 -46 -253 q -76 -124 -46 -150 q -165 -97 -107 -97 l -279 -97 l -279 1 l -154 1 q 10 -51 -53 1 q 75 -196 74 -103 q 3 -354 75 -300 q -190 -408 -68 -408 z "},"ू":{"ha":0,"x_min":-482,"x_max":228,"o":"m -251 -400 q -417 -348 -354 -400 q -482 -203 -481 -296 q -410 -44 -482 -97 q -217 10 -339 10 q -28 -35 -110 10 q 109 -147 53 -81 q 228 -312 165 -214 l 142 -371 q 31 -217 76 -272 q -74 -125 -14 -161 q -212 -89 -135 -89 q -323 -117 -285 -89 q -361 -199 -361 -146 q -330 -274 -361 -247 q -242 -301 -299 -301 l -150 -301 l -150 -400 l -251 -400 z "},"ृ":{"ha":0,"x_min":-392,"x_max":-18,"o":"m -167 -317 q -337 -274 -282 -317 q -392 -140 -392 -232 q -181 36 -392 36 l -129 36 l -129 -57 l -176 -57 q -249 -78 -224 -57 q -275 -140 -275 -99 q -247 -203 -275 -185 q -162 -222 -218 -222 q -18 -175 -87 -222 l -18 -278 q -167 -317 -87 -317 z "},"ॄ":{"ha":0,"x_min":-389,"x_max":15,"o":"m -129 -422 q 15 -379 -51 -422 l 15 -482 q -133 -515 -50 -515 q -300 -476 -246 -515 q -354 -353 -354 -437 q -300 -235 -354 -275 q -369 -182 -349 -215 q -389 -103 -389 -149 q -342 11 -389 -28 q -189 50 -296 50 q -110 43 -137 50 l -110 -50 q -185 -43 -142 -43 q -252 -60 -232 -43 q -272 -111 -272 -78 q -247 -163 -272 -146 q -150 -181 -221 -181 l -82 -181 l -82 -256 l -101 -256 l -101 -269 l -143 -269 q -212 -287 -187 -269 q -237 -344 -237 -306 q -211 -404 -237 -386 q -129 -422 -185 -422 z "},"ॢ":{"ha":0,"x_min":-685,"x_max":4,"o":"m -106 -549 q 4 -510 -53 -549 l 4 -604 q -122 -637 -40 -637 q -240 -601 -197 -637 q -283 -511 -283 -565 q -265 -446 -283 -475 q -210 -381 -246 -417 q -157 -316 -174 -342 q -140 -257 -140 -290 q -214 -190 -140 -190 q -279 -219 -257 -190 q -301 -300 -301 -249 l -301 -347 l -396 -347 l -396 -300 q -420 -219 -397 -249 q -486 -190 -443 -190 q -553 -221 -531 -190 q -576 -306 -575 -251 q -539 -416 -574 -374 q -414 -458 -504 -458 l -403 -458 l -403 -549 l -414 -549 q -622 -477 -558 -549 q -685 -303 -685 -406 q -637 -149 -685 -206 q -497 -92 -589 -92 q -350 -164 -400 -92 q -260 -100 -317 -115 l -260 97 l -139 97 l -139 -100 q -60 -156 -87 -117 q -32 -249 -32 -196 q -55 -342 -32 -303 q -121 -428 -78 -381 q -158 -470 -146 -453 q -171 -506 -171 -487 q -106 -549 -171 -549 z "},"ॣ":{"ha":0,"x_min":-685,"x_max":21,"o":"m -79 -733 q 21 -700 -26 -733 l 21 -796 q -96 -822 -22 -822 q -215 -791 -174 -822 q -256 -697 -256 -760 q -225 -612 -256 -647 q -285 -511 -285 -575 q -266 -447 -285 -475 q -211 -381 -247 -418 q -158 -317 -175 -343 q -140 -257 -140 -290 q -160 -208 -140 -224 q -214 -192 -179 -192 q -279 -220 -257 -192 q -301 -300 -301 -249 l -301 -342 l -315 -342 l -315 -347 l -396 -347 l -396 -300 q -420 -219 -397 -249 q -486 -190 -443 -190 q -553 -221 -531 -190 q -576 -306 -575 -251 q -539 -416 -574 -374 q -414 -458 -504 -458 l -403 -458 l -403 -549 l -414 -549 q -622 -477 -558 -549 q -685 -303 -685 -406 q -637 -149 -685 -206 q -497 -92 -589 -92 q -350 -164 -400 -92 q -260 -100 -317 -115 l -260 97 l -139 97 l -139 -101 q -60 -157 -87 -117 q -32 -249 -32 -197 q -56 -343 -32 -304 q -122 -428 -79 -382 q -160 -470 -147 -453 q -172 -506 -172 -487 q -107 -549 -172 -549 q -36 -531 -72 -549 l -36 -624 q -103 -639 -60 -635 l -124 -637 q -142 -687 -142 -660 q -126 -722 -142 -711 q -79 -733 -110 -733 z "},"ॅ":{"ha":0,"x_min":-464,"x_max":81,"o":"m -192 986 q -394 1044 -325 986 q -464 1211 -464 1101 l -464 1231 l -356 1231 l -356 1211 q -192 1085 -356 1085 q -28 1211 -28 1085 l -28 1231 l 81 1231 l 81 1211 q 11 1044 81 1101 q -192 986 -58 986 z "},"ँ":{"ha":0,"x_min":-464,"x_max":81,"o":"m 0 986 m -192 986 q -394 1044 -325 986 q -464 1211 -464 1101 l -464 1231 l -356 1231 l -356 1211 q -192 1085 -356 1085 q -28 1211 -28 1085 l -28 1231 l 81 1231 l 81 1211 q 11 1044 81 1101 q -192 986 -58 986 m -286 1294 l -192 1390 l -97 1294 l -192 1201 l -286 1294 z "},"ॆ":{"ha":833,"x_min":-1765,"x_max":-962,"o":"m -1085 936 q -1097 1022 -1085 990 q -1144 1068 -1110 1053 q -1244 1083 -1178 1083 l -1476 1083 q -1653 1110 -1590 1083 q -1740 1190 -1715 1136 q -1765 1332 -1765 1243 l -1765 1363 l -1643 1363 l -1643 1332 q -1632 1242 -1643 1274 q -1585 1196 -1621 1211 q -1476 1181 -1550 1181 l -1244 1181 q -1065 1155 -1125 1181 q -983 1078 -1004 1129 q -962 936 -962 1028 l -962 867 l -1085 867 l -1085 936 z "},"े":{"ha":0,"x_min":-554,"x_max":-128,"o":"m -293 1058 q -340 1151 -308 1126 q -440 1175 -372 1175 l -554 1175 l -554 1272 l -440 1272 q -308 1257 -357 1272 q -226 1196 -258 1242 q -172 1058 -193 1150 l -128 867 l -250 867 l -293 1058 z "},"ै":{"ha":0,"x_min":-704,"x_max":-128,"o":"m -128 867 l -250 867 l -333 971 q -428 1051 -379 1029 q -576 1074 -478 1074 l -704 1074 l -704 1172 l -576 1172 q -440 1160 -492 1172 q -353 1119 -389 1147 q -275 1039 -317 1092 l -307 1181 q -356 1265 -321 1243 q -465 1288 -392 1288 l -579 1288 l -579 1385 l -465 1385 q -333 1369 -382 1385 q -251 1310 -283 1354 q -199 1181 -218 1267 l -128 867 z "},"ं":{"ha":0,"x_min":-286,"x_max":-97,"o":"m -286 1067 l -192 1163 l -97 1067 l -192 974 l -286 1067 z "},"्":{"ha":0,"x_min":-290,"x_max":61,"o":"m -290 -164 l -219 -83 l 61 -300 l -10 -382 l -290 -164 z "},"़":{"ha":0,"x_min":-325,"x_max":-135,"o":"m -325 -162 l -231 -68 l -135 -162 l -231 -256 l -325 -162 z "},"ऺ":{"ha":0,"x_min":-251,"x_max":-129,"o":"m -251 1254 l -129 1254 l -129 851 l -251 851 l -251 1254 z "},"ॖ":{"ha":0,"x_min":-507,"x_max":124,"o":"m -192 -282 q -379 -237 -297 -282 q -507 -121 -461 -193 l -432 -61 q -192 -185 -336 -183 q 49 -61 -47 -183 l 124 -121 q -4 -237 78 -193 q -192 -282 -86 -282 z "},"ॗ":{"ha":0,"x_min":-507,"x_max":124,"o":"m -192 -282 q -379 -237 -297 -282 q -507 -121 -461 -193 l -432 -61 q -192 -185 -336 -183 q 49 -61 -47 -183 l 124 -121 q -4 -237 78 -193 q -192 -282 -86 -282 m -192 -518 q -379 -474 -297 -518 q -507 -357 -461 -429 l -432 -297 q -192 -421 -336 -419 q 49 -297 -47 -419 l 124 -357 q -4 -474 78 -429 q -192 -518 -86 -518 z "},"॑":{"ha":0,"x_min":-251,"x_max":-129,"o":"m -251 1392 l -129 1392 l -129 1026 l -251 1026 l -251 1392 z "},"॒":{"ha":0,"x_min":-535,"x_max":107,"o":"m -535 -278 l 107 -278 l 107 -385 l -535 -385 l -535 -278 z "},"॓":{"ha":0,"x_min":-578,"x_max":-208,"o":"m -578 1376 l -424 1376 l -208 1064 l -329 1064 l -578 1376 z "},"॔":{"ha":0,"x_min":-275,"x_max":94,"o":"m -60 1376 l 94 1376 l -154 1064 l -275 1064 l -60 1376 z "},"ः":{"ha":419,"x_min":114,"x_max":304,"o":"m 114 601 l 210 696 l 304 601 l 210 508 l 114 601 m 114 136 l 210 231 l 304 136 l 210 42 l 114 136 z "}}}
